<?xml version="1.0" encoding="utf-8"?>
<!-- Generator: Adobe Illustrator 16.0.4, SVG Export Plug-In . SVG Version: 6.00 Build 0)  -->
<!DOCTYPE svg PUBLIC "-//W3C//DTD SVG 1.1//EN" "http://www.w3.org/Graphics/SVG/1.1/DTD/svg11.dtd">
<svg version="1.1" id="Layer_1" xmlns="http://www.w3.org/2000/svg" xmlns:xlink="http://www.w3.org/1999/xlink" x="0px" y="0px"
	 width="198.97px" height="174.185px" viewBox="0 0 198.97 174.185" enable-background="new 0 0 198.97 174.185"
	 xml:space="preserve">
<g>
	<circle fill="#565057" cx="59.221" cy="162.001" r="12.184"/>
	<circle fill="#565057" cx="130.216" cy="162.001" r="12.184"/>
	<path fill="#807F7F" d="M97.11-0.001c-6.848,0-12.408,5.452-12.613,12.25h25.227C109.519,5.451,103.957-0.001,97.11-0.001z"/>
	<path opacity="0.69" fill="#A599A7" d="M175.415,10.249h-9.982c1.964,16.946,24.878,130.581,22.896,142.741
		c-46.543,6.633-174.63-3.487-185.735-5.835L0,164.092h198.97L175.415,10.249z"/>
	<polygon fill="#B9B9BA" points="198.97,164.092 0,164.092 23.552,10.249 175.415,10.249 	"/>
	<polygon fill="#565057" stroke="#E4E4E4" stroke-width="3.172" stroke-miterlimit="10" points="145.108,91.136 46.775,91.136 
		45.189,35.625 148.281,35.625 	"/>
	<ellipse fill="#807F7F" cx="142.462" cy="108.751" rx="3.548" ry="3.817"/>
	<ellipse fill="#807F7F" cx="131.814" cy="108.751" rx="3.549" ry="3.817"/>
	<ellipse fill="#807F7F" cx="121.168" cy="108.751" rx="3.549" ry="3.817"/>
	<path fill="#DBA9CD" d="M96.221,83.489c0,0-26.826-20.344-16.387-31.104c9.556-9.849,17.241-1.319,17.241-1.319
		s8.714-11.084,17.667-1.982C125.05,59.567,96.221,83.489,96.221,83.489z"/>
	<path fill="#BD7DB4" d="M96.181,80.455c0,0-21.717-16.468-13.266-25.18c7.734-7.973,13.956-1.066,13.956-1.066
		s7.056-8.975,14.302-1.604C119.517,61.09,96.181,80.455,96.181,80.455z"/>
</g>
</svg>
