<?xml version="1.0" encoding="utf-8"?>
<!-- Generator: Adobe Illustrator 19.2.1, SVG Export Plug-In . SVG Version: 6.00 Build 0)  -->
<svg version="1.1" id="Layer_1" xmlns="http://www.w3.org/2000/svg" xmlns:xlink="http://www.w3.org/1999/xlink" x="0px" y="0px"
	 viewBox="0 0 791.5 783.8" style="enable-background:new 0 0 791.5 783.8;" xml:space="preserve">
<style type="text/css">
	.st0{opacity:0.5;}
	.st1{fill:#FFFFFF;}
	.st2{opacity:0.5;fill:#FFFFFF;enable-background:new    ;}
	.st3{fill:#F79520;}
	.st4{fill:#F15A2B;}
</style>
<title>cluster2</title>
<g class="st0">
	<path class="st1" d="M626.6,680.5l0.1-8.4l-0.9-2.1c0-0.7-2.6-1.3-5.9-1.4s-5.9,0.5-5.9,1.2l-1,2.1l-0.1,8.4L626.6,680.5z"/>
	<polygon class="st1" points="616,689.4 622.4,687.8 620.8,685.1 624.5,685.2 622.5,681.6 626.6,680.5 628.2,677.1 624.3,673.4 
		614.2,672.3 611.5,673.2 612.4,676.9 608.8,675.6 608.7,677.7 	"/>
</g>
<g class="st0">
	<path class="st1" d="M619.9,708.8l1.2,0.7l-0.3,0.5l2.3,1.4l2.5-4.1l-2.3-1.4l-0.3,0.5l-1.2-0.7c0.3-1.9-0.6-3.8-2.2-4.8l-8.4-5.1
		l-4.9,8.1l8.4,5.1C616.2,710,618.3,709.9,619.9,708.8z"/>
	<path class="st1" d="M615.4,701.7l-3-12.3l0,0c-0.4-1.4-1.8-2.3-3.2-1.9c-0.3,0.1-0.6,0.2-0.8,0.4c-0.7,0.5-1.6,0.7-2.4,0.6
		c-1.4-0.1-2.7,0.9-2.9,2.3c0,0.3,0,0.6,0.1,0.9l0,0l3,12.3L615.4,701.7z"/>
</g>
<path class="st2" d="M127.4,486.5l-0.2-0.2c-5.5-6-0.8-19.7,10.6-32.2l1.4,0.9l-4.3,7.9l8.6-3.2l-1.4,4.1l0.7-0.1
	c-2,3.8-2.5,7.2-0.7,9.1c2.9,3.2,10.9,0.6,17.8-5.7s10.2-14,7.3-17.2s-10.9-0.6-17.8,5.7c-0.5,0.5-1,1-1.5,1.5l0,0l1.4-4.8l-6.9-1.2
	l0.5-2l0.2-0.2c15.1-13.8,32.5-19.4,38.8-12.5l0.2,0.2l0,0l8.8,9.6c6.3,6.9-0.8,23.7-15.9,37.5c-15.1,13.8-32.4,19.4-38.8,12.5
	l-0.2,0.2l-8.8-9.6L127.4,486.5z"/>
<path class="st2" d="M254,748.8c0,0-5-3.2-5.8-3.1s-6-1.3-6-1.3l-5.8,5.5l3.4,4.5l4.4,6.1l-3.2,3.4l-2.6,2.4l-4.3-4.4l-5.7,3.3
	l0.5,4l3.2,4.5l5.5,0.7l5.2,4.7l4,3l5.9-4.2l4.6,5.9l6.2-0.2l3.5-4.1l6.1-12.4l-1.5-4.8l-0.3-9.8l-5.7-3.7l-2.5-1.6l-2.8,3.8
	l-6.7,0.8L254,748.8z M243,767.7l0.6,4.7l-3.6,0.4l-4.5-1l-2.5-0.7l-1.6-3.2l0.4-1.6l2.5-0.3l3.2,3.8L243,767.7z M246.2,755.7
	l-0.9,1.9l-1.9-2.9l-3.4-2.9l-0.9-3.2l5.1-0.6l0.9,2.7L246.2,755.7z"/>
<path class="st2" d="M325.4,644.1l-8.4-7.5l-5.9,2.8l-4.9-5.4l-5.9-4.3c0,0-0.6-3.3-2-3.4s-8.2,2-8.2,2l-14.9,0.2l-1.5,3.1l4.8,8.3
	l2.7,7.6l3.4,2.8l-1.5,5.3l4.3,7.3l-3.3,8.9l4,3.7l6.4-3.8l4.9-5.4l-1-4.8l1.4-7.8c0,0,2.7-1.9,3.8-2.5s9.7-2.8,9.7-2.8l3.8-2.2
	L325.4,644.1z M294.4,657.8l-0.9,4.3l2.2,3.8l-4.9,2.9l-1.8,2.9l-1.2-2.1l2.8-4.5l-1.1-4.1l-2.5-4.3l1.9-2.4L294.4,657.8z
	 M320.8,642.3l-5.7,2l-3.5,2l-0.3-3.6l3.7-3.7L320.8,642.3z"/>
<path class="st2" d="M435.6,488l10.3,22.3l-8.5,4.2c-1.3,0.6-2.6,1-4,1.2l-1.2,0.2c-1.4,0.2-2.7-0.3-3.7-1.3l-3.1-3.4
	c-1.1-1.2-1.4-2.9-0.8-4.5c0.1-0.3,0-0.6-0.3-0.7c0,0,0,0,0,0c-1.5-0.5-2.7-1.9-2.9-3.5l-0.6-4.5c-0.2-1.4,0.3-2.7,1.4-3.6l0.9-0.8
	c2.6-1.6,5.3-3.1,8.1-4.3c0.4-0.2,0.7-0.3,1.1-0.4L435.6,488z"/>
<path class="st3" d="M212.7,431.1l7.4,22.1c0.1,0.4-0.1,0.8-0.5,0.9c-0.1,0-0.2,0-0.3,0l-2.8-0.5c-0.8-0.1-1.4-0.7-1.6-1.4
	l-6.6-19.6L212.7,431.1z"/>
<path class="st3" d="M212.7,431.1l-7.4-22.1c-0.1-0.4-0.5-0.6-0.9-0.4c-0.1,0-0.2,0.1-0.3,0.2l-2,2.1c-0.5,0.6-0.7,1.4-0.5,2.1
	l6.6,19.6L212.7,431.1z"/>
<path class="st3" d="M206.4,413.1l0.1,0.2l1,3.1l0.3,0.9l1,3.1l0.1,0.2l1,3.1l0.3,0.9l1,3.1l0.1,0.2l1,3.1l0.3,0.9l1,3.1l0.1,0.2
	l1,3.1l0.3,0.9l1,3.1l0.1,0.2l1,3.1l0.3,0.9l1,3.1l0.1,0.2l1.3,3.9l2.8-1.8l0.3-0.2l0,0c1.1-1,1.5-2.5,0.9-3.9
	c-0.4-1.6-1.9-2.6-3.5-2.5l0,0c-0.2,0-0.3-0.1-0.3-0.3c0-0.1,0-0.2,0.1-0.3l0.1-0.1l0.3-0.2l0,0c1.1-1,1.5-2.5,0.9-3.9
	c-0.4-1.5-1.7-2.5-3.2-2.5l0,0c-0.2,0-0.3-0.1-0.3-0.3c0-0.1,0-0.2,0.1-0.3l0.1-0.1l0.3-0.2l0,0c1.1-1,1.5-2.5,0.9-3.9
	c-0.4-1.6-1.9-2.6-3.5-2.5l0,0c-0.2,0-0.3-0.1-0.3-0.3c0-0.1,0-0.2,0.1-0.3l0.1-0.1l0.3-0.2l0,0c1.1-1,1.5-2.5,0.9-3.9
	c-0.4-1.6-1.9-2.6-3.6-2.5l0,0c-0.2,0-0.3-0.1-0.3-0.3c0-0.1,0-0.2,0.1-0.3l0.1-0.1l0.3-0.2l0,0c1.1-1,1.5-2.5,0.9-3.9
	c-0.4-1.6-1.9-2.6-3.5-2.5l0,0c-0.2,0-0.3-0.1-0.3-0.3c0-0.1,0-0.2,0.1-0.3l0.1-0.1l0.3-0.2l0,0c1.1-1,1.5-2.5,0.9-3.9
	c-0.4-1.6-1.9-2.6-3.6-2.5l-3.2,0.3L206.4,413.1z"/>
<path class="st3" d="M644.7,20.6c-3.1,1.8-4,5.8-2.2,8.9c1.8,3.1,5.8,4,8.9,2.2c1.5-0.9,2.6-2.4,3-4.1c1.8,3.1,5.8,4.1,8.8,2.3
	c1.6-0.9,2.7-2.4,3.1-4.2c1.8,3.1,5.7,4.1,8.8,2.3s4.1-5.7,2.3-8.8c-0.9-1.6-2.4-2.7-4.2-3.1c3.1-1.8,4-5.8,2.2-8.9
	c-1.8-3.1-5.8-4-8.9-2.2c-1.5,0.9-2.6,2.4-3,4.1c-1.8-3.1-5.8-4.1-8.9-2.2c-1.5,0.9-2.6,2.4-3,4.1c-1.8-3.1-5.8-4.1-8.8-2.3
	c-3.1,1.8-4.1,5.8-2.3,8.8C641.5,19.1,643,20.2,644.7,20.6z M648.8,31c-2.7,0.4-5.3-1.4-5.7-4.1c-0.4-2.7,1.4-5.3,4.1-5.7
	c2.7-0.4,5.3,1.4,5.7,4.1c0,0,0,0,0,0.1C653.4,28,651.5,30.5,648.8,31L648.8,31z M660.7,29.1c-2.7,0.4-5.3-1.4-5.7-4.1
	c-0.4-2.7,1.4-5.3,4.1-5.7c2.7-0.4,5.3,1.4,5.7,4.1c0,0,0,0,0,0.1C665.3,26.1,663.4,28.7,660.7,29.1L660.7,29.1z M676.7,21.6
	c0.4,2.7-1.4,5.3-4.1,5.7c-2.7,0.4-5.3-1.4-5.7-4.1s1.4-5.3,4.1-5.7c0,0,0,0,0.1,0C673.7,17,676.3,18.8,676.7,21.6L676.7,21.6z
	 M669.2,5.6c2.7-0.4,5.3,1.4,5.7,4.1c0.4,2.7-1.4,5.3-4.1,5.7c-2.7,0.4-5.3-1.4-5.7-4.1c0,0,0,0,0-0.1C664.6,8.6,666.5,6,669.2,5.6
	L669.2,5.6z M657.3,7.5c2.7-0.4,5.3,1.4,5.7,4.1c0.4,2.7-1.4,5.3-4.1,5.7c-2.7,0.4-5.3-1.4-5.7-4.1c0,0,0,0,0-0.1
	C652.7,10.5,654.6,7.9,657.3,7.5L657.3,7.5z M645.4,9.4c2.7-0.4,5.3,1.4,5.7,4.1c0.4,2.7-1.4,5.3-4.1,5.7c-2.7,0.4-5.3-1.4-5.7-4.1
	c0,0,0,0,0-0.1C640.8,12.3,642.7,9.8,645.4,9.4L645.4,9.4z"/>
<path class="st3" d="M285.8,145.5c-0.7,2.2,0.4,4.7,2.6,5.6l10.8,4.6l-4.4,10.2l-10.8-4.6c-2.2-1-4.7-0.1-5.8,2
	c-1.1,2.2-0.2,4.8,1.9,5.9c0.1,0,0.2,0.1,0.3,0.1l12.2,5.2l21.4,9.1c2.8,1.2,6.1-0.1,7.3-2.9c0,0,0,0,0,0l7-16.3
	c1.2-2.8-0.1-6.1-2.9-7.3c0,0,0,0,0,0l-21.4-9.1l-12.2-5.2c-2.2-1-4.8,0-5.8,2.3C285.9,145.3,285.8,145.4,285.8,145.5z M291.4,171.8
	l-9.9-4.2c-1.1-0.5-1.7-1.7-1.3-2.9c0.4-1.2,1.7-1.8,2.8-1.3c0.1,0,0.1,0,0.2,0.1l10,4.3c1.1,0.5,1.7,1.8,1.2,2.9c0,0,0,0,0,0l0,0
	C293.8,171.7,292.5,172.3,291.4,171.8C291.4,171.8,291.4,171.8,291.4,171.8L291.4,171.8z M299.2,153.4l-9.9-4.2
	c-1.1-0.4-1.7-1.7-1.4-2.8c0.4-1.2,1.7-1.8,2.8-1.3c0.1,0,0.1,0,0.2,0.1l10,4.3c1.1,0.5,1.7,1.8,1.2,2.9c0,0,0,0,0,0l0,0
	C301.6,153.4,300.4,153.9,299.2,153.4L299.2,153.4z"/>
<path class="st4" d="M455,474.6c-5.8-2.1,0.5-1.8-1.6-8.5c-0.8-2.7-5.7-6-8.5-3.7c-1.7,1.4-3.1,3.1-4.2,5.1c-0.5-1.1-1.9-1.5-3-1
	c-0.2,0.1-0.5,0.3-0.7,0.5c-2.1,2-3.9,6.7-3.9,6.7s-4.8-0.6-5.1,0.7s0.3,3.9,1.9,6.3s-0.2,8.1,2.8,9.5s6.4,0.8,7,0s3.9,2.3,6.5,0.7
	c2.3-1.4,3.7-2.8,4-4c0-0.2,0-0.4,0-0.5c-0.1-1.3,3.2,3.5,6,2.3S460.8,476.7,455,474.6z M433.5,477c2.1,1.9,2.7,1.8,1.9,3.2
	c0,0-3.6,1.4-4.3,0.2s-3.3-4.4-2.5-5.3S431.4,475.1,433.5,477L433.5,477z M440,468.9c1.5,2.2,4.8,6,1,8.8c-1.2,0.9-3.5,1.7-3.8,0.9
	s-1.5-2.2-2.1-3.5s1.4-4,1.7-4.4S438.5,466.8,440,468.9L440,468.9z M447.1,475.1c-2,1.2-3.2-2.8-4.5-5.1s1.3-3.8,1.5-5.2
	s3.7-0.4,5.4-0.5s1.1,3.7,1.1,3.7C451.6,471.7,449.1,473.9,447.1,475.1L447.1,475.1z M436.3,483.6c1.7,0.6,2.4,3,2.5,5.4
	s-3.9,0.4-6-0.7s-1.1-3.9-0.5-4.4C433.5,483.2,435,483.1,436.3,483.6L436.3,483.6z M441.2,480.7c1.1-0.5,2.1-0.2,3.1-0.2
	s2.3,2.8,3.5,4.7c1,1.7-0.7,3.2-2.4,4.2s-3.2-0.7-4-1.1s-2.6-3-3-5S440.2,481.2,441.2,480.7L441.2,480.7z M453,486.5
	c-1-0.4-4.1-3.5-6.1-7s2.4-1.4,3.6-2.2s4.8,0.7,5.5,2.4c0,0,0.6,3,1,4.4S454,486.9,453,486.5z"/>
<path class="st3" d="M693.8,447.9c3,0.4,10.1-7.7,6.2-12.5s1.3-1.3,3.1-8c0.7-2.8-1.6-8.1-5.2-7.6c-2.2,0.3-4.3,1-6.2,2.1
	c0-0.6-0.2-1.2-0.6-1.8l-1,1.9c0.1,0.2,0.2,0.5,0.2,0.7c0.2,2.6,0.9,7.6-3.8,8c-0.3,0-0.6,0-1,0l-1.2,2.4c0.3,0.1,0.6,0.1,0.8,0.2
	c1.2,0.1,1.9,1,2.8,1.5s0.5,3.6,0.4,5.9c-0.1,1.9-2.3,2.3-4.2,2.3s-2.4-2.3-2.8-3c-0.1-0.2-0.2-0.4-0.2-0.6l-1.1,2.1
	c0.8,1.2,2,3.1,4.1,3.1c2.7,0,4.6-0.4,5.5-1.2c0.1-0.1,0.2-0.3,0.3-0.4C690.5,441.7,690.8,447.5,693.8,447.9z M693.1,431.7
	c-2.4,0-1.2-4.1-1.2-6.7s3.2-2.6,4-3.6s3.3,1.6,4.8,2.5s-1,3.7-1,3.7C698.7,431.2,695.5,431.7,693.1,431.7z M692.1,444.4
	c-0.6-0.9-1.7-5.2-1.5-9.2s2.7,0,4.2,0.1s3.7,3.2,3.4,5c0,0-1,2.8-1.5,4.3S692.7,445.3,692.1,444.4L692.1,444.4z"/>
<g class="st0">
	<path class="st1" d="M597.5,684.6l18,4.8c0.3,0.1,0.6-0.1,0.7-0.4c0-0.1,0-0.2,0-0.3l-0.5-2.2c-0.1-0.6-0.6-1.1-1.2-1.2l-16-4.3
		L597.5,684.6z"/>
	<path class="st1" d="M597.5,684.6l-18-4.8c-0.3-0.1-0.5-0.4-0.4-0.7c0-0.1,0.1-0.2,0.1-0.3l1.6-1.7c0.4-0.4,1-0.6,1.6-0.5l16,4.3
		L597.5,684.6z"/>
	<path class="st1" d="M584.4,673.5l0.1,0.1l1.9,1.8l0.5,0.5l1.9,1.8l0.2,0.1l1.9,1.8l0.5,0.5l1.9,1.8l0.1,0.1l1.9,1.8l0.5,0.5
		l1.9,1.8l0.1,0.1l1.9,1.8l0.5,0.5l1.9,1.8l0.1,0.1l1.9,1.8l0.5,0.5l1.9,1.8l0.1,0.1l2.4,2.3l-2.2,1.5l-0.2,0.1l0,0
		c-1.1,0.5-2.3,0.2-3.1-0.6c-1-0.8-1.3-2.3-0.6-3.4l0,0c0.1-0.1,0.1-0.3-0.1-0.3c-0.1-0.1-0.2-0.1-0.3,0l-0.1,0.1l-0.2,0.1l0,0
		c-1.1,0.5-2.3,0.2-3.1-0.6c-1-0.8-1.3-2.3-0.6-3.4l0,0c0.1-0.1,0.1-0.3-0.1-0.3c-0.1-0.1-0.2-0.1-0.3,0l-0.1,0.1l-0.2,0.1l0,0
		c-1.1,0.5-2.3,0.2-3.1-0.6c-1-0.8-1.3-2.3-0.6-3.4l0,0c0.1-0.1,0.1-0.3-0.1-0.3c-0.1-0.1-0.2-0.1-0.3,0l-0.1,0.1l-0.2,0.1l0,0
		c-1.1,0.5-2.3,0.2-3.1-0.6c-1-0.8-1.3-2.3-0.6-3.4l0,0c0.1-0.1,0.1-0.3-0.1-0.3c-0.1-0.1-0.2-0.1-0.3,0l-0.1,0.1l-0.2,0.1l0,0
		c-1.1,0.5-2.3,0.2-3.1-0.6c-1-0.8-1.3-2.3-0.6-3.4l0,0c0.1-0.1,0.1-0.3-0.1-0.3c-0.1-0.1-0.2-0.1-0.3,0l-0.1,0.1l-0.2,0.1l0,0
		c-1.1,0.5-2.3,0.2-3.1-0.6c-1-0.8-1.3-2.3-0.6-3.4l1.3-2.2L584.4,673.5z"/>
	<polyline class="st1" points="609,696.8 608.7,688.2 587.4,671.3 582,671.2 	"/>
	<path class="st1" d="M616.2,688.7l1.3-4.8c0,0,0.6-2.2-2.8-3.1l-30.3-7.4l-3.4,5.2L616.2,688.7z"/>
</g>
<path class="st2" d="M696.2,695.2l8.9,3.4c0.9,0.3,1.9,0.2,2.6-0.3l4.5-2.9c0.3-0.2,0.7-0.1,1.1,0.1l0.5,0.3l-0.2,0.4l2,1.2l3.7-5.8
	l-2-1.2l-0.2,0.4l-0.5-0.3c-0.3-0.2-0.5-0.6-0.5-0.9l0.2-6.9c0.1-2.2-1-4.3-2.8-5.5l-3.9-2.6L696.2,695.2z M707.2,695.7
	c-0.4,0.8-1.4,1.2-2.2,0.8c0,0,0,0,0,0c-0.8-0.4-7-2.7-6.1-4.6s6.7,1.2,7.5,1.6C707.2,693.9,707.6,694.9,707.2,695.7L707.2,695.7z"
	/>
<g class="st0">
	
		<ellipse transform="matrix(0.3504 -0.9366 0.9366 0.3504 -260.4919 1058.7687)" class="st1" cx="633" cy="717.2" rx="4.5" ry="3.7"/>
	
		<ellipse transform="matrix(0.3504 -0.9366 0.9366 0.3504 -257.8573 1057.282)" class="st1" cx="633.2" cy="714.5" rx="2.2" ry="2.2"/>
	
		<ellipse transform="matrix(0.3504 -0.9366 0.9366 0.3504 -258.4633 1054.8772)" class="st1" cx="631.2" cy="713.8" rx="2.2" ry="2.2"/>
	<ellipse transform="matrix(0.3504 -0.9366 0.9366 0.3504 -259.083 1052.464)" class="st1" cx="629.2" cy="713" rx="2.2" ry="2.2"/>
	
		<ellipse transform="matrix(0.3504 -0.9366 0.9366 0.3504 -259.6889 1050.0591)" class="st1" cx="627.1" cy="712.2" rx="2.2" ry="2.2"/>
	
		<ellipse transform="matrix(0.3504 -0.9366 0.9366 0.3504 -260.3153 1047.6368)" class="st1" cx="625.1" cy="711.5" rx="2.2" ry="2.2"/>
	
		<ellipse transform="matrix(0.3489 -0.9371 0.9371 0.3489 -256.5265 1047.1572)" class="st1" cx="625.4" cy="708.2" rx="2.2" ry="2.2"/>
	
		<ellipse transform="matrix(0.3489 -0.9371 0.9371 0.3489 -257.1539 1044.7561)" class="st1" cx="623.3" cy="707.5" rx="2.2" ry="2.2"/>
	
		<ellipse transform="matrix(0.3504 -0.9366 0.9366 0.3504 -262.1377 1040.4075)" class="st1" cx="618.9" cy="709.2" rx="2.2" ry="2.2"/>
	<path class="st1" d="M619.3,709.7c-0.3,0.8-1,1.4-1.8,1.7l0,0c0.5,0.7,0.6,1.6,0.3,2.4c-0.5,1.3-2,2-3.3,1.5
		c-1.4-0.5-2.1-2-1.6-3.3c0.1-0.3,0.3-0.6,0.5-0.8c0.6-0.6,0.9-1.5,0.9-2.3c0-1.4,1.2-2.6,2.7-2.6c0.3,0,0.6,0.1,0.9,0.2
		C619.1,706.9,619.8,708.4,619.3,709.7z"/>
	
		<rect x="622.6" y="704.3" transform="matrix(0.3504 -0.9366 0.9366 0.3504 -262.7097 1049.537)" class="st1" width="5.3" height="19.7"/>
	
		<ellipse transform="matrix(0.3504 -0.9366 0.9366 0.3504 -267.8131 1041.8402)" class="st1" cx="617.1" cy="714" rx="2.2" ry="2.2"/>
	
		<ellipse transform="matrix(0.3504 -0.9366 0.9366 0.3504 -267.1933 1044.2533)" class="st1" cx="619.2" cy="714.7" rx="2.2" ry="2.2"/>
	
		<ellipse transform="matrix(0.3504 -0.9366 0.9366 0.3504 -266.5874 1046.6581)" class="st1" cx="621.2" cy="715.5" rx="2.2" ry="2.2"/>
	
		<ellipse transform="matrix(0.3504 -0.9366 0.9366 0.3504 -265.961 1049.0806)" class="st1" cx="623.3" cy="716.3" rx="2.2" ry="2.2"/>
	
		<ellipse transform="matrix(0.3504 -0.9366 0.9366 0.3504 -265.3644 1051.4919)" class="st1" cx="625.3" cy="717" rx="2.2" ry="2.2"/>
	
		<ellipse transform="matrix(0.3504 -0.9366 0.9366 0.3504 -264.7447 1053.905)" class="st1" cx="627.4" cy="717.8" rx="2.2" ry="2.2"/>
	
		<ellipse transform="matrix(0.3504 -0.9366 0.9366 0.3504 -264.1387 1056.3098)" class="st1" cx="629.4" cy="718.6" rx="2.2" ry="2.2"/>
	
		<ellipse transform="matrix(0.3504 -0.9366 0.9366 0.3504 -263.5234 1058.7351)" class="st1" cx="631.5" cy="719.3" rx="2.2" ry="2.2"/>
	
		<rect x="634.3" y="716.1" transform="matrix(0.3504 -0.9366 0.9366 0.3504 -259.656 1062.0703)" class="st1" width="3.1" height="4.3"/>
	
		<rect x="635.8" y="717.9" transform="matrix(0.3504 -0.9366 0.9366 0.3504 -259.0742 1064.3928)" class="st1" width="3.9" height="2.1"/>
</g>
<g class="st0">
	
		<ellipse transform="matrix(0.9477 -0.3192 0.3192 0.9477 -89.832 179.3274)" class="st1" cx="502.2" cy="363.7" rx="2.7" ry="5.5"/>
	<ellipse transform="matrix(0.9468 -0.3218 0.3218 0.9468 -92.1156 175.8845)" class="st1" cx="486" cy="366.6" rx="3.7" ry="7.3"/>
	<polygon class="st1" points="486,366.6 483.7,359.7 499.5,356.2 501.2,361.4 	"/>
	<polygon class="st1" points="486,366.6 488.4,373.5 503,366.6 501.2,361.4 	"/>
</g>
<g class="st0">
	
		<ellipse transform="matrix(0.9968 -8.002496e-02 8.002496e-02 0.9968 -17.8014 20.0375)" class="st1" cx="241.1" cy="232.1" rx="1.3" ry="5.9"/>
	<polygon class="st1" points="242.6,225.1 243.7,238.8 241.6,238 240.6,226.2 	"/>
	
		<ellipse transform="matrix(0.9968 -8.002496e-02 8.002496e-02 0.9968 -17.5999 21.7069)" class="st1" cx="262" cy="230.4" rx="1.3" ry="5.9"/>
	<polygon class="st1" points="260.5,237.4 259.4,223.8 261.6,224.5 262.5,236.3 	"/>
	
		<rect x="243.2" y="224.4" transform="matrix(0.9968 -8.002489e-02 8.002489e-02 0.9968 -17.7003 20.8744)" class="st1" width="16.8" height="13.7"/>
</g>
<path class="st2" d="M18.1,768.5l9.7-5.6l-0.8-6.5l6.7-2.9l5.9-4.3c0,0,3.3,0.4,3.9-0.8s0.7-8.4,0.7-8.4l4.5-14.2l-2.5-2.4l-9.4,2
	l-8.1,0.2l-3.7,2.4l-4.6-3.1l-8.3,1.8l-7.5-6L0,723.2l1.6,7.3l3.6,6.3l4.9,0.5l7,3.8c0,0,1,3.1,1.2,4.4s-0.3,10-0.3,10l0.9,4.3
	L18.1,768.5z M14.8,734.8l-3.8-2.2l-4.3,0.9L5.5,728l-2.2-2.6l2.4-0.5l3.4,4l4.3,0.3l4.8-1l1.7,2.6L14.8,734.8z M21.3,764.7l-0.2-6
	l-0.8-4l3.5,0.8l2.4,4.7L21.3,764.7z"/>
<path class="st2" d="M29.3,273.8c0,0-5-3.2-5.8-3.1s-6-1.3-6-1.3l-5.8,5.5l3.4,4.5l4.4,6.1l-3.2,3.4l-2.6,2.4l-4.3-4.4l-5.7,3.3
	l0.5,4l3.2,4.5l5.5,0.7l5.2,4.7l4,3l5.8-4.2l4.6,5.9l6.2-0.2l3.5-4.1l6.1-12.4l-1.4-4.8l-0.3-9.8l-5.7-3.7l-2.6-1.6l-2.8,3.8
	l-6.7,0.8L29.3,273.8z M18.3,292.7l0.6,4.7l-3.6,0.4l-4.5-1l-2.5-0.7l-1.6-3.2l0.3-1.6l2.5-0.3l3.2,3.8L18.3,292.7z M21.6,280.7
	l-0.9,1.9l-1.9-2.9l-3.5-2.9l-0.9-3.2l5.1-0.6l0.9,2.7L21.6,280.7z"/>
<g class="st0">
	<path class="st1" d="M699.4,738.6l-7.2-2.7l10.1,0.8l-6.9-3.5l6.8,0.9l-5.2-2.7l5,1.2l-5.3-2.3l6.2,1l-5.1-1.7l5,0.7l-5.9-1.8
		l1.4,0.1l-11.6-2.8c-1-0.2-2.4,1.9-3.1,4.8s-0.5,5.5,0.5,5.7l11.8,2.8L699.4,738.6z"/>
	<path class="st1" d="M711.7,751.5l7.7,8.6c0.2,0.2,0.6,0.2,0.8,0l1.3,1.4c0.2,0.2,0.9,0,1.4-0.5s0.9-1.1,0.7-1.4l-1.3-1.4
		c0.2-0.2,0.2-0.5,0.1-0.8l-7.7-8.7c1-2,0.6-4.4-0.8-6l-8.9-9.9l-1.1-0.8l3.8,4.8l-3.7-3.4l3.2,4.3l-4.5-4.3l3.1,4.9l-3.4-3.8
		l2.7,5.2L700,735l3.7,6.8l-7.9-6.4l4.4,6.3l-3.1-1.4l8.7,9.7C707.3,751.7,709.6,752.2,711.7,751.5z"/>
</g>
<ellipse transform="matrix(0.8 -0.6 0.6 0.8 -115.8604 168.1428)" class="st4" cx="194.3" cy="257.9" rx="5.4" ry="5.4"/>
<ellipse transform="matrix(0.8011 -0.5985 0.5985 0.8011 -103.1031 176.6361)" class="st4" cx="214.3" cy="243.5" rx="1.9" ry="5.4"/>
<ellipse transform="matrix(0.8011 -0.5985 0.5985 0.8011 -124.7428 161.5716)" class="st4" cx="180.8" cy="268.5" rx="0.7" ry="2"/>
<rect x="191.5" y="245.6" transform="matrix(0.8011 -0.5985 0.5985 0.8011 -109.6441 172.0815)" class="st4" width="25.2" height="10.9"/>
<rect x="179.4" y="262.4" transform="matrix(0.8011 -0.5985 0.5985 0.8011 -121.2329 164.0142)" class="st4" width="13.6" height="4.1"/>
<ellipse transform="matrix(0.8011 -0.5985 0.5985 0.8011 -126.0044 160.692)" class="st4" cx="178.8" cy="270" rx="0.6" ry="1.4"/>
<rect x="177.8" y="265.7" transform="matrix(0.8011 -0.5985 0.5985 0.8011 -123.5732 162.3792)" class="st4" width="9.4" height="2.8"/>
<path class="st3" d="M788.5,535.5l3,18.4c0.1,0.3-0.1,0.6-0.4,0.7c-0.1,0-0.2,0-0.3,0l-2.2-0.7c-0.6-0.2-1-0.7-1.1-1.3l-2.7-16.3
	L788.5,535.5z"/>
<path class="st3" d="M788.5,535.5l-3-18.4c0-0.3-0.3-0.5-0.6-0.5c-0.1,0-0.2,0.1-0.3,0.1l-1.8,1.4c-0.5,0.4-0.7,1-0.6,1.6l2.7,16.3
	L788.5,535.5z"/>
<path class="st3" d="M790.8,554.5l-4.9,0.8c0,0-2.3,0.4-2.8-3.1s-4.4-30.8-4.4-30.8l5.5-2.9L790.8,554.5z"/>
<circle class="st3" cx="515.5" cy="45.7" r="5.4"/>
<ellipse class="st3" cx="540.7" cy="45.7" rx="1.9" ry="5.4"/>
<ellipse class="st3" cx="498.9" cy="45.7" rx="0.7" ry="2"/>
<rect x="515.5" y="40.3" class="st3" width="25.2" height="10.9"/>
<rect x="498.9" y="43.7" class="st3" width="13.6" height="4.1"/>
<ellipse class="st3" cx="496.4" cy="45.7" rx="0.6" ry="1.4"/>
<rect x="496.5" y="44.3" class="st3" width="9.4" height="2.8"/>
<path class="st4" d="M608.9,413l-7.5-3.9l-1.4-1.8c-0.6-0.3,0.1-2.9,1.6-5.8s3.2-5,3.8-4.7l2.3,0.1l7.5,3.9L608.9,413z"/>
<polygon class="st4" points="607.2,399.3 613.7,400.3 612.3,403.1 616,402.8 614.3,406.5 618.5,407.3 620.4,410.5 616.8,414.5 
	606.8,416.4 604,415.8 604.6,412 601.2,413.6 600.9,411.5 "/>
<path class="st3" d="M693.7,402.3l-1-0.1c-0.1-0.1-0.3-0.2-0.4-0.3c-0.5-0.1-1.1,0.7-1.2,1.7s0.2,1.9,0.8,2c0.2,0,0.3,0,0.5-0.2
	l1.5,0.2c3.3,0.4,6.5,1.6,9.2,3.4c0.6,0.3,1.2,0.6,1.8,0.6l0,0l7.7,0.9h0.1l-1.4-1.5h2.1l-1.2-1.1l1.4-0.6l-2.3-1.7l3-1.4l-1.7-1.5
	l1.3-0.8l-8-0.9c-0.6-0.1-1.2,0-1.8,0.2C700.7,402.3,697.2,402.7,693.7,402.3z"/>
<path class="st4" d="M416.6,247.9c0,0-0.6-5.9-1.3-6.5s-2.9-5.5-2.9-5.5l-8-1l-1.3,5.5l-1.9,7.3l-4.7-0.4l-3.5-0.5l0.7-6.1l-6.2-2.3
	l-2.8,2.9l-1.5,5.4l3,4.7l-0.3,7l0.3,5l6.9,1.9l-1.7,7.3l4.1,4.7l5.4,0.1l13.4-3.1l2.8-4.2l7.3-6.5l-0.8-6.8l-0.4-3l-4.7,0.3
	l-4.9-4.7L416.6,247.9z M395,251.4l-3.2,3.4l-2.6-2.5l-2.1-4.1l-1-2.4l1.5-3.3l1.5-0.7l1.8,1.7l-0.9,4.8L395,251.4z M406.4,246.3
	l-2,0.5l1-3.3V239l1.9-2.8l3.8,3.6l-1.5,2.4L406.4,246.3z"/>
<path class="st4" d="M616.1,563.5l1.6-24.5l9.5,0.4c1.4,0.1,2.8,0.3,4.1,0.8l1.1,0.4c1.3,0.5,2.3,1.6,2.6,2.9l1.1,4.5
	c0.4,1.6-0.2,3.3-1.4,4.3c-0.2,0.2-0.3,0.5-0.1,0.8c0,0,0,0,0,0c1.1,1.2,1.4,2.9,0.8,4.5l-1.7,4.3c-0.5,1.3-1.6,2.2-3,2.5l-1.2,0.3
	c-3.1,0.2-6.1,0.2-9.2,0c-0.4,0-0.8-0.1-1.2-0.2L616.1,563.5z"/>
<path class="st4" d="M621,540.1l-3.8-2.8c-1.8-1.3-4.1-1.6-6.1-0.8l-6.4,2.5c-0.4,0.1-0.8,0.1-1-0.2l-0.5-0.4l0.3-0.4l-1.8-1.4
	l-4.2,5.4l1.8,1.4l0.3-0.4l0.5,0.4c0.3,0.2,0.5,0.6,0.4,1l-1.2,5.2c-0.2,0.9,0,1.9,0.6,2.6l6.2,7.2L621,540.1z M604.1,549.5
	c0.6,0.7,5.6,5.1,4.1,6.5s-5.8-3.6-6.4-4.2c-0.6-0.7-0.6-1.7,0-2.3S603.5,548.8,604.1,549.5L604.1,549.5z"/>
<polygon class="st4" points="616.1,563.5 611.8,557.6 606,559.6 619.7,540.6 620.3,549.2 "/>
<path class="st4" d="M750.5,759.1l4.4,6.3L747,759l3.6,6.8l-5-4.6l2.7,5.2l-3.4-3.8l3.1,4.9l-4.5-4.3l3.2,4.3L743,764l3.8,4.8
	l-1.1-0.8l7.9,8.9c0.7,0.8,3.1-0.2,5.3-2.2s3.5-4.2,2.8-5l-8.1-9.1L750.5,759.1z"/>
<path class="st4" d="M747.9,741.5l-1.4-11.5c-0.1-0.3-0.4-0.4-0.7-0.4l-0.2-1.9c0-0.3-0.7-0.5-1.5-0.4s-1.4,0.4-1.3,0.8l0.2,1.9
	c-0.3,0.1-0.5,0.3-0.6,0.6l1.4,11.5c-1.9,1.1-3,3.2-2.8,5.4l1.6,13.2l0.4,1.3l-0.4-6.1l1.1,5l-0.2-5.4l1.2,6.1l0.3-5.8l0.6,5.1
	l0.8-5.8l1.5,6.7l0.9-7.7l2.8,9.8v-7.7l1.8,2.9l-1.6-12.9C751.6,743.9,750,742.1,747.9,741.5z"/>
<g class="st0">
	<path class="st1" d="M516,28.8l0.2,0.1l2.4,0.8l0.7,0.2l2.4,0.9l0.2,0.1l2.4,0.9l0.7,0.2l2.4,0.9l0.2,0.1l2.4,0.9l0.7,0.2l2.4,0.9
		l0.2,0.1l2.4,0.9l0.7,0.2l2.4,0.9l0.2,0.1l2.4,0.9l0.7,0.2l2.4,0.9l0.2,0.1l3.1,1.1l-1.5,2.2c0,0.1-0.1,0.2-0.2,0.2l0,0
		c-0.8,0.9-2,1.1-3.1,0.7c-1.3-0.4-2.1-1.6-1.9-2.9l0,0c0-0.1-0.1-0.3-0.2-0.3c-0.1,0-0.2,0-0.3,0.1l-0.1,0.1c0,0.1-0.1,0.2-0.2,0.2
		l0,0c-0.8,0.9-2,1.1-3.1,0.7c-1.3-0.4-2.1-1.6-1.9-2.9l0,0c0-0.1-0.1-0.3-0.2-0.3c-0.1,0-0.2,0-0.3,0.1l-0.1,0.1
		c0,0.1-0.1,0.2-0.2,0.2l0,0c-0.8,0.9-2,1.1-3.1,0.7c-1.3-0.4-2.1-1.6-1.9-2.9l0,0c0-0.1-0.1-0.3-0.2-0.3c-0.1,0-0.2,0-0.3,0.1
		l-0.1,0.1c0,0.1-0.1,0.2-0.2,0.2l0,0c-0.8,0.9-2,1.1-3.1,0.7c-1.3-0.3-2.1-1.5-2-2.9l0,0c0-0.1-0.1-0.3-0.2-0.3
		c-0.1,0-0.2,0-0.3,0.1l-0.1,0.1c0,0.1-0.1,0.2-0.2,0.2l0,0c-0.8,0.9-2,1.1-3.1,0.7c-1.3-0.4-2.1-1.6-1.9-2.9l0,0
		c0-0.1-0.1-0.3-0.2-0.3c-0.1,0-0.2,0-0.3,0.1l-0.1,0.1c0,0.1-0.1,0.2-0.2,0.2l0,0c-0.8,0.9-2,1.1-3.1,0.7c-1.3-0.4-2.1-1.6-1.9-2.9
		l0.2-2.5L516,28.8z"/>
	<polyline class="st1" points="547.8,40.4 544.1,32.6 517.8,25.6 512.8,27.7 	"/>
</g>
<path class="st4" d="M123.9,173.2l12.5-2.8c0.9-0.2,1.6-0.8,2-1.7l2.1-4.9c0.2-0.3,0.5-0.5,0.9-0.5h0.6v-3v-3h-0.6
	c-0.4,0-0.7-0.2-0.9-0.5l-3.5-5.8c-1.1-1.9-3.1-3-5.3-3.1l-14.1-0.2c-1.4,0-2.8,0.2-4.1,0.6l-1.1,0.4c-1.3,0.4-2.3,1.4-2.7,2.8
	l-1.3,4.4c-0.5,1.6,0,3.3,1.1,4.4l0,0c0.2,0.2,0.2,0.6,0,0.8c0,0,0,0,0,0l0,0c-1.2,1.2-1.6,2.9-1.1,4.4l1.4,4.4
	c0.4,1.3,1.5,2.3,2.8,2.7l1.1,0.3c3,0.4,6.1,0.5,9.1,0.5C123.1,173.4,123.5,173.3,123.9,173.2z M127.6,168.3
	c-0.3-2.1,6.2-2.6,7.1-2.8c0.9-0.1,1.7,0.6,1.8,1.5c0.1,0.9-0.5,1.6-1.3,1.8C134.3,169,127.9,170.4,127.6,168.3L127.6,168.3z"/>
<rect x="142" y="157" transform="matrix(1 -8.726535e-03 8.726535e-03 1 -1.3941 1.2552)" class="st4" width="2.3" height="6.8"/>
<path class="st4" d="M211.8,234.6l0.2,1c-0.1,0.1-0.1,0.3-0.1,0.5c0.1,0.5,1,0.8,2,0.6s1.7-0.8,1.6-1.4c0-0.2-0.2-0.3-0.3-0.4
	l-0.3-1.5c-0.6-3.3-0.5-6.6,0.3-9.8c0.1-0.6,0.1-1.3,0-1.9l0,0l-1.6-7.6l0-0.1l-1,1.8l-0.7-2l-0.7,1.5l-1-1.2l-0.9,2.8l-2.2-2.4
	l-0.9,2l-1.1-1l1.6,7.9c0.1,0.6,0.4,1.2,0.7,1.7C209.6,227.9,211,231.2,211.8,234.6z"/>
<path class="st3" d="M506.1,157.2l22.8,9.2l-3.3,8.9c-0.5,1.3-1.2,2.5-2,3.6l-0.7,0.9c-0.9,1.1-2.2,1.7-3.6,1.6l-4.6-0.4
	c-1.6-0.1-3.1-1.2-3.7-2.7c-0.1-0.3-0.4-0.4-0.7-0.3c0,0,0,0,0,0c-1.5,0.7-3.2,0.4-4.5-0.6l-3.5-2.9c-1.1-0.9-1.6-2.2-1.5-3.6
	l0.1-1.2c0.8-3,1.8-5.9,2.9-8.7c0.1-0.4,0.3-0.7,0.5-1L506.1,157.2z"/>
<path class="st3" d="M526.8,169.1l3.8-2.7c1.8-1.3,2.8-3.4,2.7-5.6l-0.4-6.9c0-0.4,0.1-0.8,0.5-1l0.5-0.3l0.3,0.4l1.9-1.3l-3.8-5.6
	l-1.9,1.3l0.3,0.4l-0.5,0.3c-0.3,0.2-0.7,0.2-1.1,0.1l-4.5-2.8c-0.8-0.5-1.8-0.6-2.7-0.2l-8.8,3.7L526.8,169.1z M523.2,150.2
	c-0.8,0.4-6.5,3.7-7.5,1.8c-0.9-1.9,5.2-4.4,6-4.8c0.8-0.4,1.8-0.1,2.2,0.8C524.4,148.8,524,149.8,523.2,150.2z"/>
<polygon class="st3" points="506.1,157.2 513.1,155 513,148.8 526.8,167.8 518.4,165.6 "/>
<path class="st4" d="M33.4,95.1l-17.2,6.8c-0.3,0.1-0.5,0.4-0.4,0.7c0,0.1,0.1,0.2,0.2,0.3l1.7,1.5c0.5,0.4,1.1,0.5,1.7,0.3l15.3-6
	L33.4,95.1z"/>
<path class="st4" d="M33.4,95.1l17.2-6.8c0.3-0.1,0.6,0,0.7,0.3c0,0.1,0,0.2,0,0.3l-0.3,2.3c-0.1,0.6-0.4,1.1-1,1.4l-15.3,6
	L33.4,95.1z"/>
<path class="st4" d="M16,102.8l1.8,4.6c0,0,0.8,2.1,4.1,0.8l28.6-12l-0.3-6.2L16,102.8z"/>
<path class="st3" d="M584.9,32.7l-2.2-0.4l1.8-2.8l-2.9-0.2l0.9-1.3l-1.6-0.3l1.7-1.1l-2-0.5l0.1-0.1l-5.7,2.7
	c-1.1,0.5-1.2,2.7-0.1,4.9s2.8,3.5,3.9,3l5.5-2.7L584.9,32.7z"/>
<path class="st3" d="M602.2,21l0.9-0.4c0.2,0.1,0.3,0.1,0.5,0c0.5-0.2,0.5-1.2,0.1-2.1s-1.2-1.5-1.7-1.2c-0.2,0.1-0.3,0.2-0.3,0.4
	l-1.3,0.6c-3,1.4-6.3,2.1-9.6,2.1c-0.6,0-1.3,0.1-1.8,0.4l0,0l-7,3.3l-0.1,0.1l2,0.5l-1.7,1.1l1.6,0.3l-0.9,1.3l2.9,0.2l-1.8,2.8
	l2.2,0.3l-0.7,1.3l7.2-3.5c0.6-0.3,1.1-0.7,1.5-1.1C596.3,24.8,599.1,22.6,602.2,21z"/>
<path class="st3" d="M417.1,34.5c-2.3,1.1-5.2,0.1-6.3-2.2c0,0,0,0,0,0c-1.1-2.4-0.1-5.2,2.2-6.3c2.3-1.1,5.2-0.1,6.3,2.2
	c0,0,0,0,0,0C420.4,30.5,419.5,33.4,417.1,34.5z"/>
<path class="st3" d="M401.1,39.7c-0.3-0.9-1.1-1.6-2-1.8c0.7-1.3,0.2-2.8-1-3.5c-1.3-0.7-2.8-0.2-3.5,1c-0.6,1-0.4,2.3,0.5,3.1
	c0.6,0.6,0.9,1.4,1,2.2c0.3,1.4,1.7,2.3,3.1,2C400.5,42.5,401.4,41.1,401.1,39.7z"/>
<polygon class="st3" points="399.7,42.9 395.6,34.3 413,26 417.1,34.5 "/>
<polygon class="st3" points="418.2,30.7 416.6,27.5 420.5,25.6 422,28.9 "/>
<polygon class="st3" points="421.3,29.9 419.2,25.6 421.7,24.4 423.7,28.7 "/>
<path class="st4" d="M54.5,3.8l-1-0.2c-0.1,0.1-0.3,0.1-0.5,0.1c-0.5-0.1-0.8-1.1-0.5-2.1S53.4-0.1,54,0c0.2,0.1,0.3,0.2,0.4,0.3
	l1.5,0.4c3.2,0.8,6.6,0.8,9.8,0.1c0.6-0.1,1.3-0.1,1.9,0.1l0,0l7.5,1.9l0.1,0.1l-1.8,0.9l1.9,0.8l-1.6,0.6l1.1,1.1L72.1,7l2.3,2.4
	l-2.1,0.8l0.9,1.2l-7.8-2c-0.6-0.2-1.2-0.4-1.7-0.8C61.1,6.3,57.9,4.7,54.5,3.8z"/>
<g class="st0">
	<path class="st1" d="M286.5,392.8c13-9.7,15.2-26.2,5.1-39.7s-28.8-19.1-41.8-9.4s-12.7,26.7-7.6,38.2
		C249.1,397.4,273.5,402.5,286.5,392.8z M283,388.1c-10.5,7.8-25.5,5.3-33.7-5.6s-6.3-26.1,4.1-33.9s25.5-5.3,33.7,5.6
		S293.4,380.2,283,388.1z"/>
	<rect x="243" y="368.1" transform="matrix(0.8 -0.6 0.6 0.8 -167.335 235.015)" class="st1" width="51.8" height="0.8"/>
	
		<rect x="273.5" y="341" transform="matrix(0.8009 -0.5987 0.5987 0.8009 -165.1387 237.0207)" class="st1" width="0.8" height="51.8"/>
	
		<rect x="243" y="365.6" transform="matrix(0.143 -0.9897 0.9897 0.143 -131.7742 579.8205)" class="st1" width="51.8" height="0.8"/>
	
		<rect x="267.7" y="342.4" transform="matrix(0.143 -0.9897 0.9897 0.143 -134.7321 581.0388)" class="st1" width="0.8" height="51.8"/>
	
		<rect x="252.4" y="372.2" transform="matrix(0.5141 -0.8577 0.8577 0.5141 -184.388 419.7039)" class="st1" width="51.8" height="0.8"/>
	
		<rect x="267.7" y="342.4" transform="matrix(0.5141 -0.8577 0.8577 0.5141 -185.576 408.8755)" class="st1" width="0.8" height="51.8"/>
	<rect x="267.7" y="342.4" transform="matrix(0.97 -0.2429 0.2429 0.97 -81.4259 76.1735)" class="st1" width="0.8" height="51.8"/>
	<rect x="242.2" y="367.9" transform="matrix(0.97 -0.2429 0.2429 0.97 -81.4325 76.161)" class="st1" width="51.8" height="0.8"/>
	
		<rect x="242.2" y="367.9" transform="matrix(0.6689 -0.7434 0.7434 0.6689 -184.9878 321.2309)" class="st1" width="51.8" height="0.8"/>
	
		<rect x="267.7" y="342.4" transform="matrix(0.6689 -0.7434 0.7434 0.6689 -185.0176 321.2689)" class="st1" width="0.8" height="51.8"/>
	
		<rect x="264.3" y="343.3" transform="matrix(0.9986 -5.268454e-02 5.268454e-02 0.9986 -19.0809 14.4591)" class="st1" width="0.8" height="51.8"/>
	
		<rect x="242.3" y="367.9" transform="matrix(0.9986 -5.268448e-02 5.268448e-02 0.9986 -19.032 14.6385)" class="st1" width="51.8" height="0.8"/>
	
		<rect x="242.3" y="367.9" transform="matrix(0.3371 -0.9415 0.9415 0.3371 -168.9348 496.5872)" class="st1" width="51.8" height="0.8"/>
	
		<rect x="265.9" y="335.2" transform="matrix(0.3371 -0.9415 0.9415 0.3371 -163.3705 490.045)" class="st1" width="0.8" height="51.8"/>
	
		<rect x="263.3" y="345.7" transform="matrix(0.9041 -0.4274 0.4274 0.9041 -133.4969 148.3325)" class="st1" width="0.8" height="51.8"/>
	
		<rect x="239.5" y="364.2" transform="matrix(0.9041 -0.4274 0.4274 0.9041 -130.3611 148.3669)" class="st1" width="51.8" height="0.8"/>
	<path class="st1" d="M273.8,375.9c4.2-3.1,5.1-9.1,1.9-13.3s-9.1-5.1-13.3-1.9s-5.1,9.1-1.9,13.3c0,0,0,0,0,0
		C263.6,378.2,269.6,379,273.8,375.9z M272.1,373.7c-3,2.2-7.2,1.6-9.4-1.4c-2.2-3-1.6-7.2,1.4-9.4c3-2.2,7.2-1.6,9.4,1.4
		c0,0,0,0,0,0C275.7,367.3,275.1,371.5,272.1,373.7z"/>
</g>
<path class="st3" d="M392.7,776.5c11.7,8,27.7,5,35.7-6.7c8-11.7,5-27.7-6.7-35.7c-11.7-8-27.7-5-35.7,6.7
	C378,752.5,381,768.5,392.7,776.5C392.7,776.5,392.7,776.5,392.7,776.5z M418.9,738.2c9.4,6.5,11.9,19.3,5.4,28.8
	c-6.5,9.4-19.3,11.9-28.8,5.4c-9.4-6.5-11.9-19.3-5.4-28.8c0,0,0,0,0,0C396.6,734.2,409.4,731.7,418.9,738.2z"/>
<rect x="385.5" y="754.9" transform="matrix(0.5647 -0.8253 0.8253 0.5647 -446.0944 664.8142)" class="st3" width="43.4" height="0.7"/>
<rect x="408.6" y="727.7" transform="matrix(0.5593 -0.829 0.829 0.5593 -441.0143 669.2609)" class="st3" width="0.7" height="43.4"/>
<rect x="385.5" y="754.9" transform="matrix(0.9829 -0.1843 0.1843 0.9829 -132.215 87.9747)" class="st3" width="43.4" height="0.7"/>
<rect x="406.9" y="733.6" transform="matrix(0.9829 -0.1843 0.1843 0.9829 -132.2159 87.9825)" class="st3" width="0.7" height="43.4"/>
<rect x="385.5" y="754.9" transform="matrix(0.8353 -0.5498 0.5498 0.8353 -348.1604 348.204)" class="st3" width="43.4" height="0.7"/>
<rect x="406.9" y="733.6" transform="matrix(0.8353 -0.5498 0.5498 0.8353 -348.1464 348.2321)" class="st3" width="0.7" height="43.4"/>
<rect x="406.8" y="733.6" transform="matrix(0.2019 -0.9794 0.9794 0.2019 -414.7365 1001.5269)" class="st3" width="0.7" height="43.4"/>
<rect x="385.5" y="754.9" transform="matrix(0.2019 -0.9794 0.9794 0.2019 -414.7264 1001.5933)" class="st3" width="43.4" height="0.7"/>
<rect x="385.5" y="754.9" transform="matrix(0.7147 -0.6994 0.6994 0.7147 -412.095 500.236)" class="st3" width="43.4" height="0.7"/>
<rect x="406.9" y="733.6" transform="matrix(0.7147 -0.6994 0.6994 0.7147 -412.0689 500.2597)" class="st3" width="0.7" height="43.4"/>
<rect x="406.8" y="733.6" transform="matrix(1.082088e-02 -0.9999 0.9999 1.082088e-02 -352.4498 1154.2291)" class="st3" width="0.7" height="43.4"/>
<rect x="386.2" y="754.6" transform="matrix(9.999500e-03 -0.9999 0.9999 9.999500e-03 -351.0941 1155.2919)" class="st3" width="43.4" height="0.7"/>
<rect x="385.5" y="754.9" transform="matrix(0.9265 -0.3764 0.3764 0.9265 -254.3294 208.787)" class="st3" width="43.4" height="0.7"/>
<rect x="406.9" y="733.6" transform="matrix(0.9265 -0.3764 0.3764 0.9265 -254.3223 208.8063)" class="st3" width="0.7" height="43.4"/>
<rect x="406.3" y="735" transform="matrix(0.3903 -0.9207 0.9207 0.3903 -448.708 835.6904)" class="st3" width="0.7" height="43.3"/>
<rect x="385.5" y="754.9" transform="matrix(0.389 -0.9213 0.9213 0.389 -446.9775 836.6519)" class="st3" width="43.4" height="0.7"/>
<path class="st3" d="M402.7,761.9c3.6,2.5,8.6,1.6,11.1-2s1.6-8.6-2-11.1c-3.6-2.5-8.6-1.6-11.1,2c0,0,0,0,0,0
	C398.1,754.4,399.1,759.4,402.7,761.9z M410.4,750.6c2.6,1.8,3.2,5.3,1.5,7.8c-1.8,2.6-5.3,3.2-7.8,1.5c-2.6-1.8-3.2-5.3-1.5-7.8
	C404.3,749.5,407.8,748.9,410.4,750.6C410.4,750.6,410.4,750.6,410.4,750.6L410.4,750.6z"/>
</svg>
