<?xml version="1.0" encoding="utf-8"?>
<!-- Generator: Adobe Illustrator 19.2.1, SVG Export Plug-In . SVG Version: 6.00 Build 0)  -->
<svg version="1.1" id="Layer_1" xmlns="http://www.w3.org/2000/svg" xmlns:xlink="http://www.w3.org/1999/xlink" x="0px" y="0px"
	 viewBox="0 0 782 793.8" style="enable-background:new 0 0 782 793.8;" xml:space="preserve">
<style type="text/css">
	.st0{opacity:0.5;}
	.st1{fill:#FFFFFF;}
	.st2{opacity:0.5;fill:#FFFFFF;enable-background:new    ;}
	.st3{fill:#F79520;}
	.st4{fill:#F15A2B;}
</style>
<title>cluster4</title>
<g class="st0">
	<path class="st1" d="M549,407.5l7.6,1.4l-10.1,1l7.4,2.2l-6.8,0.3l5.6,1.8l-5.1-0.3l5.6,1.3l-6.3,0.1l5.3,0.8l-5.1,0.2l6.1,0.7
		l-1.4,0.2l11.9,0.7c1,0.1,2-2.3,2.2-5.3s-0.5-5.5-1.5-5.5l-12.2-0.7L549,407.5z"/>
	<path class="st1" d="M534.6,397l-9.1-7.1c-0.3-0.1-0.6,0-0.8,0.2l-1.5-1.2c-0.2-0.2-0.8,0.1-1.3,0.8s-0.7,1.3-0.4,1.5l1.5,1.2
		c-0.2,0.2-0.2,0.6,0,0.8l9.1,7.1c-0.6,2.1,0.1,4.4,1.9,5.8l10.5,8.2l1.2,0.6l-4.6-4l4.3,2.7l-3.9-3.7l5.2,3.5l-3.9-4.3l4,3.2
		l-3.5-4.7l5.8,3.6l-4.8-6l8.9,4.9l-5.5-5.4l3.3,0.8l-10.3-8C538.9,396.1,536.6,395.9,534.6,397z"/>
</g>
<path class="st2" d="M194.8,83.5l22.9-8.9l-3.2-8.9c-0.5-1.3-1.2-2.5-2-3.7l-0.7-0.9c-0.8-1.1-2.2-1.7-3.6-1.6l-4.6,0.3
	c-1.6,0.1-3.1,1.1-3.7,2.7c-0.1,0.3-0.4,0.4-0.7,0.3c0,0,0,0,0,0c-1.5-0.7-3.2-0.5-4.5,0.6l-3.6,2.9c-1.1,0.9-1.7,2.2-1.5,3.6
	l0.1,1.2c0.7,3,1.7,5.9,2.8,8.7c0.1,0.4,0.3,0.7,0.5,1L194.8,83.5z"/>
<g class="st0">
	<path class="st1" d="M320.4,778.7v-0.2l0.1-2.6v-0.7l0.1-2.6v-0.2l0.1-2.6v-0.7l0.1-2.6v-0.2l0.1-2.6v-0.7l0.1-2.6v-0.2l0.1-2.6
		V757l0.2-2.5v-0.2l0.1-2.6v-0.7l0.1-2.6v-0.2l0.1-3.3l2.6,0.7l0.3,0.1l0,0c1.1,0.5,1.7,1.6,1.6,2.8c0.1,1.3-0.9,2.5-2.1,2.7l0,0
		c-0.1,0-0.2,0.2-0.2,0.3c0,0.1,0.1,0.2,0.2,0.2h0.1l0.3,0.1l0,0c1.1,0.5,1.7,1.6,1.6,2.8c0.1,1.3-0.9,2.5-2.1,2.7l0,0
		c-0.1,0-0.2,0.2-0.2,0.3c0,0.1,0.1,0.2,0.2,0.2h0.1l0.3,0.1l0,0c1.1,0.5,1.7,1.6,1.6,2.8c0.1,1.3-0.9,2.5-2.1,2.7l0,0
		c-0.1,0-0.2,0.2-0.2,0.3c0,0.1,0.1,0.2,0.2,0.2h0.1l0.3,0.1l0,0c1.1,0.5,1.7,1.6,1.6,2.8c0.1,1.3-0.9,2.5-2.1,2.7l0,0
		c-0.1,0-0.2,0.2-0.2,0.3c0,0.1,0.1,0.2,0.2,0.2h0.1l0.3,0.1l0,0c1.1,0.5,1.7,1.6,1.6,2.8c0.1,1.3-0.9,2.5-2.1,2.7l0,0
		c-0.1,0-0.2,0.2-0.2,0.3c0,0.1,0.1,0.2,0.2,0.2h0.1l0.3,0.1l0,0c1.1,0.5,1.7,1.6,1.6,2.8c0.1,1.3-0.9,2.5-2.1,2.7l-2.5,0.5
		L320.4,778.7z"/>
	<polyline class="st1" points="321.5,744.9 315.3,750.8 316.8,778 320.3,782 	"/>
</g>
<g class="st0">
	<circle class="st1" cx="113.2" cy="726" r="5.4"/>
	<ellipse class="st1" cx="138.4" cy="726" rx="1.9" ry="5.4"/>
	<ellipse class="st1" cx="96.6" cy="726" rx="0.7" ry="2"/>
	<rect x="113.2" y="720.6" class="st1" width="25.2" height="10.9"/>
	<rect x="96.6" y="724" class="st1" width="13.6" height="4.1"/>
	<ellipse class="st1" cx="94.2" cy="726" rx="0.6" ry="1.4"/>
	<rect x="94.2" y="724.6" class="st1" width="9.4" height="2.8"/>
</g>
<g class="st0">
	<path class="st1" d="M547.7,484.7c-2.8,1.3-5.4,2.8-8,4.5l-0.9,0.8c-1,0.9-1.5,2.3-1.3,3.7l0.7,4.5c0.2,1.6,1.4,3,2.9,3.5l0,0
		c0.3,0.1,0.4,0.4,0.3,0.7c0,0,0,0,0,0l0,0c-0.6,1.5-0.2,3.3,0.9,4.5l3.1,3.3c0.9,1,2.3,1.5,3.7,1.2l1.2-0.2c1.4-0.2,2.7-0.7,4-1.3
		l12.6-6.4c2-1,3.3-2.9,3.5-5.1l0.6-6.9c0-0.4,0.3-0.7,0.6-0.9l0.5-0.2l-1.3-2.7l-1.3-2.7l-0.5,0.2c-0.3,0.2-0.7,0.1-1.1-0.1
		l-4.1-3.5c-0.7-0.6-1.7-0.8-2.6-0.6l-12.5,3.1C548.4,484.4,548.1,484.6,547.7,484.7z M561,483.3c0.9-0.3,1.8,0.1,2.1,1
		c0.3,0.9-0.1,1.8-1,2.1c-0.1,0-0.1,0-0.2,0.1c-0.9,0.3-7,2.7-7.7,0.7S560.1,483.5,561,483.3L561,483.3z"/>
	
		<rect x="570.8" y="483.9" transform="matrix(0.9008 -0.4343 0.4343 0.9008 -154.8782 296.7368)" class="st1" width="2.3" height="6.8"/>
</g>
<path class="st2" d="M319.8,606.9c-0.3,3,5.3,4.7,4,5c-0.2,0-0.3,0.1-0.5,0.2c-1.1,0.6-1.9,2.4-2.5,5c-0.7,3,3.2,5.1,2.7,6
	s-0.1,4.3,2.2,6.7s7.1-1.1,9.9-0.3s5.4,0.5,6.5-0.2s-1-5-1-5s3.9-3.2,5.1-5.8c0.6-1.1,0.3-2.4-0.8-3c-0.2-0.1-0.5-0.2-0.8-0.3
	c1.5-1.6,2.7-3.5,3.5-5.6c1.4-3.4-3.3-6.9-6.2-6.9c-7,0.1-4.8,6-8.6,1.1S320.1,603.9,319.8,606.9z M341.1,629
	c-0.6,1-4.4-0.4-5.8-0.8s-1.1-4.2-1.1-4.2c1.1-1.2,1.2-0.6,3.7,0.8S341.7,628,341.1,629L341.1,629z M342.7,619.8
	c-0.2,0.4-2.2,3.2-3.6,3s-3.1-0.8-4-0.9s-0.9-2.4-0.4-3.9c1.5-4.4,6.2-2.5,8.7-1.8S342.9,619.4,342.7,619.8L342.7,619.8z M341,606
	c0,0,3.3-1.8,3.8-0.1s2.5,4.7,1.3,5.3s-1.9,3.6-4.5,3s-6.8-0.4-6.2-2.7S337.2,606.1,341,606L341,606z M331.6,628.2
	c-0.3,0.7-2.6,2.5-4.4,0.9s-4.8-4.9-2.5-5.5s4.8-0.7,5.9,0.7C331.5,625.4,331.9,626.8,331.6,628.2L331.6,628.2z M330.3,622.2
	c-2,0.3-5.1-0.7-5.7-1.3s-2.7-1.6-2.3-3.5s1.4-3.9,3.2-3.5c2.2,0.4,5.3,0.8,5.6,1.8s1,1.9,0.8,3.1S332.3,621.9,330.3,622.2
	L330.3,622.2z M323.8,604.9l4.5-0.5c1.8,0.2,4.3,3.1,4,4.5s3.1,4.9-0.9,4.1s-7.9-2.8-8.6-3.6S322.3,605,323.8,604.9L323.8,604.9z"/>
<g class="st0">
	
		<ellipse transform="matrix(0.4319 -0.9019 0.9019 0.4319 -106.8797 822.4266)" class="st1" cx="599.4" cy="496.1" rx="4.8" ry="6.9"/>
	<path class="st1" d="M622.4,504.4c0.9,1.2,0.8,2.9-0.4,3.9c-0.5,0.4-1.1,0.6-1.7,0.6c-0.3,1.2,0.5,2.6,2,3.5c2,1.2,4.3,0.9,4.9-0.5
		c0.1-0.3,0.2-0.6,0.2-0.9c0-0.9,0.4-1.7,1.1-2.2c0.3-0.2,0.5-0.4,0.6-0.7c0.7-1.4-0.5-3.3-2.7-4.2
		C624.8,503.1,623.1,503.4,622.4,504.4z"/>
	
		<rect x="607.3" y="488.1" transform="matrix(0.4319 -0.9019 0.9019 0.4319 -105.1711 837.2586)" class="st1" width="9.5" height="28"/>
	
		<rect x="591.4" y="490" transform="matrix(0.4319 -0.9019 0.9019 0.4319 -107.7237 815.1508)" class="st1" width="3.6" height="6.2"/>
	
		<rect x="587.7" y="489.6" transform="matrix(0.4319 -0.9019 0.9019 0.4319 -108.1569 811.4496)" class="st1" width="4.8" height="3.9"/>
</g>
<g class="st0">
	
		<ellipse transform="matrix(0.1302 -0.9915 0.9915 0.1302 -334.6978 475.1944)" class="st1" cx="103.5" cy="428.4" rx="5.5" ry="2.7"/>
	
		<ellipse transform="matrix(0.1302 -0.9915 0.9915 0.1302 -346.4491 457.6046)" class="st1" cx="87.6" cy="426.3" rx="7.3" ry="3.6"/>
	<polygon class="st1" points="87.6,426.2 88.5,419 104.2,422.9 103.5,428.3 	"/>
	<polygon class="st1" points="87.6,426.2 86.6,433.5 102.8,433.8 103.5,428.3 	"/>
</g>
<g class="st0">
	<path class="st1" d="M317.2,738.9c-1.9-0.3-3.9,2.4-4.3,4.8c-0.4,1.5,0.3,3,1.6,3.6l-1.1,6.8l2.4,0.4l1.1-6.8
		c1.5-0.2,2.6-1.4,2.7-2.9C320.1,742.4,319,739.2,317.2,738.9z"/>
	
		<rect x="309.2" y="755.6" transform="matrix(0.7291 -0.6844 0.6844 0.7291 -432.942 419.8437)" class="st1" width="9.3" height="2.5"/>
</g>
<path class="st3" d="M608.8,535.2l8.8,16.3c0.1,0.3,0.5,0.4,0.8,0.2c0.1-0.1,0.2-0.1,0.2-0.2l1.3-1.9c0.3-0.5,0.4-1.2,0.1-1.7
	l-7.8-14.5L608.8,535.2z"/>
<path class="st3" d="M608.8,535.2L600,519c-0.1-0.3-0.1-0.6,0.2-0.8c0.1,0,0.2-0.1,0.3-0.1h2.3c0.6,0,1.2,0.3,1.5,0.9l7.8,14.5
	L608.8,535.2z"/>
<path class="st3" d="M618.5,551.5l4.4-2.3c0,0,2-1.1,0.3-4.1S608,518.2,608,518.2l-6.1,1L618.5,551.5z"/>
<path class="st3" d="M670,774.7l-1.1,18.6c0,0.3-0.3,0.5-0.6,0.5c-0.1,0-0.2,0-0.3-0.1l-2-1.2c-0.5-0.3-0.8-0.9-0.8-1.5l1-16.5
	L670,774.7z"/>
<path class="st3" d="M670,774.7l1.1-18.6c0-0.3-0.2-0.6-0.5-0.6c-0.1,0-0.2,0-0.3,0.1l-2.1,1c-0.6,0.2-1,0.8-1,1.4l-0.9,16.6
	L670,774.7z"/>
<path class="st3" d="M663.5,758.8l0.1,0.2l1.1,2.3l0.3,0.7l1.1,2.3l0.1,0.2l1.1,2.3l0.3,0.7l1.1,2.3l0.1,0.2l1.1,2.3l0.3,0.7
	l1.1,2.3l0.1,0.2l1.1,2.3l0.3,0.7l1.1,2.3l0.1,0.2l1.1,2.3l0.3,0.7l1.1,2.3l0.1,0.2l1.4,3l2.1-1.7l0.2-0.2l0,0
	c0.8-0.9,0.9-2.1,0.4-3.2c-0.5-1.2-1.8-1.9-3-1.6l0,0c-0.1,0-0.3-0.1-0.3-0.2c0-0.1,0-0.2,0.1-0.3l0.1-0.1l0.2-0.2l0,0
	c0.8-0.9,0.9-2.1,0.4-3.2c-0.5-1.2-1.8-1.9-3-1.6l0,0c-0.1,0-0.3-0.1-0.3-0.2c0-0.1,0-0.2,0.1-0.3l0.1-0.1l0.2-0.2l0,0
	c0.8-0.9,0.9-2.1,0.4-3.2c-0.5-1.2-1.8-1.9-3-1.6l0,0c-0.1,0-0.3-0.1-0.3-0.2c0-0.1,0-0.2,0.1-0.3l0.1-0.1l0.2-0.2l0,0
	c0.8-0.9,0.9-2.1,0.4-3.2c-0.5-1.2-1.8-1.9-3-1.6l0,0c-0.1,0-0.3-0.1-0.3-0.2c0-0.1,0-0.2,0.1-0.3l0.1-0.1l0.2-0.2l0,0
	c0.8-0.9,0.9-2.1,0.4-3.2c-0.5-1.2-1.8-1.9-3-1.6l0,0c-0.1,0-0.3-0.1-0.3-0.2c0-0.1,0-0.2,0.1-0.3l0.1-0.1l0.2-0.2l0,0
	c0.8-0.9,0.9-2.1,0.4-3.2c-0.5-1.2-1.8-1.9-3-1.6l-2.5,0.5L663.5,758.8z"/>
<polyline class="st3" points="677.9,789.5 669.9,786.5 660.5,760.9 662.1,755.8 "/>
<path class="st3" d="M668.1,793.8l-5-0.2c0,0-2.3-0.1-2-3.6s2.4-31,2.4-31l6-1.7L668.1,793.8z"/>
<path class="st4" d="M733.5,762.2l-7.5-3.8l-1.4-1.8c-0.6-0.3,0.1-2.9,1.6-5.8s3.2-5,3.8-4.7l2.3,0.1l7.5,3.8L733.5,762.2z"/>
<polygon class="st4" points="731.8,748.5 738.3,749.5 736.9,752.3 740.6,752 738.9,755.7 743.1,756.5 745,759.7 741.4,763.7 
	731.3,765.6 728.6,765 729.2,761.2 725.8,762.8 725.5,760.6 "/>
<path class="st4" d="M256.1,612.1l6.7,0.8l2.8,3.8l2.5-1.6l5.7-3.7l0.3-9.8l1.5-4.8l-6.1-12.4l-3.5-4.1l-6.2-0.2l-4.6,6l-5.9-4.2
	l-4,3l-5.2,4.7l-5.5,0.7l-3.2,4.5l-0.5,4l5.7,3.3l4.3-4.4l2.6,2.4l3.2,3.4l-4.4,6.1l-3.4,4.5l5.8,5.5c0,0,5.2-1.4,6-1.3
	s5.8-3.1,5.8-3.1L256.1,612.1z M239.9,594.5l-3.2,3.8l-2.5-0.3l-0.4-1.6l1.6-3.2l2.5-0.7l4.5-1l3.6,0.4l-0.6,4.7L239.9,594.5z
	 M247.6,613.5l-0.9,2.7l-5.1-0.6l0.9-3.2l3.5-2.9l1.9-2.9l0.9,1.9L247.6,613.5z"/>
<path class="st4" d="M243.3,345l1.6-24.5l9.5,0.4c1.4,0.1,2.8,0.3,4.1,0.8l1.1,0.4c1.3,0.5,2.3,1.6,2.6,2.9l1.1,4.5
	c0.4,1.6-0.2,3.3-1.4,4.3c-0.2,0.2-0.3,0.5-0.1,0.8c0,0,0,0,0,0c1.1,1.2,1.4,2.9,0.8,4.5l-1.6,4.3c-0.5,1.3-1.6,2.2-3,2.5l-1.2,0.3
	c-3.1,0.2-6.1,0.2-9.2,0c-0.4,0-0.8-0.1-1.2-0.2L243.3,345z"/>
<path class="st4" d="M248.2,321.5l-3.8-2.8c-1.8-1.3-4.1-1.6-6.1-0.8l-6.4,2.6c-0.4,0.1-0.8,0.1-1-0.1l-0.5-0.4l0.3-0.4l-1.8-1.4
	l-4.2,5.4l1.8,1.4l0.3-0.4l0.5,0.4c0.3,0.2,0.5,0.6,0.4,1l-1.2,5.2c-0.2,0.9,0,1.9,0.6,2.6l6.2,7.2L248.2,321.5z M231.3,330.9
	c0.6,0.6,5.6,5.1,4.1,6.5s-5.8-3.6-6.4-4.2c-0.5-0.8-0.3-1.8,0.4-2.3C230,330.5,230.8,330.5,231.3,330.9L231.3,330.9z"/>
<polygon class="st4" points="243.3,345 239,339 233.2,341.1 246.9,322.1 247.5,330.6 "/>
<path class="st4" d="M634.5,154.5l18.7-13.9c0.3-0.2,0.8-0.2,1,0.2c0.1,0.1,0.1,0.2,0.1,0.3l0.4,2.8c0.1,0.8-0.2,1.5-0.8,2
	l-16.6,12.4L634.5,154.5z"/>
<path class="st4" d="M634.5,154.5l-18.7,13.9c-0.3,0.2-0.4,0.7-0.1,1c0.1,0.1,0.2,0.2,0.2,0.2l2.6,1.2c0.7,0.3,1.5,0.2,2.1-0.2
	l16.6-12.4L634.5,154.5z"/>
<path class="st4" d="M619.4,166.1l0.2-0.1l2.6-1.9l0.7-0.6l2.6-1.9l0.2-0.1l2.5-1.9l0.7-0.6l2.6-1.9l0.2-0.1l2.6-1.9l0.7-0.5
	l2.6-1.9l0.2-0.1l2.6-1.9l0.7-0.6l2.6-1.9l0.2-0.1l2.6-1.9l0.7-0.5l2.6-1.9l0.2-0.1l3.3-2.5l-2.6-2.1c-0.1-0.1-0.2-0.1-0.3-0.2l0,0
	c-1.3-0.8-2.9-0.6-4,0.3c-1.4,0.9-1.9,2.6-1.2,4.1l0,0c0.1,0.2,0,0.3-0.2,0.4c-0.1,0-0.2,0-0.3,0l-0.1-0.1c-0.1-0.1-0.2-0.1-0.3-0.2
	l0,0c-1.3-0.8-2.9-0.6-4,0.3c-1.3,0.9-1.8,2.6-1.1,4.1l0,0c0.1,0.2,0,0.3-0.2,0.4c-0.1,0-0.2,0-0.3,0l-0.1-0.1
	c-0.1-0.1-0.2-0.1-0.3-0.2l0,0c-1.3-0.8-2.9-0.6-4,0.3c-1.4,0.9-1.9,2.6-1.2,4.1l0,0c0.1,0.2,0,0.3-0.2,0.4c-0.1,0-0.2,0-0.3,0
	l-0.1-0.1c-0.1-0.1-0.2-0.1-0.3-0.2l0,0c-1.3-0.8-2.9-0.6-4,0.3c-1.4,0.9-1.9,2.6-1.2,4.1l0,0c0.1,0.2,0,0.3-0.2,0.4
	c-0.1,0-0.2,0-0.3,0l-0.1-0.1c-0.1-0.1-0.2-0.1-0.3-0.2l0,0c-1.3-0.8-2.9-0.6-4,0.3c-1.4,0.9-1.9,2.6-1.2,4.1l0,0
	c0.1,0.2,0,0.3-0.2,0.4c-0.1,0-0.2,0-0.3,0l-0.1-0.1c-0.1-0.1-0.2-0.1-0.3-0.2l0,0c-1.3-0.8-2.9-0.6-4,0.3c-1.4,0.9-1.9,2.6-1.2,4.1
	l1.3,3L619.4,166.1z"/>
<path class="st4" d="M56.1,315.8l-5.7-7.6c-0.6-0.8-1.5-1.2-2.4-1.2l-5.3,0.1c-0.4,0-0.7-0.3-0.9-0.6l-0.2-0.5l0.4-0.2l-1-2.1
	l-6.2,2.9l1,2.1l0.4-0.2l0.2,0.5c0.2,0.3,0.1,0.7-0.1,1.1l-3.9,5.7c-1.2,1.8-1.4,4.1-0.6,6.1l1.9,4.3L56.1,315.8z M47.1,309.4
	c0.8-0.5,1.8-0.3,2.3,0.5c0.5,0.8,4.5,6.1,2.7,7.2s-5-4.6-5.5-5.4C46.1,311,46.3,309.9,47.1,309.4L47.1,309.4z"/>
<g class="st0">
	<path class="st1" d="M378.1,379.5l7.6,1.4l-10.1,1l7.4,2.2l-6.8,0.3l5.6,1.8l-5.1-0.3l5.6,1.3l-6.3,0.1l5.3,0.8l-5.1,0.2l6.1,0.7
		l-1.4,0.2l11.9,0.7c1,0.1,2-2.3,2.2-5.3s-0.5-5.5-1.5-5.5l-12.2-0.7L378.1,379.5z"/>
	<path class="st1" d="M363.8,368.9l-9.1-7.1c-0.3-0.1-0.6,0-0.8,0.2l-1.5-1.2c-0.2-0.2-0.9,0.1-1.3,0.8s-0.7,1.3-0.4,1.5l1.5,1.2
		c-0.2,0.2-0.2,0.6,0,0.8l9.1,7.1c-0.6,2.1,0.1,4.4,1.9,5.8l10.5,8.2l1.2,0.6l-4.6-4l4.3,2.7l-3.9-3.7l5.2,3.5l-3.9-4.3l4,3.2
		l-3.5-4.6l5.8,3.6l-4.8-6l8.9,4.9l-5.5-5.5l3.3,0.8l-10.3-8C368.1,368,365.7,367.8,363.8,368.9z"/>
</g>
<g class="st0">
	<path class="st1" d="M117.4,623.4l6,5.9l2.2,0.8c0.5,0.5,2.8-1,5.1-3.3s3.7-4.6,3.2-5.1l-0.8-2.2l-6-5.9L117.4,623.4z"/>
	<polygon class="st1" points="130.9,620.8 127.9,614.9 125.7,617.1 124.8,613.5 121.8,616.2 119.8,612.5 116.2,611.7 113.4,616.4 
		114.8,626.5 116.2,629 119.7,627.2 119.2,630.9 121.3,630.5 	"/>
</g>
<path class="st2" d="M688.7,558.3l-1,0.1c-0.1,0.1-0.3,0.2-0.4,0.3c-0.5,0.1-1.1-0.7-1.2-1.7s0.2-1.9,0.8-2c0.2,0,0.3,0,0.5,0.2
	l1.5-0.2c3.3-0.4,6.5-1.6,9.2-3.4c0.6-0.3,1.2-0.6,1.8-0.6l0,0l7.7-0.9h0.1l-1.4,1.5h2.1l-1.2,1.1l1.4,0.6l-2.3,1.7l3,1.4l-1.7,1.5
	l1.3,0.8l-8,0.9c-0.6,0.1-1.2,0-1.8-0.2C695.7,558.4,692.2,558,688.7,558.3z"/>
<g class="st0">
	<path class="st1" d="M720.4,499.9l-2.2,0.4l1.8,2.8l-2.9,0.2l0.9,1.3l-1.7,0.3l1.8,1.1l-2,0.5l0.1,0.1l-5.8-2.8
		c-1.1-0.5-1.2-2.7-0.1-4.9s2.8-3.5,3.9-3l5.5,2.7L720.4,499.9z"/>
	<path class="st1" d="M737.8,511.5l0.9,0.4c0.2-0.1,0.3-0.1,0.5,0c0.5,0.2,0.5,1.2,0.1,2.1s-1.2,1.5-1.7,1.2
		c-0.2-0.1-0.3-0.2-0.3-0.4l-1.3-0.6c-3-1.4-6.3-2.1-9.6-2c-0.7,0-1.3-0.2-1.9-0.4l0,0l-7-3.3l-0.1-0.1l2-0.5l-1.8-1.1l1.7-0.3
		l-0.9-1.3l2.9-0.2l-1.8-2.8l2.2-0.4l-0.7-1.3l7.2,3.5c0.6,0.3,1.1,0.7,1.5,1.1C731.9,507.8,734.7,510,737.8,511.5z"/>
</g>
<g class="st0">
	<path class="st1" d="M670.1,45l3.6,6.8l-2-10l4.3,6.4l-1.8-6.6l3.4,4.8l-1.8-4.8l2.9,5l-1.8-6l2.3,4.8l-1.3-4.9l2.5,5.6l-0.2-1.4
		l4.2,11.1c0.4,1-1.6,2.6-4.4,3.7s-5.4,1.1-5.8,0.2l-4.3-11.4L670.1,45z"/>
	<path class="st1" d="M655.8,34.4l-9.5-6.6c-0.2-0.2-0.2-0.6-0.1-0.8l-1.6-1.1c-0.3-0.2-0.1-0.8,0.3-1.5s1-1,1.3-0.8l1.6,1.1
		c0.2-0.2,0.5-0.3,0.8-0.2l9.5,6.6c1.9-1.2,4.3-1.2,6.1,0.1l10.9,7.6l1,1l-5.2-3.2l3.9,3.2l-4.7-2.6l4.8,4l-5.2-2.4l4.2,2.9l-5.5-2
		l5.2,4.5l-7.2-2.8l7.3,7l-6.8-3.6l1.8,2.9L658,40.1C656.1,38.8,655.3,36.6,655.8,34.4z"/>
</g>
<g class="st0">
	
		<ellipse transform="matrix(0.1302 -0.9915 0.9915 0.1302 34.0715 909.1677)" class="st1" cx="535.2" cy="435.2" rx="5.5" ry="2.7"/>
	
		<ellipse transform="matrix(0.1302 -0.9915 0.9915 0.1302 22.3288 891.5879)" class="st1" cx="519.3" cy="433.1" rx="7.3" ry="3.6"/>
	<polygon class="st1" points="519.3,433.1 520.2,425.8 535.9,429.7 535.2,435.1 	"/>
	<polygon class="st1" points="519.3,433.1 518.3,440.3 534.5,440.6 535.2,435.1 	"/>
</g>
<path class="st4" d="M63.3,620.3l12.6-2.8c0.9-0.2,1.7-0.8,2.1-1.7l2.1-4.9c0.2-0.3,0.5-0.5,0.9-0.5h0.6v-3v-3H81
	c-0.4,0-0.7-0.2-0.9-0.5l-3.6-5.9c-1.1-1.9-3.2-3-5.4-3l-14.2-0.2c-1.4,0-2.8,0.2-4.1,0.6l-1.2,0.3c-1.3,0.4-2.4,1.4-2.8,2.8
	l-1.3,4.4c-0.5,1.6,0,3.3,1.2,4.4l0,0c0.2,0.2,0.2,0.6,0,0.8c0,0,0,0,0,0l0,0c-1.2,1.2-1.6,2.9-1.1,4.4l1.4,4.3
	c0.4,1.3,1.5,2.3,2.8,2.7l1.2,0.3c3,0.4,6.1,0.5,9.2,0.5C62.5,620.4,62.9,620.4,63.3,620.3z M67,615.4c-0.3-2.1,6.3-2.6,7.2-2.8
	c0.9-0.1,1.7,0.5,1.8,1.5c0.1,0.9-0.5,1.7-1.3,1.8C73.8,616.1,67.3,617.5,67,615.4L67,615.4z"/>
<rect x="81.5" y="604.1" transform="matrix(1 -8.901099e-03 8.901099e-03 1 -5.4042 0.7601)" class="st4" width="2.3" height="6.8"/>
<ellipse transform="matrix(0.6179 -0.7863 0.7863 0.6179 -259.9554 507.8419)" class="st4" cx="392.5" cy="521.4" rx="4.8" ry="4.8"/>
<path class="st4" d="M384.1,536c-1.8,0.3-3.6-1-3.9-2.8c0-0.1,0-0.2,0-0.3c-1.2-0.8-2.8-0.4-3.6,0.9c-0.8,1.2-0.4,2.8,0.9,3.6
	c0.2,0.1,0.4,0.2,0.6,0.3c0.8,0.3,1.5,0.8,2,1.5c0.7,1.2,2.4,1.6,3.6,0.9c1.2-0.7,1.6-2.4,0.9-3.6
	C384.4,536.4,384.2,536.2,384.1,536z"/>
<rect x="376.8" y="524.2" transform="matrix(0.6179 -0.7863 0.7863 0.6179 -268.215 505.9936)" class="st4" width="19.4" height="9.5"/>
<rect x="393.2" y="515.8" transform="matrix(0.6179 -0.7863 0.7863 0.6179 -255.8854 508.675)" class="st4" width="4.3" height="3.6"/>
<rect x="395.5" y="513.3" transform="matrix(0.6179 -0.7863 0.7863 0.6179 -253.814 509.1288)" class="st4" width="2.7" height="4.8"/>
<path class="st3" d="M516.2,247.8c-3-2.8-4.2-6.2-2.9-7.6c0.1-0.1,0.2-0.2,0.3-0.3l1.5-1.3l6,3.9l1.2-4.9l6.9-0.8l-5.6-2.4l1.7-2.4
	l-2.2-0.3l2.5-2.1c1-1.1,3.7-0.3,5.9,1.7s3.2,4.6,2.1,5.7l-9.3,12.7c-0.1,0.1-0.1,0.2-0.2,0.3C522.7,251.5,519.2,250.5,516.2,247.8z
	"/>
<path class="st3" d="M405.4,378.8v0.2l0.1,2.6v0.7l0.1,2.6v0.2l0.1,2.6v0.7l0.1,2.6v0.2l0.1,2.6v0.7l0.1,2.6v0.2l0.1,2.6v0.7
	l0.1,2.6v0.2l0.1,2.6v0.7l0.1,2.6v0.2l0.1,3.3l2.6-0.7l0.3-0.1l0,0c1.1-0.5,1.7-1.6,1.6-2.8c0.1-1.3-0.9-2.5-2.1-2.7l0,0
	c-0.1,0-0.2-0.2-0.2-0.3c0-0.1,0.1-0.2,0.2-0.2h0.1l0.3-0.1l0,0c1.1-0.5,1.7-1.6,1.6-2.8c0.1-1.3-0.9-2.5-2.1-2.7l0,0
	c-0.1,0-0.2-0.2-0.2-0.3c0-0.1,0.1-0.2,0.2-0.2h0.1l0.3-0.1l0,0c1.1-0.5,1.7-1.6,1.6-2.8c0.1-1.3-0.9-2.5-2.1-2.7l0,0
	c-0.1,0-0.2-0.2-0.2-0.3c0-0.1,0.1-0.2,0.2-0.2h0.1l0.3-0.1l0,0c1.1-0.5,1.7-1.6,1.6-2.8c0.1-1.3-0.7-2.6-2-2.9l0,0
	c-0.1,0-0.2-0.2-0.2-0.3c0-0.1,0.1-0.2,0.2-0.2h0.1l0.3-0.1l0,0c1.1-0.5,1.7-1.6,1.6-2.8c0.1-1.3-0.9-2.5-2.1-2.7l0,0
	c-0.1,0-0.2-0.2-0.2-0.3c0-0.1,0.1-0.2,0.2-0.2h0.1l0.3-0.1l0,0c1.1-0.5,1.7-1.6,1.6-2.8c0.1-1.3-0.9-2.5-2.1-2.7l-2.5-0.5
	L405.4,378.8z"/>
<polyline class="st3" points="406.5,412.6 400.3,406.7 401.8,379.5 405.3,375.5 "/>
<path class="st3" d="M436.6,769.2l7.4,22.1c0.1,0.4-0.1,0.8-0.5,0.9c-0.1,0-0.2,0-0.3,0l-2.8-0.5c-0.8-0.1-1.4-0.7-1.6-1.4
	l-6.6-19.7L436.6,769.2z"/>
<path class="st3" d="M436.6,769.2l-7.4-22.1c-0.1-0.4-0.5-0.6-0.9-0.4c-0.1,0-0.2,0.1-0.3,0.2l-2,2.1c-0.5,0.6-0.7,1.4-0.5,2.1
	l6.6,19.7L436.6,769.2z"/>
<path class="st3" d="M430.2,751.2l0.1,0.2l1,3.1l0.3,0.9l1,3.1l0.1,0.2l1,3.1l0.3,0.9l1,3.1l0.1,0.2l1,3.1l0.3,0.9l1,3.1l0.1,0.2
	l1,3.1l0.3,0.9l1,3.1l0.1,0.2l1,3.1l0.3,0.9l1,3.1l0.1,0.2l1.3,3.9l2.8-1.8l0.3-0.2l0,0c1.1-1,1.5-2.5,0.9-3.9
	c-0.4-1.6-1.9-2.6-3.5-2.5l0,0c-0.2,0-0.3-0.1-0.3-0.3c0-0.1,0-0.2,0.1-0.3l0.1-0.1l0.3-0.2l0,0c1.1-1,1.5-2.5,0.9-3.9
	c-0.4-1.6-1.9-2.6-3.5-2.5l0,0c-0.2,0-0.3-0.1-0.3-0.3c0-0.1,0-0.2,0.1-0.3l0.1-0.1l0.3-0.2l0,0c1.1-1,1.5-2.5,0.9-3.9
	c-0.3-1.5-1.6-2.5-3.2-2.6l0,0c-0.2,0-0.3-0.1-0.3-0.3c0-0.1,0-0.2,0.1-0.3l0.1-0.1l0.3-0.2l0,0c1.1-1,1.5-2.5,0.9-3.9
	c-0.4-1.6-1.9-2.6-3.5-2.5l0,0c-0.2,0-0.3-0.1-0.3-0.3c0-0.1,0-0.2,0.1-0.3l0.1-0.1l0.3-0.2l0,0c1.1-1,1.5-2.5,0.9-3.9
	c-0.4-1.6-1.9-2.6-3.5-2.5l0,0c-0.2,0-0.3-0.1-0.3-0.3c0-0.1,0-0.2,0.1-0.3l0.1-0.1l0.3-0.2l0,0c1.1-1,1.5-2.5,0.9-3.9
	c-0.4-1.6-1.9-2.6-3.5-2.5l-3.2,0.3L430.2,751.2z"/>
<path class="st4" d="M710.4,659.1c3.3-2.3,5-5.6,3.8-7.2c-0.1-0.1-0.2-0.2-0.3-0.3l-1.3-1.5l-6.5,3.1l-0.5-5l-6.8-1.6l5.9-1.7
	l-1.4-2.6h2.3l-2.2-2.4c-0.9-1.2-3.6-0.8-6,1s-3.7,4.2-2.9,5.4l7.7,13.8c0.1,0.1,0.1,0.2,0.2,0.3C703.5,662,707.1,661.4,710.4,659.1
	z"/>
<path class="st4" d="M600.9,568.3l-5.2-6.6l-2-1.1c-0.4-0.6-2.9,0.6-5.4,2.6s-4.3,4.1-3.9,4.6l0.5,2.2l5.2,6.6L600.9,568.3z"/>
<polygon class="st4" points="587.1,569.2 589.3,575.4 591.9,573.5 592.2,577.2 595.5,574.8 597.1,578.8 600.6,580 603.9,575.8 
	603.9,565.5 602.8,562.9 599.1,564.2 600,560.6 597.9,560.7 "/>
<path class="st3" d="M11.4,722.7l12.5,3.1c0.9,0.2,1.9,0,2.6-0.6l4.1-3.5c0.3-0.2,0.7-0.2,1.1-0.1l0.5,0.2l1.3-2.7l1.3-2.7l-0.5-0.2
	c-0.3-0.2-0.6-0.5-0.6-0.9l-0.6-6.8c-0.2-2.2-1.5-4.1-3.4-5.1L16.8,697c-1.3-0.6-2.6-1.1-4-1.3l-1.1-0.2c-1.4-0.2-2.7,0.2-3.7,1.2
	l-3.1,3.3c-1.1,1.2-1.5,2.9-0.9,4.5l0,0c0.1,0.3,0,0.6-0.3,0.7c0,0,0,0,0,0l0,0c-1.6,0.5-2.7,1.9-2.9,3.5l-0.7,4.5
	c-0.2,1.4,0.3,2.7,1.3,3.7l0.9,0.8c2.6,1.7,5.2,3.2,8,4.5C10.6,722.4,11,722.6,11.4,722.7z M16.8,719.9c0.6-2,6.8,0.4,7.7,0.7
	c0.9,0.3,1.3,1.3,1,2.1c-0.3,0.8-1.1,1.2-2,1C22.6,723.5,16.2,721.9,16.8,719.9L16.8,719.9z"/>
<rect x="31" y="718.6" transform="matrix(0.4343 -0.9008 0.9008 0.4343 -628.8863 438.1817)" class="st3" width="6.8" height="2.3"/>
<ellipse transform="matrix(0.9366 -0.3504 0.3504 0.9366 -171.0777 281.9272)" class="st4" cx="693.6" cy="613.8" rx="3.7" ry="4.5"/>
<ellipse transform="matrix(0.9366 -0.3504 0.3504 0.9366 -171.9833 282.1846)" class="st4" cx="693.9" cy="616.4" rx="2.2" ry="2.2"/>
<ellipse transform="matrix(0.9366 -0.3504 0.3504 0.9366 -172.3864 281.5157)" class="st4" cx="691.8" cy="617.2" rx="2.2" ry="2.2"/>
<ellipse transform="matrix(0.9366 -0.3504 0.3504 0.9366 -172.7804 280.8508)" class="st4" cx="689.8" cy="617.9" rx="2.2" ry="2.2"/>
<ellipse transform="matrix(0.9366 -0.3504 0.3504 0.9366 -173.18 280.1813)" class="st4" cx="687.7" cy="618.7" rx="2.2" ry="2.2"/>
<ellipse transform="matrix(0.9366 -0.3504 0.3504 0.9366 -173.5746 279.5129)" class="st4" cx="685.7" cy="619.5" rx="2.2" ry="2.2"/>
<ellipse transform="matrix(0.9366 -0.3504 0.3504 0.9366 -173.9777 278.844)" class="st4" cx="683.6" cy="620.2" rx="2.2" ry="2.2"/>
<ellipse transform="matrix(0.9366 -0.3504 0.3504 0.9366 -174.3717 278.1791)" class="st4" cx="681.6" cy="621" rx="2.2" ry="2.2"/>
<ellipse transform="matrix(0.9366 -0.3504 0.3504 0.9366 -174.7682 277.5078)" class="st4" cx="679.6" cy="621.8" rx="2.2" ry="2.2"/>
<path class="st4" d="M679.9,621.2c-0.3-0.8-1-1.4-1.8-1.7l0,0c0.5-0.7,0.6-1.6,0.3-2.4c-0.5-1.3-2-2-3.3-1.5c-1.4,0.5-2.1,2-1.6,3.3
	c0.1,0.3,0.3,0.6,0.5,0.8c0.6,0.6,0.9,1.5,0.9,2.3c0,1.4,1.2,2.6,2.7,2.6c0.3,0,0.6-0.1,0.9-0.2C679.7,624,680.4,622.6,679.9,621.2z
	"/>
<rect x="676.1" y="614.2" transform="matrix(0.9366 -0.3504 0.3504 0.9366 -172.6486 279.4146)" class="st4" width="19.7" height="5.3"/>
<ellipse transform="matrix(0.9371 -0.3489 0.3489 0.9371 -173.4124 276.1981)" class="st4" cx="680" cy="619.5" rx="2.2" ry="2.2"/>
<ellipse transform="matrix(0.9366 -0.3504 0.3504 0.9366 -172.8021 277.2447)" class="st4" cx="679.8" cy="616.2" rx="2.2" ry="2.2"/>
<ellipse transform="matrix(0.9366 -0.3504 0.3504 0.9366 -172.4032 277.9108)" class="st4" cx="681.8" cy="615.4" rx="2.2" ry="2.2"/>
<ellipse transform="matrix(0.9366 -0.3504 0.3504 0.9366 -172.0085 278.5791)" class="st4" cx="683.9" cy="614.7" rx="2.2" ry="2.2"/>
<ellipse transform="matrix(0.9366 -0.3504 0.3504 0.9366 -171.6108 279.2456)" class="st4" cx="685.9" cy="613.9" rx="2.2" ry="2.2"/>
<ellipse transform="matrix(0.9366 -0.3504 0.3504 0.9366 -171.2149 279.9135)" class="st4" cx="688" cy="613.1" rx="2.2" ry="2.2"/>
<ellipse transform="matrix(0.9366 -0.3504 0.3504 0.9366 -170.8137 280.5794)" class="st4" cx="690" cy="612.4" rx="2.2" ry="2.2"/>
<ellipse transform="matrix(0.9366 -0.3504 0.3504 0.9366 -170.4172 281.2508)" class="st4" cx="692.1" cy="611.6" rx="2.2" ry="2.2"/>
<rect x="694.3" y="611.3" transform="matrix(0.9366 -0.3504 0.3504 0.9366 -170.5584 282.8558)" class="st4" width="4.3" height="3.1"/>
<rect x="697.4" y="610.1" transform="matrix(0.9366 -0.3504 0.3504 0.9366 -170.1739 283.4973)" class="st4" width="2.1" height="3.9"/>
<polygon class="st4" points="768.3,659 761.8,662.7 765.4,668.9 767,669.3 766.4,670.8 767.5,672.7 774.1,669 773,667.1 
	771.4,666.8 771.9,665.2 "/>
<polygon class="st4" points="760,666.1 761,664.9 762.1,666.1 766.7,665.9 766.4,658.4 761.9,658.6 760.8,659.8 759.7,658.6 
	757.5,658.7 757.8,666.2 "/>
<path class="st3" d="M399.7,625.8c3.3,0.1,6.1-2.5,6.2-5.8c0.1-3.2-2.5-5.9-5.7-6c0,0,0,0-0.1,0c-3.3-0.1-6.1,2.5-6.2,5.8
	C393.8,623,396.4,625.7,399.7,625.8C399.7,625.8,399.7,625.8,399.7,625.8z"/>
<path class="st3" d="M400.8,626.1c1.9,0,3.5-1.2,3.6-2.8s-1.5-2.9-3.4-2.9s-3.5,1.2-3.6,2.8S398.9,626.1,400.8,626.1z"/>
<path class="st3" d="M404.3,626.2c1.9,0,3.5-1.2,3.6-2.8s-1.5-2.9-3.4-2.9s-3.5,1.2-3.6,2.8S402.4,626.1,404.3,626.2z"/>
<path class="st3" d="M407.8,626.3c1.9,0,3.5-1.2,3.6-2.8s-1.5-2.9-3.4-2.9s-3.5,1.2-3.6,2.8S405.9,626.2,407.8,626.3z"/>
<path class="st3" d="M411.3,626.3c1.9,0,3.5-1.2,3.6-2.8s-1.5-2.9-3.4-2.9s-3.5,1.2-3.6,2.8S409.4,626.3,411.3,626.3z"/>
<path class="st3" d="M411.1,627c1.9-0.4,3-1.9,2.5-3.5c-0.7-1.6-2.5-2.5-4.3-2c-1.9,0.4-3,1.9-2.5,3.5
	C407.6,626.6,409.4,627.5,411.1,627z"/>
<path class="st3" d="M414.5,626.3c1.9-0.4,3-1.9,2.5-3.5c-0.7-1.6-2.5-2.5-4.3-2c-1.9,0.4-3,1.9-2.5,3.5
	C411,625.9,412.8,626.8,414.5,626.3z"/>
<path class="st3" d="M417.9,625.5c1.9-0.4,3-1.9,2.5-3.5c-0.7-1.6-2.5-2.5-4.3-2c-1.9,0.4-3,1.9-2.5,3.5
	C414.4,625.1,416.2,626,417.9,625.5z"/>
<path class="st3" d="M421.3,624.9c1.9-0.4,3-1.9,2.5-3.5c-0.7-1.6-2.5-2.5-4.3-2c-1.9,0.4-3,1.9-2.5,3.5
	C417.8,624.5,419.6,625.3,421.3,624.9z"/>
<path class="st3" d="M419.4,621.8c-0.4-1.1,0-2.3,0.8-3.1l0,0c-1.2-0.3-2.1-1.2-2.5-2.4c-0.5-1.7,0.8-3.6,2.9-4.1
	c2.3-0.5,4.6,0.6,5.2,2.4c0.1,0.4,0.2,0.8,0.1,1.2c-0.1,1.1,0.2,2.3,1,3.1c0.3,0.3,0.5,0.7,0.6,1.1c0.6,1.8-0.8,3.7-3.1,4.2
	C422.2,624.6,420,623.5,419.4,621.8z"/>
<polygon class="st3" points="423.9,621.7 421.8,615 403,618.8 405.1,625.6 "/>
<path class="st3" d="M417.6,612.9c-1.9,0.4-3,1.9-2.5,3.5c0.7,1.6,2.5,2.5,4.3,2c1.9-0.4,3-1.9,2.5-3.5
	C421.1,613.3,419.3,612.4,417.6,612.9z"/>
<path class="st3" d="M414.2,613.6c-1.9,0.4-3,1.9-2.5,3.5c0.7,1.6,2.5,2.5,4.3,2c1.9-0.4,3-1.9,2.5-3.5
	C417.7,614,415.9,613.1,414.2,613.6z"/>
<path class="st3" d="M410.8,614.3c-1.9,0.4-3,1.9-2.5,3.5c0.7,1.6,2.5,2.5,4.3,2c1.9-0.4,3-1.9,2.5-3.5
	C414.3,614.7,412.5,613.8,410.8,614.3z"/>
<path class="st3" d="M407.4,615c-1.9,0.4-3,1.9-2.5,3.5c0.7,1.7,2.5,2.5,4.3,2.1c1.9-0.4,3-1.9,2.5-3.5
	C410.9,615.4,409.1,614.5,407.4,615z"/>
<path class="st3" d="M411.7,614c-1.9,0-3.5,1.2-3.6,2.8s1.5,2.9,3.4,2.9s3.5-1.2,3.6-2.8S413.7,614,411.7,614z"/>
<path class="st3" d="M408.2,613.9c-1.9,0-3.5,1.2-3.6,2.8s1.5,2.9,3.4,2.9s3.5-1.2,3.6-2.8S410.2,614,408.2,613.9z"/>
<path class="st3" d="M404.7,613.8c-1.9,0-3.5,1.2-3.6,2.8s1.5,2.9,3.4,2.9s3.5-1.2,3.6-2.8S406.7,613.9,404.7,613.8z"/>
<path class="st3" d="M401.2,613.8c-1.9,0-3.5,1.2-3.6,2.8s1.5,2.9,3.4,2.9s3.5-1.2,3.6-2.8S403.2,613.8,401.2,613.8z"/>
<polygon class="st3" points="398.5,621.9 398.6,617.9 391.8,617.7 391.6,621.7 "/>
<polygon class="st3" points="389.3,621.3 393.6,617.6 391.1,615.8 386.9,619.5 "/>
<path class="st3" d="M334.1,505.3c-3.1,1.8-4,5.8-2.2,8.9c1.8,3.1,5.8,4,8.9,2.2c1.5-0.9,2.6-2.4,3-4.1c1.8,3.1,5.8,4.1,8.8,2.3
	c1.6-0.9,2.7-2.4,3.1-4.2c1.8,3.1,5.7,4.1,8.8,2.3c3.1-1.8,4.1-5.7,2.3-8.8c-0.9-1.6-2.4-2.7-4.2-3.1c3.1-1.8,4-5.8,2.2-8.9
	c-1.8-3.1-5.8-4-8.9-2.2c-1.5,0.9-2.6,2.4-3,4.1c-1.8-3.1-5.8-4.1-8.8-2.3c-1.6,0.9-2.7,2.4-3.1,4.2c-1.8-3.1-5.7-4.1-8.8-2.3
	c-3.1,1.8-4.1,5.7-2.3,8.8C330.8,503.8,332.3,504.9,334.1,505.3z M338.2,515.7c-2.7,0.4-5.3-1.4-5.7-4.1c-0.4-2.7,1.4-5.3,4.1-5.7
	c2.7-0.4,5.3,1.4,5.7,4.1c0,0,0,0,0,0.1C342.7,512.7,340.9,515.2,338.2,515.7z M350.1,513.8c-2.7,0.4-5.3-1.4-5.7-4.1
	c-0.4-2.7,1.4-5.3,4.1-5.7c2.7-0.4,5.3,1.4,5.7,4.1c0,0,0,0,0,0.1C354.6,510.8,352.8,513.4,350.1,513.8L350.1,513.8z M366.1,506.3
	c0.4,2.7-1.4,5.3-4.1,5.7c-2.7,0.4-5.3-1.4-5.7-4.1c-0.4-2.7,1.4-5.3,4.1-5.7c0,0,0,0,0.1,0C363.1,501.7,365.6,503.5,366.1,506.3
	L366.1,506.3z M358.5,490.3c2.7-0.4,5.3,1.4,5.7,4.1c0.4,2.7-1.4,5.3-4.1,5.7c-2.7,0.4-5.3-1.4-5.7-4.1c0,0,0,0,0-0.1
	C354,493.3,355.8,490.7,358.5,490.3L358.5,490.3z M346.7,492.2c2.7-0.4,5.3,1.4,5.7,4.1c0.4,2.7-1.4,5.3-4.1,5.7
	c-2.7,0.4-5.3-1.4-5.7-4.1c0,0,0,0,0-0.1C342.1,495.2,343.9,492.6,346.7,492.2L346.7,492.2z M334.8,494.1c2.7-0.4,5.3,1.4,5.7,4.1
	c0.4,2.7-1.4,5.3-4.1,5.7c-2.7,0.4-5.3-1.4-5.7-4.1c0,0,0,0,0-0.1C330.2,497,332.1,494.5,334.8,494.1L334.8,494.1z"/>
<path class="st4" d="M28,519.2l6.7,0.9l2.8,3.9l2.6-1.6l5.8-3.6l0.4-9.8l1.5-4.8l-6-12.4l-3.5-4.1l-6.2-0.2l-4.6,5.9l-5.8-4.2
	l-4,2.9l-5.3,4.6l-5.5,0.7l-3.2,4.5l-0.5,4l5.7,3.4l4.3-4.3l2.5,2.4l3.2,3.4l-4.5,6.1l-3.5,4.5l5.8,5.6c0,0,5.2-1.3,6-1.2
	c0.8,0.1,5.8-3.1,5.8-3.1L28,519.2z M12,501.4l-3.2,3.7l-2.5-0.3L6,503.2l1.6-3.2l2.5-0.7l4.5-0.9l3.6,0.5l-0.6,4.7L12,501.4z
	 M19.6,520.5l-0.9,2.7l-5.1-0.7l1-3.2l3.5-2.9l1.9-2.9l0.9,1.9L19.6,520.5z"/>
<path class="st3" d="M775,601.7l1.4-0.3c0.5,0.8,1.3,1.3,2.1,1.7l-1.9-3.7l3.5,1.9l-0.1-3.8l2.1-0.4l-0.5-2.4l0,0l-0.2-1l-2,0.5
	c-1.9,0.4-3.3,1.9-3.7,3.8l-1.4,0.3l-0.1-0.6l-2.6,0.6l1,4.6l2.6-0.6L775,601.7z"/>
<path class="st4" d="M770.3,747.2l-0.6-1.3l-0.5,0.2l-1.2-2.4l4.3-2l1.2,2.4l-0.5,0.2l0.6,1.3c0.9,0,1.7,0.1,2.5,0.6l-3.1,2.4
	l5.1-0.3l-3.4,4l4.6-1.3l0.8,1.7l-5.8,3.2l6,2.1l-6.6,3.2l-4.2-8.9C768.7,750.8,769,748.7,770.3,747.2z"/>
<path class="st3" d="M272.9,256.5l-0.5-1.3l0.5-0.2l-1.1-2.5l-4.4,1.9l1.1,2.5l0.5-0.2l0.5,1.3c-1.4,1.4-1.8,3.4-1,5.2l3.8,9
	l8.8-3.6l-3.8-9C276.6,257.7,274.9,256.5,272.9,256.5z"/>
<path class="st3" d="M272.4,265l-4.7,11.7l0,0c-0.5,1.3,0.1,2.9,1.5,3.4c0.3,0.1,0.6,0.2,0.9,0.2c0.8,0,1.7,0.4,2.3,0.9
	c1.1,1,2.7,0.9,3.7-0.2c0.2-0.2,0.4-0.5,0.5-0.8l0,0l4.8-11.7L272.4,265z"/>
<path class="st3" d="M513,611.4l10.3-22.3l-8.5-4.2c-1.3-0.6-2.6-1-4-1.2l-1.2-0.2c-1.4-0.2-2.7,0.3-3.7,1.3l-3.1,3.4
	c-1.1,1.2-1.4,2.9-0.8,4.5c0.1,0.3,0,0.6-0.3,0.7c0,0,0,0,0,0c-1.5,0.5-2.7,1.9-2.9,3.5l-0.6,4.5c-0.2,1.4,0.3,2.7,1.4,3.6l0.9,0.8
	c2.6,1.6,5.3,3.1,8.1,4.3c0.4,0.2,0.7,0.3,1.1,0.4L513,611.4z"/>
<ellipse transform="matrix(0.9915 -0.1302 0.1302 0.9915 -50.1091 9.1025)" class="st4" cx="44.6" cy="387.8" rx="2.7" ry="5.5"/>
<ellipse transform="matrix(0.9915 -0.1302 0.1302 0.9915 -50.5152 7.0513)" class="st4" cx="28.7" cy="389.9" rx="3.7" ry="7.3"/>
<polygon class="st4" points="28.7,389.9 29.6,397.2 45.3,393.3 44.6,387.8 "/>
<polygon class="st4" points="28.7,389.9 27.7,382.7 43.8,382.4 44.6,387.8 "/>
<polygon class="st3" points="164,493.4 158.6,498.6 153.6,493.5 153.8,491.9 152.1,491.9 150.6,490.4 156,485.1 157.5,486.7 
	157.4,488.3 159,488.2 "/>
<polygon class="st3" points="154.9,499.4 156.4,498.8 155.5,497.4 156.9,493 164.1,495.4 162.7,499.7 161.2,500.4 162,501.8 
	161.3,503.9 154.2,501.5 "/>
<path class="st3" d="M41.2,347.1l-8-2.5l-2.3,0.3c-0.7-0.2-2,2.1-3,5.2s-1.2,5.8-0.6,6l1.7,1.5l8,2.5L41.2,347.1z"/>
<polygon class="st3" points="46.6,359.9 47,353.3 43.9,354 45,350.5 41.1,351.4 41.2,347.1 38.4,344.6 33.8,347.3 29.8,356.7 
	29.8,359.6 33.7,359.8 31.4,362.8 33.4,363.5 "/>
<path class="st2" d="M447.3,138.4l-1.8,4c0,0-1.3,8.7-1.8,9.9s-2.1,4-2.1,4l-7.6,2.2l-4.9-0.5l-4.9,5.4l-3.1,6.8l4.1,3.6l8.5-4.2
	l7.7,3.5l5.1-2l3.1,3.1l7.9,1.9l8.7,4l2.9-1.8l-1.3-14.9c0,0,1.4-7.1,1.1-8.4s-3.6-1.6-3.6-1.6l-4.9-5.4l-5.9-4.3l2.2-6.1l-8.3-7.6
	L447.3,138.4z M442,167.1l-2.2,2.2l-4.5-2l-4.2-0.7l-4.2,3.2l-2.2-1l2.8-2.1l2.4-5.1l4,1.8l4.2-1.3L442,167.1z M454.6,139.5l-3.3,4
	h-3.6l1.7-3.7l1.5-5.8L454.6,139.5z"/>
<g class="st0">
	<ellipse transform="matrix(0.995 -0.1 0.1 0.995 -19.5836 39.8426)" class="st1" cx="387.6" cy="215.2" rx="3.7" ry="4.5"/>
	<ellipse transform="matrix(0.995 -0.1 0.1 0.995 -19.3399 39.7367)" class="st1" cx="386.6" cy="212.8" rx="2.2" ry="2.2"/>
	<ellipse transform="matrix(0.995 -0.1 0.1 0.995 -19.3725 39.519)" class="st1" cx="384.5" cy="213" rx="2.2" ry="2.2"/>
	<ellipse transform="matrix(0.995 -0.1 0.1 0.995 -19.405 39.3034)" class="st1" cx="382.3" cy="213.2" rx="2.2" ry="2.2"/>
	<ellipse transform="matrix(0.995 -0.1 0.1 0.995 -19.4385 39.0877)" class="st1" cx="380.1" cy="213.4" rx="2.2" ry="2.2"/>
	<ellipse transform="matrix(0.995 -0.1 0.1 0.995 -19.471 38.8711)" class="st1" cx="377.9" cy="213.6" rx="2.2" ry="2.2"/>
	<ellipse transform="matrix(0.995 -0.1 0.1 0.995 -19.5034 38.6554)" class="st1" cx="375.8" cy="213.8" rx="2.2" ry="2.2"/>
	<ellipse transform="matrix(0.995 -0.1 0.1 0.995 -19.536 38.4387)" class="st1" cx="373.6" cy="214.1" rx="2.2" ry="2.2"/>
	<ellipse transform="matrix(0.9949 -0.1005 0.1005 0.9949 -19.5371 38.1995)" class="st1" cx="369.4" cy="213" rx="2.2" ry="2.2"/>
	<path class="st1" d="M372,214.5c0.1,0.9-0.2,1.7-0.9,2.3l0,0c0.7,0.4,1.2,1.2,1.3,2c0.1,1.4-0.9,2.6-2.3,2.8
		c-1.4,0.2-2.7-0.8-2.9-2.3c0-0.3,0-0.6,0.1-1c0.2-0.8,0.1-1.7-0.2-2.5c-0.6-1.3-0.1-2.9,1.2-3.5c0.3-0.1,0.6-0.2,0.9-0.2
		C370.7,212.1,371.9,213.1,372,214.5z"/>
	<rect x="369.5" y="213.3" transform="matrix(0.995 -0.1 0.1 0.995 -19.6956 39.0202)" class="st1" width="19.6" height="5.4"/>
	
		<ellipse transform="matrix(0.9949 -0.1005 0.1005 0.9949 -20.0457 38.2771)" class="st1" cx="369.9" cy="218.1" rx="2.2" ry="2.2"/>
	<ellipse transform="matrix(0.995 -0.1 0.1 0.995 -20.0448 38.5162)" class="st1" cx="374.1" cy="219.2" rx="2.2" ry="2.2"/>
	<ellipse transform="matrix(0.995 -0.1 0.1 0.995 -20.0113 38.7318)" class="st1" cx="376.3" cy="218.9" rx="2.2" ry="2.2"/>
	<ellipse transform="matrix(0.995 -0.1 0.1 0.995 -19.9788 38.9484)" class="st1" cx="378.5" cy="218.7" rx="2.2" ry="2.2"/>
	<ellipse transform="matrix(0.995 -0.1 0.1 0.995 -19.9453 39.164)" class="st1" cx="380.6" cy="218.5" rx="2.2" ry="2.2"/>
	<ellipse transform="matrix(0.995 -0.1 0.1 0.995 -19.9127 39.3807)" class="st1" cx="382.8" cy="218.3" rx="2.2" ry="2.2"/>
	<ellipse transform="matrix(0.995 -0.1 0.1 0.995 -19.8802 39.5964)" class="st1" cx="385" cy="218.1" rx="2.2" ry="2.2"/>
	<ellipse transform="matrix(0.995 -0.1 0.1 0.995 -19.8477 39.8131)" class="st1" cx="387.2" cy="217.9" rx="2.2" ry="2.2"/>
	<rect x="388.4" y="213.4" transform="matrix(0.995 -0.1 0.1 0.995 -19.536 40.1419)" class="st1" width="4.3" height="3.1"/>
	<rect x="391.6" y="212.8" transform="matrix(0.995 -0.1 0.1 0.995 -19.5056 40.3497)" class="st1" width="2.1" height="3.9"/>
</g>
<path class="st2" d="M79.2,80.8l-1.5-1.7l3.1-1.1l-2.2-1.9l1.5-0.5L79,74.4l2.1,0.2L79.8,73h0.1l-6.3-1.3c-1.2-0.2-2.6,1.5-3.1,3.8
	c-0.5,2.4,0.1,4.5,1.3,4.8l6,1.3L79.2,80.8z"/>
<path class="st2" d="M272.7,51l5.5-5.5l-8.9,5l4.8-6.1l-5.8,3.7l3.5-4.7l-4,3.2l3.9-4.3l-5.2,3.5l3.9-3.7l-4.2,2.8l4.6-4.1l-1.2,0.7
	l9.3-7.4c0.8-0.6,3,0.8,4.8,3.1s2.7,4.8,1.9,5.4l-9.6,7.6L272.7,51z"/>
<g class="st0">
	<path class="st1" d="M563.1,200l-7.2-2.7l10.1,0.8l-6.8-3.5l6.8,0.9l-5.2-2.7l5,1.2l-5.3-2.3l6.2,1l-5.1-1.7l5,0.7l-5.9-1.7
		l1.4,0.1l-11.6-2.8c-1-0.2-2.4,1.9-3.1,4.9s-0.5,5.5,0.5,5.7l11.8,2.9L563.1,200z"/>
	<path class="st1" d="M575.4,212.9l7.7,8.6c0.2,0.2,0.6,0.2,0.8,0l1.3,1.4c0.2,0.2,0.9,0,1.4-0.5s0.9-1.1,0.7-1.4l-1.3-1.5
		c0.2-0.2,0.2-0.5,0.1-0.8l-7.7-8.6c1-2,0.6-4.4-0.8-6l-8.9-9.9l-1.1-0.8l3.8,4.8l-3.7-3.4l3.2,4.3l-4.5-4.3l3.1,4.9l-3.4-3.8
		l2.7,5.2l-5.1-4.6l3.7,6.8l-7.9-6.4l4.4,6.3l-3.1-1.4l8.7,9.7C571,213.1,573.3,213.7,575.4,212.9z"/>
</g>
<g class="st0">
	<ellipse transform="matrix(0.3691 -0.9294 0.9294 0.3691 -95.4927 91.5031)" class="st1" cx="19.7" cy="116.1" rx="5.9" ry="1.3"/>
	<polygon class="st1" points="24.1,110.5 19.1,123.2 17.5,121.6 21.8,110.6 	"/>
	<ellipse transform="matrix(0.3691 -0.9294 0.9294 0.3691 -90.3853 114.543)" class="st1" cx="39.2" cy="123.8" rx="5.9" ry="1.3"/>
	<polygon class="st1" points="34.7,129.4 39.8,116.7 41.3,118.4 37,129.3 	"/>
	
		<rect x="22.6" y="111.6" transform="matrix(0.3691 -0.9294 0.9294 0.3691 -92.9437 103.0262)" class="st1" width="13.7" height="16.8"/>
</g>
<path class="st2" d="M34,2.8l-0.1,0.9c-0.3,2,2.7,4.1,6.7,4.6s7.5-0.6,7.7-2.6l0.1-0.9c0.3-2-2.7-4.1-6.7-4.6S34.3,0.8,34,2.8z
	 M41,4.2l-1-0.8l0.2-0.1l1,0.8l1.2-0.5l0.2,0.1l-1.2,0.5l1,0.8l-0.2,0.1l-1-0.8L40,4.8l-0.2-0.1L41,4.2z"/>
<path class="st2" d="M195.9,4.8l0.6,2.1l2.6-2l0.5,2.8l1.2-1l0.4,1.6l1-1.8l0.7,1.9l0.1-0.1l-2.2,6c-0.4,1.2-2.6,1.4-4.9,0.6
	s-3.8-2.4-3.4-3.6l2.1-5.8L195.9,4.8z"/>
<path class="st4" d="M396.1,312.7l-0.4-1.4l-0.6,0.1l-0.7-2.6l4.6-1.2l0.7,2.6l-0.6,0.1l0.4,1.4c1.9,0.3,3.5,1.6,4,3.5l2.5,9.5
	l-9.1,2.4l-2.5-9.5C393.8,315.9,394.5,313.9,396.1,312.7z"/>
<path class="st4" d="M401.5,319l10.8,6.4l0,0c1.2,0.7,1.7,2.3,0.9,3.6c-0.2,0.3-0.4,0.5-0.6,0.7c-0.7,0.5-1.1,1.3-1.2,2.1
	c-0.3,1.4-1.6,2.4-3,2.1c-0.3-0.1-0.6-0.2-0.8-0.3l0,0l-10.8-6.4L401.5,319z"/>
<path class="st4" d="M253.1,19.3c0.5,1.8,3.7,2.6,6.1,2c1.5-0.2,2.6-1.4,2.7-3l6.7-1.7l-0.6-2.4l-6.7,1.7c-0.7-1.3-2.3-1.9-3.7-1.4
	C255.1,15.3,252.6,17.5,253.1,19.3z"/>
<polygon class="st4" points="266,14.6 274.4,18.3 275.4,16.1 267,12.4 "/>
<path class="st3" d="M761.1,191.2l-24.2-3.3l-1.5,9.4c-0.2,1.4-0.2,2.8,0,4.2l0.2,1.2c0.2,1.4,1.1,2.5,2.3,3.1l4.1,1.9
	c1.5,0.7,3.2,0.5,4.5-0.5c0.2-0.2,0.6-0.2,0.8,0.1c0,0,0,0,0,0c1,1.3,2.6,2,4.2,1.7l4.5-0.8c1.4-0.2,2.5-1.1,3.1-2.4l0.5-1.1
	c0.8-3,1.4-6,1.8-9c0-0.4,0-0.8,0-1.2L761.1,191.2z"/>
<path class="st3" d="M759.3,180.5l-5.8-7.5c-0.6-0.7-1.5-1.2-2.4-1.1l-5.3,0.2c-0.4,0-0.7-0.3-0.9-0.6l-0.3-0.5l0.4-0.2l-1-2.1
	l-6.1,3l1,2.1l0.4-0.2l0.3,0.5c0.2,0.3,0.1,0.7-0.1,1.1l-3.7,5.8c-1.2,1.8-1.4,4.2-0.4,6.1l2,4.3L759.3,180.5z M750.2,174.4
	c0.7-0.5,1.8-0.3,2.3,0.4c0,0,0,0,0,0c0.5,0.8,4.6,6,2.8,7.1c-1.7,1.1-5-4.5-5.6-5.3C749.2,176,749.4,174.9,750.2,174.4z"/>
<polygon class="st3" points="761.1,191.2 756.2,185.9 759.3,180.6 738.1,190.3 746.3,192.5 "/>
<path class="st3" d="M168.7,234.6c4.4-4.3,1.4,1.2,8.3,2.4c2.8,0.5,7.9-2.4,7.1-5.9c-0.5-2.1-1.4-4.2-2.6-6c1.2,0,2.2-1,2.2-2.2
	c0-0.3-0.1-0.5-0.2-0.8c-0.9-2.8-4.2-6.5-4.2-6.5s2.7-4,1.7-4.9s-3.6-1.5-6.4-1.1c-2.8,0.3-7.1-3.8-9.6-1.8s-3.5,5.4-3.1,6.3
	c0.4,0.9-3.7,2.5-3.5,5.5c0.2,2.7,0.8,4.6,1.7,5.3c0.1,0.1,0.3,0.2,0.5,0.3c1.2,0.5-4.5,1.3-4.7,4.4S164.3,238.9,168.7,234.6z
	 M176.1,214.3c-2.6,1-2.8,1.6-3.7,0.3c0,0,0.3-3.9,1.7-4s5.4-1,5.8,0.1S178.7,213.3,176.1,214.3L176.1,214.3z M180.4,223.7
	c-2.6,0.4-7.5,1.6-8.3-3c-0.3-1.5,0.1-3.9,0.9-3.8s2.6-0.3,4-0.3s3,3,3.1,3.5S183,223.3,180.4,223.7L180.4,223.7z M171.8,227.3
	c-0.2-2.4,3.9-1.6,6.5-1.8s2.8,2.9,4,3.6s-1.3,3.5-2,5.1s-3.7-0.7-3.7-0.7C172.8,232.9,171.9,229.7,171.8,227.3L171.8,227.3z
	 M169,213.9c-1.3,1.2-3.8,0.8-5.9-0.1c-2.2-0.9,1.3-3.7,3.3-5s4,0.8,4.1,1.5C170.6,211.6,170,212.9,169,213.9L169,213.9z
	 M169.4,219.6c0,1.2-0.8,2-1.2,2.9s-3.5,0.9-5.8,1c-1.9,0.1-2.5-2.1-2.7-4s2.1-2.6,2.8-3.1s3.9-1,5.8-0.4S169.4,218.4,169.4,219.6
	L169.4,219.6z M159.1,227.5c0.8-0.7,5-2.1,9-2.3s0.2,2.7,0.3,4.2s-2.8,4-4.6,3.9l-4.4-1.1C157.9,231.8,158.3,228.2,159.1,227.5z"/>
<path class="st3" d="M469,43.5l-1.5,2c-0.8,1.1-0.6,2.6,0.5,3.4l2,1.5c1,0.8,2.5,0.6,3.3-0.5c0,0,0,0,0,0l1.5-2
	c0.8-1.1,0.6-2.6-0.5-3.4l-2-1.5C471.3,42.3,469.8,42.5,469,43.5C469,43.5,469,43.5,469,43.5z M470.9,49.3c0.2,0.1,0.2,0.4,0.1,0.6
	c-0.1,0.2-0.4,0.2-0.6,0.1c0,0,0,0,0,0l-2.1-1.7c-0.2-0.1-0.2-0.4-0.1-0.6c0.1-0.2,0.4-0.2,0.6-0.1c0,0,0,0,0,0L470.9,49.3z"/>
<path class="st3" d="M470.1,45.9l0.3,0.2c0.1,0.1,0.2,0.1,0.3,0c0,0,0,0,0,0l1.4-1.8c0-0.1,0.1-0.1,0.2-0.1l2,0.9
	c0.1,0,0.2,0,0.2-0.1c0,0,0-0.1,0-0.2l-0.4-1.2c0-0.1,0-0.2,0.1-0.2c0,0,0,0,0.1,0h0.8c0.1,0,0.2-0.1,0.2-0.2c0,0,0,0,0-0.1
	l-0.2-0.7c0-0.1,0-0.2,0.1-0.2c0,0,0,0,0.1,0h0.8c0.1,0,0.2-0.1,0.2-0.2c0,0,0,0,0-0.1l-0.2-0.7c0-0.1,0-0.2,0.1-0.2c0,0,0,0,0.1,0
	h0.8c0.1,0,0.2-0.1,0.2-0.2c0,0,0,0,0-0.1l-0.2-0.7c0-0.1,0-0.2,0.1-0.2c0,0,0,0,0.1,0h0.8c0.1,0,0.2-0.1,0.2-0.2c0,0,0,0,0-0.1
	l-0.2-0.7c0-0.1,0-0.2,0.1-0.2c0,0,0,0,0.1,0h0.8c0.1,0,0.2-0.1,0.2-0.2c0,0,0,0,0-0.1l-0.8-2.2c0,0,0-0.1-0.1-0.1l-0.4-0.3
	c-0.1-0.1-0.2-0.1-0.3,0c0,0,0,0,0,0l-7.3,9.7c-0.1,0-0.2,0.1-0.2,0.3C469.8,45.8,470,45.9,470.1,45.9z"/>
<path class="st4" d="M119.8,177.9l-0.9,4.3c0,0,0.6,8.8,0.4,10c-0.3,1.2-1.2,4.4-1.2,4.4l-7,3.8l-4.9,0.5l-3.6,6.3l-1.6,7.3l4.8,2.7
	l7.4-6l8.3,1.8l4.6-3.1l3.7,2.4l8.1,0.2l9.4,2l2.5-2.4l-4.5-14.1c0,0-0.1-7.2-0.7-8.4c-0.6-1.2-3.9-0.8-3.9-0.8l-5.9-4.3l-6.6-2.9
	l0.8-6.4l-9.7-5.7L119.8,177.9z M120.8,207l-1.7,2.5l-4.8-1l-4.3,0.3l-3.4,4l-2.4-0.5l2.2-2.6l1.2-5.5l4.3,0.9l3.8-2.2L120.8,207z
	 M127.2,177.5l-2.4,4.6l-3.5,0.8l0.9-3.9l0.2-6L127.2,177.5z"/>
<path class="st2" d="M163.3,386.8c0,0-1.4,5.2-1.1,5.9c0.3,1.8,0.5,3.7,0.6,5.5l6.4,3.5l2.9-4.2l4-5.5l3.8,1.8l2.8,1.5l-2.5,4.9
	l4.5,4l3.3-1.5l3-4l-0.9-4.9l2.5-5.8l1.4-4.3l-5.2-3.9l3.8-5.6l-1.9-5.3l-4.5-1.9l-12.3-1.8l-3.7,2.6l-8.3,3l-1.5,6l-0.7,2.7
	l4.1,1.3l2.6,5.6L163.3,386.8z M182.6,390.9l3.8-1.8l1.4,3l0.4,4.1l0.1,2.4l-2.3,2.3l-1.5,0.1l-1-2.1l2.3-3.8L182.6,390.9z
	 M171.4,391.5l1.9,0.3l-2,2.5l-1.5,3.8l-2.5,1.7l-2-4.2l2.1-1.5L171.4,391.5z"/>
<g class="st0">
	<path class="st1" d="M342.8,162.1l7,3.2l-7.8-6.6l7.4,2.3l-5.5-4.1l5.6,1.7l-4.3-2.7l5.4,2.1l-5.1-3.6l4.8,2.4l-4.1-3l5.4,2.9
		l-1-0.9l10.2,6.2c0.9,0.5,0.3,3.1-1.2,5.6c-1.5,2.6-3.5,4.2-4.4,3.7l-10.4-6.3L342.8,162.1z"/>
	<path class="st1" d="M325,162.6l-11.5,0.7c-0.3-0.1-0.5-0.3-0.5-0.6l-1.9,0.1c-0.3,0-0.6-0.6-0.7-1.4s0.2-1.4,0.5-1.5l1.9-0.1
		c0-0.3,0.2-0.6,0.5-0.7l11.5-0.7c0.7-2.1,2.6-3.5,4.8-3.7l13.3-0.8l1.4,0.2l-6.1,0.7l5.1,0.2l-5.3,0.8l6.3,0.1l-5.6,1.3l5.1-0.3
		l-5.6,1.8l6.8,0.3l-7.4,2.2l10.1,1l-7.6,1.4l3.2,1.2l-13,0.8C328,165.9,325.9,164.7,325,162.6z"/>
</g>
<g class="st0">
	<path class="st1" d="M654.5,375.1L662,353c0.1-0.4-0.1-0.8-0.5-0.9c-0.1,0-0.2,0-0.3,0l-2.8,0.5c-0.8,0.1-1.4,0.7-1.6,1.4
		l-6.6,19.6L654.5,375.1z"/>
	<path class="st1" d="M654.5,375.1l-7.4,22.1c-0.1,0.4-0.5,0.6-0.9,0.4c-0.1,0-0.2-0.1-0.3-0.2l-2-2.1c-0.5-0.6-0.7-1.4-0.5-2.1
		l6.6-19.6L654.5,375.1z"/>
	<path class="st1" d="M648.2,393.1l0.1-0.2l1-3.1l0.3-0.9l1-3.1l0.1-0.2l1-3.1l0.3-0.9l1-3.1l0.1-0.2l1-3.1l0.3-0.9l1-3.1l0.1-0.2
		l1-3.1l0.3-0.9l1-3.1l0.1-0.2l1-3.1l0.3-0.9l1-3.1l0.1-0.2l1.3-3.9l2.8,1.8l0.3,0.2l0,0c1.1,1,1.5,2.5,0.9,3.9
		c-0.4,1.6-1.9,2.6-3.5,2.5l0,0c-0.2,0-0.3,0.1-0.3,0.3c0,0.1,0,0.2,0.1,0.3l0.1,0.1l0.3,0.2l0,0c1.1,1,1.5,2.5,0.9,3.9
		c-0.4,1.6-1.9,2.6-3.5,2.5l0,0c-0.2,0-0.3,0.1-0.3,0.3c0,0.1,0,0.2,0.1,0.3l0.1,0.1l0.3,0.2l0,0c1.1,1,1.5,2.5,0.9,3.9
		c-0.4,1.6-1.9,2.6-3.5,2.5l0,0c-0.2,0-0.3,0.1-0.3,0.3c0,0.1,0,0.2,0.1,0.3l0.1,0.1l0.3,0.2l0,0c1.1,1,1.5,2.5,0.9,3.9
		c-0.4,1.6-1.9,2.6-3.5,2.5l0,0c-0.2,0-0.3,0.1-0.3,0.3c0,0.1,0,0.2,0.1,0.3l0.1,0.1l0.3,0.2l0,0c1.1,1,1.5,2.5,0.9,3.9
		c-0.4,1.6-1.9,2.6-3.5,2.5l0,0c-0.2,0-0.3,0.1-0.3,0.3c0,0.1,0,0.2,0.1,0.3l0.1,0.1l0.3,0.2l0,0c1.1,1,1.5,2.5,0.9,3.9
		c-0.4,1.6-1.9,2.6-3.5,2.5l-3.2-0.3L648.2,393.1z"/>
</g>
<path class="st2" d="M220.8,141.5l0.2,4.7c0.1,2.2,1.3,4.2,3.2,5.2l6,3.4c0.3,0.2,0.5,0.5,0.5,0.9v0.6h-0.5l0,2.3l6.8-0.2l0-2.3
	h-0.5v-0.6c0-0.4,0.2-0.7,0.5-0.9l4.8-2.3c0.8-0.4,1.5-1.2,1.6-2.1l1.7-9.4L220.8,141.5z M238.6,148.7c0.1-0.9,0.5-7.5,2.5-7.3
	s0.9,6.7,0.8,7.6c-0.2,0.9-1,1.5-1.9,1.3C239.2,150.3,238.6,149.5,238.6,148.7L238.6,148.7z"/>
<g class="st0">
	<path class="st1" d="M720.3,350.7l16.2,16.8c0.3,0.3,0.7,0.3,1,0c0.1-0.1,0.1-0.2,0.2-0.3l0.9-2.7c0.2-0.7,0.1-1.5-0.5-2.1
		l-14.4-14.9L720.3,350.7z"/>
	<path class="st1" d="M720.3,350.7l-16.2-16.8c-0.3-0.3-0.3-0.7,0-1c0.1-0.1,0.2-0.1,0.3-0.2l2.8-0.8c0.7-0.2,1.5,0,2.1,0.6
		l14.4,14.9L720.3,350.7z"/>
	<path class="st1" d="M707.2,336.8l0.2,0.2l2.2,2.3l0.6,0.7l2.2,2.3l0.2,0.2l2.2,2.3l0.6,0.7l2.2,2.3l0.2,0.2l2.2,2.3l0.6,0.7
		l2.2,2.3l0.2,0.2l2.2,2.3l0.6,0.7l2.2,2.3l0.2,0.2l2.2,2.3l0.6,0.7l2.2,2.3l0.2,0.2l2.9,3l-2.9,1.7l-0.3,0.2l0,0
		c-1.4,0.5-2.9,0.1-3.9-1c-1.2-1.1-1.5-2.9-0.6-4.3l0,0c0.1-0.2,0-0.3-0.1-0.4c-0.1-0.1-0.2-0.1-0.3,0l-0.1,0.1l-0.3,0.2l0,0
		c-1.4,0.5-2.9,0.1-3.9-1c-1.2-1.1-1.5-2.9-0.6-4.3l0,0c0.1-0.2,0-0.3-0.1-0.4c-0.1-0.1-0.2-0.1-0.3,0l-0.1,0.1l-0.3,0.2l0,0
		c-1.4,0.5-2.9,0.1-3.9-1c-1.2-1.1-1.5-2.9-0.6-4.3l0,0c0.1-0.2,0-0.3-0.1-0.4c-0.1-0.1-0.2-0.1-0.3,0l-0.1,0.1l-0.3,0.2l0,0
		c-1.4,0.5-2.9,0.1-3.9-1c-1.2-1.1-1.5-2.9-0.6-4.3l0,0c0.1-0.2,0-0.3-0.1-0.4c-0.1-0.1-0.2-0.1-0.3,0l-0.1,0.1l-0.3,0.2l0,0
		c-1.4,0.5-2.9,0.1-3.9-1c-1.2-1.1-1.5-2.9-0.6-4.3l0,0c0.1-0.2,0-0.3-0.1-0.4c-0.1-0.1-0.2-0.1-0.3,0l-0.1,0.1l-0.3,0.2l0,0
		c-1.4,0.5-2.9,0.1-3.9-1c-1.2-1.1-1.5-2.9-0.6-4.3l1.7-2.7L707.2,336.8z"/>
</g>
<path class="st2" d="M54.2,100.6l-0.1,0.9c-0.3,2,2.7,4.1,6.7,4.6s7.5-0.6,7.7-2.6l0.1-0.9c0.3-2-2.7-4.1-6.7-4.6
	S54.5,98.6,54.2,100.6z M61.2,102l-1-0.8l0.2-0.1l1,0.8l1.2-0.4l0.2,0.1l-1.2,0.4l1,0.8l-0.2,0.1l-1-0.8l-1.2,0.4l-0.2-0.1L61.2,102
	z"/>
<path class="st3" d="M533.2,226.4l1.3,4.5c0.6,2.1,2.2,3.8,4.3,4.4l6.6,1.9c0.4,0.1,0.6,0.4,0.7,0.8l0.2,0.6l-0.4,0.1l0.6,2.2
	l6.6-1.7l-0.6-2.2l-0.4,0.1l-0.2-0.6c-0.1-0.4,0-0.7,0.3-1l4.2-3.3c0.7-0.6,1.1-1.5,1.1-2.4l-0.4-9.5L533.2,226.4z M552.2,229.4
	c-0.1-0.9-1.3-7.4,0.8-7.6s2.4,6.4,2.5,7.3c0.1,0.9-0.5,1.7-1.5,1.8C553.1,231,552.3,230.3,552.2,229.4L552.2,229.4z"/>
<path class="st3" d="M448.5,269.1c0.1-0.7,0.1-1.4,0-2.1l-2.9-13l-0.5-1.3l1,6l-1.5-4.8l0.7,5.3l-1.8-6l0.3,5.8l-1.1-5l-0.2,5.9
	l-2.1-6.5l-0.1,7.7l-3.8-9.5l0.8,7.7l-2-2.7l2.8,12.7l3.1,0.8l3.2-2.1l2,4.6L448.5,269.1z"/>
</svg>
