<?xml version="1.0" encoding="utf-8"?>
<!-- Generator: Adobe Illustrator 19.2.1, SVG Export Plug-In . SVG Version: 6.00 Build 0)  -->
<svg version="1.1" id="Layer_1" xmlns="http://www.w3.org/2000/svg" xmlns:xlink="http://www.w3.org/1999/xlink" x="0px" y="0px"
	 viewBox="0 0 801.8 795.7" style="enable-background:new 0 0 801.8 795.7;" xml:space="preserve">
<style type="text/css">
	.st0{opacity:0.5;fill:#FFFFFF;enable-background:new    ;}
	.st1{opacity:0.5;}
	.st2{fill:#FFFFFF;}
	.st3{fill:#F79520;}
	.st4{fill:#F15A2B;}
</style>
<title>cluster3</title>
<path class="st0" d="M225.3,363.6l13.2,0.7l23.2,1.3c3,0.2,5.7-2.2,5.8-5.2l1-17.7c0.2-3-2.2-5.7-5.2-5.8l-23.2-1.3l-13.2-0.7
	c-2.4-0.1-4.5,1.7-4.7,4.2c0,0.1,0,0.2,0,0.3c0.1,2.4,2,4.3,4.3,4.4l11.7,0.6l-0.6,11.1l-11.7-0.6c-2.4-0.2-4.4,1.5-4.8,3.9
	c-0.3,2.4,1.4,4.6,3.9,4.9C225.1,363.6,225.2,363.6,225.3,363.6z M239.8,340L239.8,340c-0.1,1.2-1.1,2.2-2.3,2.1c0,0,0,0,0,0
	l-10.9-0.6c-1.2-0.1-2.2-1.1-2.1-2.3c0,0,0-0.1,0-0.1c0.2-1.2,1.2-2.1,2.4-2l10.8,0.6C239,337.7,239.9,338.7,239.8,340
	C239.8,340,239.8,340,239.8,340L239.8,340z M238.8,360L238.8,360c-0.1,1.2-1.1,2.2-2.3,2.1c0,0,0,0,0,0l-10.9-0.6
	c-1.2-0.1-2.2-1.1-2.1-2.3c0,0,0-0.1,0-0.1c0.2-1.2,1.2-2.1,2.4-2l10.8,0.6C237.9,357.7,238.8,358.7,238.8,360L238.8,360z"/>
<path class="st0" d="M649,521.3c1.2-3.8,3.7-6.5,5.7-5.9c0.1,0,0.3,0.1,0.4,0.2l1.8,0.8l-0.9,7.1l4.9-1l3.7,5.9l-0.2-6.1l2.9,0.5
	l-0.7-2.1l2.9,1.3c1.4,0.5,1.9,3.2,1,6s-2.8,4.9-4.2,4.4l-15.5-3c-0.1,0-0.3,0-0.4-0.1C648.4,528.7,647.9,525.1,649,521.3z"/>
<g class="st1">
	<path class="st2" d="M404.4,500l4.5-24.2l9.4,1.5c1.4,0.2,2.7,0.7,4,1.3l1.1,0.5c1.2,0.6,2.1,1.8,2.2,3.2l0.5,4.5
		c0.2,1.6-0.6,3.2-2,4.1c-0.3,0.2-0.3,0.5-0.1,0.8c0,0,0,0,0,0c1,1.3,1.1,3.1,0.3,4.5l-2.1,4c-0.6,1.2-1.8,2-3.2,2.2l-1.2,0.1
		c-3.1-0.2-6.1-0.6-9.1-1.1c-0.4-0.1-0.8-0.2-1.1-0.3L404.4,500z"/>
	<path class="st2" d="M412,477.3l-3.4-3.2c-1.6-1.5-3.9-2.1-6-1.5l-6.6,1.8c-0.4,0.1-0.7,0-1-0.3l-0.4-0.4l0.3-0.3l-1.6-1.6
		l-4.8,4.9l1.6,1.6l0.3-0.3l0.4,0.4c0.3,0.3,0.4,0.6,0.3,1l-1.9,5c-0.3,0.9-0.2,1.9,0.3,2.6l5.3,7.9L412,477.3z M394.2,484.7
		c0.6,0.7,4.9,5.7,3.3,7s-5.3-4.2-5.9-4.9c-0.6-0.7-0.5-1.8,0.3-2.3S393.6,483.9,394.2,484.7L394.2,484.7z"/>
	<polygon class="st2" points="404.4,500 400.9,493.6 394.8,494.9 410.7,477.7 410.2,486.3 	"/>
</g>
<path class="st3" d="M558.4,658l7.6-1.4l-10.1-1l7.4-2.2l-6.8-0.3l5.6-1.8l-5.1,0.3l5.6-1.3l-6.3-0.1l5.3-0.8l-5.1-0.2l6.1-0.7
	l-1.4-0.2l11.9-0.7c1-0.1,2,2.3,2.2,5.3s-0.5,5.5-1.5,5.5l-12.2,0.7L558.4,658z"/>
<path class="st3" d="M544,668.6l-9.1,7.1c-0.3,0.1-0.6,0-0.8-0.2l-1.5,1.2c-0.2,0.2-0.8-0.1-1.3-0.8s-0.7-1.3-0.4-1.5l1.5-1.2
	c-0.2-0.2-0.2-0.6,0-0.8l9.1-7.1c-0.6-2.1,0.1-4.4,1.9-5.8l10.5-8.2l1.2-0.6l-4.6,4l4.3-2.7l-3.9,3.7l5.2-3.5l-3.9,4.3l4-3.2
	l-3.6,4.6l5.8-3.6l-4.8,6l8.9-4.9l-5.4,5.5l3.3-0.8l-10.3,8C548.3,669.5,545.9,669.6,544,668.6z"/>
<path class="st3" d="M597.8,761l4.6,10.2l6.5-0.2l2.3,6.9l3.6,6.3c0,0-0.7,3.3,0.4,4s8.3,1.5,8.3,1.5l13.7,5.9l2.6-2.2l-1.1-9.5
	l0.7-8.1l-2-3.9l3.5-4.2l-0.9-8.4l6.7-6.8l-2.2-5l-7.4,0.8l-6.7,3l-1,4.8l-4.5,6.6c0,0-3.2,0.6-4.5,0.8s-10-1.4-10-1.4l-4.3,0.5
	L597.8,761z M631.7,761l2.5-3.6l-0.5-4.3l5.6-0.6l2.8-2l0.3,2.5l-4.3,3l-0.7,4.2l0.6,4.9l-2.7,1.4L631.7,761z M601.3,764.4l6,0.4
	l4-0.5l-1.2,3.4l-4.9,1.9L601.3,764.4z"/>
<path class="st3" d="M468.9,696.2l7-3.2l-7.8,6.6l7.4-2.3l-5.5,4.1l5.6-1.7l-4.4,2.7l5.4-2.1l-5.1,3.7l4.8-2.3l-4.1,3l5.4-2.9
	l-1,0.9l10.2-6.2c0.9-0.5,0.3-3-1.2-5.6s-3.5-4.2-4.4-3.7l-10.4,6.3L468.9,696.2z"/>
<path class="st3" d="M451.1,695.7l-11.5-0.7c-0.3,0.1-0.5,0.3-0.5,0.6l-1.9-0.1c-0.3,0-0.6,0.6-0.7,1.4s0.2,1.4,0.5,1.5l1.9,0.1
	c0,0.3,0.2,0.6,0.5,0.7l11.5,0.7c0.7,2.1,2.6,3.5,4.8,3.7l13.3,0.8l1.4-0.2l-6.1-0.7l5.1-0.2l-5.3-0.8l6.3-0.1l-5.6-1.3l5.1,0.3
	l-5.6-1.8l6.8-0.3l-7.4-2.2l10.1-1l-7.6-1.4l3.2-1.2l-13-0.8C454.2,692.4,452.1,693.7,451.1,695.7z"/>
<path class="st3" d="M677,266l1.2-0.7l-0.3-0.5l2.3-1.4l2.5,4.1l-2.3,1.4l-0.3-0.5l-1.2,0.7c0.3,1.9-0.6,3.8-2.2,4.8l-8.4,5.1
	l-4.9-8.1l8.4-5.1C673.4,264.7,675.5,264.8,677,266z"/>
<path class="st3" d="M672.6,273l-3,12.3l0,0c-0.4,1.4-1.8,2.3-3.2,1.9c-0.3-0.1-0.6-0.2-0.8-0.4c-0.7-0.5-1.6-0.7-2.4-0.6
	c-1.4,0.1-2.7-0.9-2.9-2.3c0-0.3,0-0.6,0.1-0.9l0,0l3-12.3L672.6,273z"/>
<ellipse transform="matrix(0.3065 -0.9519 0.9519 0.3065 66.7196 1114.6776)" class="st3" cx="798.4" cy="511.5" rx="2.2" ry="2.2"/>
<ellipse transform="matrix(0.3065 -0.9519 0.9519 0.3065 69.1565 1113.8719)" class="st3" cx="799" cy="509.5" rx="2.2" ry="2.2"/>
<path class="st3" d="M798.4,509.8c-0.8-0.2-1.5-0.9-1.7-1.7l0,0c-0.7,0.5-1.6,0.6-2.4,0.4c-1.3-0.5-2-1.9-1.7-3.2
	c0.4-1.4,1.9-2.2,3.3-1.8c0.3,0.1,0.6,0.2,0.9,0.4c0.7,0.5,1.5,0.8,2.4,0.8c1.4,0,2.7,1.1,2.7,2.5c0,0.3,0,0.7-0.1,1
	C801.2,509.5,799.8,510.2,798.4,509.8z"/>
<ellipse transform="matrix(0.3065 -0.9519 0.9519 0.3065 67.2614 1108.1372)" class="st3" cx="794.1" cy="507.9" rx="2.2" ry="2.2"/>
<path class="st3" d="M391.9,667.8l-1.1,2l3.3,0.3l-1.7,2.4l1.6,0.1l-0.8,1.5l2-0.7l-0.8,1.9h0.1l-5.8,2.7c-1.1,0.5-2.9-0.8-3.9-3
	s-1-4.4,0.1-4.9l5.5-2.7L391.9,667.8z"/>
<path class="st3" d="M412,661.5l0.9-0.4c0.1-0.2,0.2-0.3,0.3-0.4c0.5-0.2,1.3,0.3,1.7,1.2s0.4,1.9-0.1,2.1c-0.2,0.1-0.3,0.1-0.5,0
	l-1.3,0.6c-3,1.5-5.6,3.6-7.6,6.2c-0.4,0.5-0.9,0.9-1.5,1.2l0,0l-7,3.3h-0.1l0.8-1.9l-2,0.7l0.8-1.5l-1.6-0.1l1.7-2.4l-3.3-0.3
	l1.1-2l-1.5-0.3l7.2-3.5c0.6-0.3,1.2-0.4,1.8-0.4C405.4,663.7,408.8,663,412,661.5z"/>
<path class="st3" d="M337.6,236.4L337.6,236.4c0.1,0.3-0.1,0.6-0.4,0.7l-36.4,9.4c-0.3,0.1-0.6-0.1-0.7-0.4l0,0
	c-0.1-0.3,0.1-0.6,0.4-0.7l36.4-9.4C337.2,235.9,337.5,236.1,337.6,236.4z"/>
<g class="st1">
	<path class="st2" d="M371.4,585.1c9.1,14.3,28.1,18.4,42.4,9.3c0.4-0.3,0.8-0.5,1.2-0.8c14.3-10.1,18-30.4,8.2-45.2
		c-9.1-14.3-28.1-18.4-42.4-9.3c-0.4,0.3-0.8,0.5-1.2,0.8C365.3,550,361.6,570.3,371.4,585.1z M376.4,581.5
		c-7.9-12-4.9-28.3,6.6-36.4c11.1-7.9,26.6-5.3,34.5,5.8c0.2,0.3,0.5,0.7,0.7,1c7.9,12,4.9,28.3-6.6,36.4
		c-11.1,7.9-26.6,5.3-34.5-5.8C376.9,582.2,376.6,581.9,376.4,581.5L376.4,581.5z"/>
	<polygon class="st2" points="382,544.3 382.7,543.8 412.6,589.2 411.9,589.7 	"/>
	<polygon class="st2" points="375.7,582.6 375.2,581.9 418.9,550.9 419.4,551.6 	"/>
	<polygon class="st2" points="371.2,562.1 371.3,561.3 423.4,571.4 423.3,572.2 	"/>
	<polygon class="st2" points="392.8,593.8 392,593.7 401.8,539.7 402.6,539.8 	"/>
	<polygon class="st2" points="374.9,552 375.4,551.3 419.7,581.5 419.2,582.2 	"/>
	<polygon class="st2" points="383.1,589.9 382.4,589.5 411.5,543.6 412.2,544 	"/>
	<polygon class="st2" points="371.4,572.7 371.3,571.9 423.2,560.8 423.3,561.6 	"/>
	<polygon class="st2" points="403.1,593.6 402.2,593.7 391.5,539.9 392.4,539.8 	"/>
	<polygon class="st2" points="378.1,547.8 378.7,547.2 416.5,585.7 416,586.3 	"/>
	<polygon class="st2" points="379.1,586.7 378.5,586.1 415.5,546.8 416.1,547.4 	"/>
	
		<rect x="370.8" y="566.3" transform="matrix(0.9999 -1.047176e-02 1.047176e-02 0.9999 -5.913 4.1916)" class="st2" width="53" height="0.9"/>
	
		<rect x="396.8" y="539.3" transform="matrix(0.9999 -1.116988e-02 1.116988e-02 0.9999 -6.3061 4.4727)" class="st2" width="0.8" height="54.9"/>
	<polygon class="st2" points="372.6,556.8 372.9,556 422,576.7 421.7,577.5 	"/>
	<polygon class="st2" points="387.7,592.4 387,592 406.9,541.1 407.7,541.5 	"/>
	<polygon class="st2" points="373.1,577.8 372.7,577 421.5,555.7 421.9,556.5 	"/>
	<polygon class="st2" points="408,591.9 407.2,592.2 386.6,541.6 387.4,541.3 	"/>
	<path class="st2" d="M389.3,572.5c2.8,4.4,8.7,5.7,13.2,2.9c0.1-0.1,0.3-0.2,0.4-0.3c4.4-3.2,5.6-9.4,2.5-14
		c-2.8-4.4-8.7-5.7-13.2-2.9c-0.1,0.1-0.3,0.2-0.4,0.3C387.4,561.7,386.2,567.8,389.3,572.5z M391.6,570.8c-2.1-3.3-1.4-7.6,1.8-9.9
		c3-2.2,7.2-1.4,9.4,1.6c0.1,0.1,0.1,0.2,0.2,0.3c2.1,3.3,1.4,7.6-1.8,9.9c-3,2.2-7.2,1.4-9.4-1.6
		C391.7,571,391.7,570.9,391.6,570.8L391.6,570.8z"/>
</g>
<path class="st0" d="M285.9,539l13.2,0.7l23.2,1.3c3,0.2,5.7-2.2,5.8-5.2l1-17.7c0.2-3-2.2-5.7-5.2-5.8l-23.2-1.3l-13.2-0.7
	c-2.4-0.1-4.5,1.7-4.7,4.2c0,0.1,0,0.2,0,0.3c0.1,2.4,2,4.3,4.3,4.4l11.7,0.6l-0.6,11.1l-11.7-0.6c-2.4-0.2-4.4,1.5-4.8,3.9
	c-0.3,2.4,1.4,4.6,3.9,4.9C285.7,539,285.8,539,285.9,539z M300.4,515.3L300.4,515.3c-0.1,1.2-1.1,2.2-2.3,2.1c0,0,0,0,0,0
	l-10.9-0.6c-1.2-0.1-2.2-1.1-2.1-2.3c0,0,0-0.1,0-0.1c0.2-1.2,1.2-2.1,2.5-2l10.8,0.6C299.6,513,300.5,514.1,300.4,515.3
	C300.4,515.3,300.4,515.3,300.4,515.3L300.4,515.3z M299.4,535.3L299.4,535.3c-0.1,1.2-1.1,2.2-2.3,2.1c0,0,0,0,0,0l-10.9-0.6
	c-1.2-0.1-2.2-1.1-2.1-2.3c0,0,0-0.1,0-0.1c0.2-1.2,1.2-2.1,2.5-2l10.8,0.6C298.5,533,299.4,534.1,299.4,535.3L299.4,535.3z"/>
<path class="st0" d="M251.5,294.4c-5.6-2.6,0.6-1.8-0.9-8.6c-0.6-2.8-5.2-6.5-8.1-4.4c-1.8,1.3-3.4,2.9-4.6,4.7
	c-0.5-1.1-1.7-1.7-2.9-1.2c-0.3,0.1-0.5,0.3-0.7,0.4c-2.3,1.8-4.5,6.3-4.5,6.3s-4.7-1-5.1,0.2s0,3.9,1.3,6.4s-0.9,8,2,9.7
	s6.3,1.3,7,0.6s3.7,2.6,6.4,1.2c2.4-1.2,4-2.4,4.3-3.6c0.1-0.2,0.1-0.4,0.1-0.5c0-1.3,2.9,3.8,5.8,2.8S257.1,296.9,251.5,294.4z
	 M229.9,295c1.9,2.1,2.6,2,1.6,3.4c0,0-3.7,1.1-4.3-0.1s-2.9-4.7-2.1-5.5S228,293,229.9,295L229.9,295z M237,287.5
	c1.3,2.3,4.3,6.4,0.3,8.9c-1.3,0.8-3.6,1.4-3.9,0.5s-1.3-2.3-1.8-3.6s1.7-3.9,2.1-4.2S235.7,285.2,237,287.5z M243.6,294.3
	c-2.1,1-3-3.1-4.1-5.4s1.6-3.7,1.9-5s3.7-0.1,5.5,0s0.8,3.7,0.8,3.7C248.4,291.3,245.7,293.2,243.6,294.3z M232.1,301.8
	c1.6,0.8,2.1,3.2,2.1,5.6s-3.9,0.1-5.9-1.2s-0.8-4-0.2-4.4C229.4,301.2,230.9,301.2,232.1,301.8L232.1,301.8z M237.3,299.3
	c1.1-0.4,2.1,0,3.2,0.1s2.1,3,3,5c0.8,1.8-1,3.1-2.7,4s-3.1-1-3.9-1.4s-2.4-3.2-2.6-5.2S236.2,299.7,237.3,299.3L237.3,299.3z
	 M248.5,306c-0.9-0.5-3.8-3.8-5.5-7.5s2.5-1.2,3.8-1.9s4.7,1.1,5.3,2.9c0,0,0.4,3,0.6,4.5S249.4,306.5,248.5,306z"/>
<path class="st0" d="M463.6,745.3c-2.1,2.9-1.4,6.9,1.5,9c2.2,1.5,5.1,1.6,7.3,0.1c-0.9,3.5,1.2,7,4.7,7.8c1.8,0.4,3.6,0.1,5.1-0.9
	c-0.9,3.5,1.2,7,4.7,7.8c3.5,0.9,7-1.2,7.8-4.7c0.4-1.7,0.1-3.5-0.8-5c3.5,0.8,6.9-1.4,7.8-4.8c0.8-3.5-1.4-6.9-4.8-7.8
	c-1.7-0.4-3.5-0.1-5,0.9c0.9-3.5-1.2-7-4.7-7.8c-1.8-0.4-3.6-0.1-5.1,0.9c0.9-3.5-1.2-7-4.7-7.8c-3.5-0.9-7,1.2-7.8,4.7
	c-0.4,1.7-0.1,3.5,0.8,5C467.7,742.2,465.1,743.2,463.6,745.3z M479.8,742.2c-1.6,2.3-4.7,2.8-7,1.2c-2.3-1.6-2.8-4.7-1.2-7
	c1.6-2.3,4.7-2.8,7-1.2c0,0,0,0,0.1,0C480.8,736.8,481.4,739.9,479.8,742.2L479.8,742.2z M489.6,749.1c-1.6,2.3-4.7,2.8-7,1.2
	c-2.3-1.6-2.8-4.7-1.2-7c1.6-2.3,4.7-2.8,7-1.2c0,0,0,0,0.1,0C490.7,743.8,491.2,746.9,489.6,749.1z M492.5,757.2
	c-2.3-1.6-2.8-4.7-1.2-7s4.7-2.8,7-1.2c2.3,1.6,2.8,4.7,1.2,7c0,0,0,0,0,0.1C497.9,758.3,494.8,758.8,492.5,757.2z M484.4,760
	c1.6-2.3,4.7-2.8,7-1.2c2.3,1.6,2.8,4.7,1.2,7c-1.6,2.3-4.7,2.8-7,1.2c0,0,0,0-0.1,0C483.4,765.4,482.9,762.3,484.4,760z
	 M474.6,753.1c1.6-2.3,4.7-2.8,7-1.2c2.3,1.6,2.8,4.7,1.2,7c-1.6,2.3-4.7,2.8-7,1.2c0,0,0,0-0.1,0
	C473.6,758.4,473.1,755.4,474.6,753.1L474.6,753.1z M464.8,746.1c1.6-2.3,4.7-2.8,7-1.2c2.3,1.6,2.8,4.7,1.2,7
	c-1.6,2.3-4.7,2.8-7,1.2c0,0,0,0-0.1,0C463.8,751.5,463.3,748.4,464.8,746.1L464.8,746.1z"/>
<g class="st1">
	<circle class="st2" cx="431" cy="231.1" r="5.4"/>
	<ellipse class="st2" cx="456.2" cy="231.1" rx="1.9" ry="5.4"/>
	<ellipse class="st2" cx="414.4" cy="231.1" rx="0.7" ry="2.1"/>
	<rect x="431" y="225.7" class="st2" width="25.2" height="10.9"/>
	<rect x="414.4" y="229" class="st2" width="13.6" height="4.1"/>
	<ellipse class="st2" cx="412" cy="231.1" rx="0.6" ry="1.4"/>
	<rect x="412" y="229.7" class="st2" width="9.4" height="2.8"/>
</g>
<g class="st1">
	<path class="st2" d="M165.4,627.1l22.8-9.2l-3.4-8.9c-0.5-1.3-1.2-2.5-2.1-3.6l-0.7-0.9c-0.9-1.1-2.2-1.7-3.6-1.5l-4.6,0.4
		c-1.6,0.1-3.1,1.2-3.7,2.7c-0.1,0.3-0.4,0.4-0.7,0.3c0,0,0,0,0,0c-1.5-0.7-3.2-0.4-4.5,0.6l-3.5,2.9c-1.1,0.9-1.6,2.2-1.5,3.6
		l0.1,1.2c0.8,3,1.8,5.9,2.9,8.7c0.1,0.4,0.3,0.7,0.6,1L165.4,627.1z"/>
	<path class="st2" d="M172.2,635.5l8.8,3.6c0.9,0.4,1.9,0.3,2.6-0.2l4.6-2.8c0.3-0.2,0.7-0.1,1.1,0.1l0.5,0.3l-0.3,0.4l1.9,1.3
		l3.9-5.7l-1.9-1.3l-0.3,0.4l-0.5-0.3c-0.3-0.2-0.5-0.6-0.5-1l0.4-6.9c0.1-2.2-0.9-4.3-2.7-5.6l-3.9-2.7L172.2,635.5z M183.2,636.3
		c-0.4,0.8-1.4,1.1-2.2,0.7c-0.8-0.4-6.9-2.9-6-4.8s6.6,1.4,7.5,1.8C183.3,634.5,183.6,635.5,183.2,636.3
		C183.2,636.3,183.2,636.3,183.2,636.3L183.2,636.3z"/>
	<polygon class="st2" points="165.4,627.1 172.3,629.3 172.2,635.5 186,616.5 177.7,618.7 	"/>
</g>
<g class="st1">
	<path class="st2" d="M559.2,98.9l16.5,8.6c0.3,0.1,0.6,0,0.8-0.2c0-0.1,0.1-0.2,0.1-0.3v-2.3c0-0.6-0.3-1.2-0.9-1.5L561,95.6
		L559.2,98.9z"/>
	<path class="st2" d="M559.2,98.9l-16.5-8.6c-0.3-0.1-0.4-0.5-0.3-0.7c0-0.1,0.1-0.2,0.2-0.3l1.9-1.3c0.5-0.3,1.2-0.4,1.7-0.1
		l14.7,7.7L559.2,98.9z"/>
	<path class="st2" d="M576.6,107.1l2.3-4.4c0,0,1.1-2-2.1-3.6l-27.9-13.8l-4.5,4.3L576.6,107.1z"/>
</g>
<g class="st1">
	
		<ellipse transform="matrix(0.4319 -0.9019 0.9019 0.4319 -37.5831 961.0092)" class="st2" cx="744.1" cy="510.3" rx="4.8" ry="4.8"/>
	<path class="st2" d="M730,500.9c-1.8,0.6-2.8,2.4-2.2,4.2c0,0.1,0.1,0.2,0.1,0.2c-0.8,1.2-2.4,1.6-3.6,0.9
		c-1.2-0.8-1.6-2.4-0.9-3.6c0.1-0.2,0.3-0.4,0.5-0.6c0.6-0.6,1-1.4,1.1-2.2c0.1-1.4,1.3-2.6,2.8-2.5c1.4,0.1,2.6,1.3,2.5,2.8
		C730.2,500.4,730.1,500.7,730,500.9z"/>
	
		<rect x="730.6" y="496.5" transform="matrix(0.4319 -0.9019 0.9019 0.4319 -38.7703 950.7392)" class="st2" width="9.5" height="19.4"/>
	
		<rect x="746.6" y="510.2" transform="matrix(0.4319 -0.9019 0.9019 0.4319 -36.9984 966.0236)" class="st2" width="3.6" height="4.3"/>
	
		<rect x="748.2" y="512.1" transform="matrix(0.4319 -0.9019 0.9019 0.4319 -36.7057 968.5879)" class="st2" width="4.8" height="2.7"/>
</g>
<path class="st0" d="M67.4,440l-15.6-19l-7.4,5.9c-1.1,0.9-2.1,1.9-2.8,3l-0.7,1c-0.8,1.1-0.9,2.6-0.4,3.9l1.7,4.3
	c0.6,1.5,2,2.6,3.7,2.7c0.3,0,0.5,0.3,0.5,0.6c0,0,0,0,0,0c-0.2,1.6,0.6,3.2,1.9,4.1l3.8,2.5c1.2,0.8,2.6,0.9,3.9,0.3l1.1-0.5
	c2.6-1.6,5.1-3.4,7.4-5.4c0.3-0.2,0.6-0.5,0.8-0.8L67.4,440z"/>
<path class="st0" d="M330,537c-0.4,1.8-3.7,2.7-6.1,2.1c-1.5-0.2-2.7-1.4-2.8-2.9l-6.8-1.6l0.5-2.4l6.8,1.6c0.7-1.3,2.3-1.9,3.7-1.4
	C327.9,533,330.4,535.1,330,537z"/>
<path class="st3" d="M128.9,567.9l4.6,10.2l6.5-0.2l2.3,6.9l3.6,6.3c0,0-0.7,3.3,0.4,4s8.3,1.5,8.3,1.5l13.7,5.9l2.6-2.2l-1.1-9.5
	l0.6-8.1l-2-3.9l3.5-4.2l-0.9-8.4l6.7-6.8l-2.2-5l-7.4,0.8l-6.7,3l-1,4.8l-4.5,6.6c0,0-3.2,0.6-4.5,0.8s-10-1.4-10-1.4l-4.3,0.5
	L128.9,567.9z M162.8,568l2.6-3.6l-0.5-4.4l5.6-0.6l2.8-2l0.3,2.5l-4.4,3l-0.7,4.2l0.5,4.9l-2.7,1.4L162.8,568z M132.3,571.4l6,0.4
	l4-0.5l-1.2,3.4l-4.9,1.9L132.3,571.4z"/>
<path class="st4" d="M401.1,366.2l-0.1-0.1l-2-1.5l-0.6-0.5l-2-1.5l-0.1-0.1l-2.1-1.6l-0.6-0.5l-2-1.5l-0.1-0.1l-2-1.5l-0.6-0.5
	l-2-1.5l-0.1-0.1l-2-1.5l-0.6-0.5l-2-1.5l-0.1-0.1l-2-1.5l-0.6-0.5l-2-1.5l-0.1-0.1l-2.6-2l2.1-1.7l0.2-0.2l0,0
	c1-0.6,2.3-0.5,3.2,0.3c1.1,0.7,1.5,2.1,1,3.3l0,0c-0.1,0.1,0,0.3,0.1,0.3c0.1,0,0.2,0,0.3,0l0.1-0.1l0.2-0.2l0,0
	c1-0.6,2.3-0.5,3.2,0.3c1.1,0.7,1.5,2.1,1,3.3l0,0c-0.1,0.1,0,0.3,0.1,0.3c0.1,0,0.2,0,0.3,0l0.1-0.1l0.2-0.2l0,0
	c1-0.6,2.3-0.5,3.2,0.3c1.1,0.7,1.5,2.1,1,3.3l0,0c-0.1,0.1,0,0.3,0.1,0.3c0.1,0,0.2,0,0.3,0l0.1-0.1l0.2-0.2l0,0
	c1-0.6,2.3-0.5,3.2,0.3c1.1,0.7,1.5,2.1,1,3.3l0,0c-0.1,0.1,0,0.3,0.1,0.3c0.1,0,0.2,0,0.3,0l0.1-0.1l0.2-0.2l0,0
	c1-0.6,2.3-0.5,3.2,0.3c1.1,0.7,1.5,2.1,1,3.3l0,0c-0.1,0.1,0,0.3,0.1,0.3c0.1,0,0.2,0,0.3,0l0.1-0.1l0.2-0.2l0,0
	c1-0.6,2.3-0.5,3.2,0.3c1.1,0.7,1.5,2.1,1,3.3l-1,2.4L401.1,366.2z"/>
<polyline class="st4" points="374.1,345.8 375.3,354.3 398.4,368.8 403.7,368.2 "/>
<path class="st4" d="M450.9,371.3c-1.9,3-1,7,2,8.9s7,1,8.9-2c1-1.5,1.3-3.3,0.8-5c3,2,7,1.1,9-1.8c1-1.5,1.3-3.4,0.9-5.1
	c3,2,7,1.2,9-1.8c2-3,1.2-7-1.8-9c-1.5-1-3.3-1.3-5-0.9c1.9-3,1-7-2-8.9s-7-1-8.9,2c-1,1.5-1.3,3.3-0.8,5c-3-2-7-1.1-9,1.8
	c-1,1.5-1.3,3.4-0.9,5.1c-3-2-7-1.2-9,1.8c-2,3-1.2,7,1.8,9C447.4,371.4,449.2,371.8,450.9,371.3z M459.2,378.9
	c-2.2,1.6-5.4,1.1-7-1.1c-1.6-2.2-1.1-5.4,1.1-7c2.2-1.6,5.4-1.1,7,1.1c0,0,0,0,0,0.1C462,374.2,461.5,377.3,459.2,378.9z
	 M469.1,371.9c-2.2,1.6-5.4,1.1-7-1.1c-1.6-2.2-1.1-5.4,1.1-7c2.2-1.6,5.4-1.1,7,1.1c0,0,0,0,0,0.1
	C471.8,367.3,471.3,370.3,469.1,371.9L469.1,371.9z M480.1,358.1c1.6,2.2,1.1,5.4-1.1,7c-2.2,1.6-5.4,1.1-7-1.1
	c-1.6-2.2-1.1-5.4,1.1-7c0,0,0,0,0.1,0C475.4,355.3,478.5,355.8,480.1,358.1L480.1,358.1z M466.3,347.1c2.2-1.6,5.4-1.1,7,1.1
	c1.6,2.2,1.1,5.4-1.1,7c-2.2,1.6-5.4,1.1-7-1.1c0,0,0,0,0-0.1C463.5,351.8,464.1,348.7,466.3,347.1L466.3,347.1z M456.4,354
	c2.2-1.6,5.4-1.1,7,1.1c1.6,2.2,1.1,5.4-1.1,7c-2.2,1.6-5.4,1.1-7-1.1c0,0,0,0,0-0.1C453.7,358.7,454.2,355.6,456.4,354z M446.6,361
	c2.2-1.6,5.4-1.1,7,1.1c1.6,2.2,1.1,5.4-1.1,7c-2.2,1.6-5.4,1.1-7-1.1c0,0,0,0,0-0.1C443.9,365.7,444.4,362.6,446.6,361z"/>
<path class="st4" d="M765.8,237.9l-24.4-2.8l-1.3,9.4c-0.2,1.4-0.2,2.8,0.1,4.2l0.2,1.2c0.2,1.4,1.1,2.5,2.4,3.1l4.2,1.9
	c1.5,0.7,3.2,0.4,4.5-0.6c0.2-0.2,0.6-0.2,0.8,0.1c0,0,0,0,0,0c1,1.3,2.6,1.9,4.3,1.6l4.5-0.8c1.3-0.3,2.5-1.2,3-2.5l0.5-1.1
	c0.7-3,1.3-6,1.6-9c0-0.4,0-0.8,0-1.2L765.8,237.9z"/>
<path class="st4" d="M595.3,286.3l22.9,8.9l-3.2,8.9c-0.5,1.3-1.2,2.5-2,3.6l-0.7,1c-0.8,1.1-2.2,1.7-3.5,1.6l-4.6-0.3
	c-1.6-0.1-3.1-1.1-3.7-2.6c-0.1-0.3-0.4-0.4-0.7-0.3c0,0,0,0,0,0c-1.5,0.7-3.2,0.5-4.5-0.6l-3.6-2.9c-1.1-0.9-1.7-2.2-1.6-3.6
	l0.1-1.2c0.7-3,1.7-5.9,2.8-8.7c0.1-0.4,0.3-0.7,0.5-1L595.3,286.3z"/>
<path class="st3" d="M464.6,689.2l-1.1,18.6c0,0.3-0.3,0.5-0.6,0.5c-0.1,0-0.2,0-0.3-0.1l-2-1.2c-0.5-0.3-0.8-0.9-0.8-1.5l1-16.5
	L464.6,689.2z"/>
<path class="st3" d="M464.6,689.2l1.1-18.6c0-0.3-0.2-0.6-0.5-0.6c-0.1,0-0.2,0-0.3,0.1l-2.1,1c-0.6,0.2-1,0.8-1,1.4l-1,16.5
	L464.6,689.2z"/>
<path class="st3" d="M458.1,673.3l0.1,0.2l1.1,2.3l0.3,0.7l1.1,2.3l0.1,0.2l1.1,2.3l0.3,0.7l1.1,2.3l0.1,0.2l1.1,2.3l0.3,0.7
	l1.1,2.3l0.1,0.2l1.1,2.3l0.3,0.7l1.1,2.3l0.1,0.2l1.1,2.3l0.3,0.7l1.1,2.3l0.1,0.2l1.4,3l2.1-1.7l0.2-0.2l0,0
	c0.8-0.9,0.9-2.1,0.4-3.2c-0.5-1.2-1.8-1.9-3-1.6l0,0c-0.1,0-0.3-0.1-0.3-0.2c0-0.1,0-0.2,0.1-0.3l0.1-0.1l0.2-0.2l0,0
	c0.8-0.9,0.9-2.1,0.4-3.2c-0.5-1.2-1.8-1.9-3-1.6l0,0c-0.1,0-0.3-0.1-0.3-0.2c0-0.1,0-0.2,0.1-0.3l0.1-0.1l0.2-0.2l0,0
	c0.8-0.9,0.9-2.1,0.4-3.2c-0.5-1.2-1.8-1.9-3-1.6l0,0c-0.1,0-0.3-0.1-0.3-0.2c0-0.1,0-0.2,0.1-0.3l0.1-0.1l0.2-0.2l0,0
	c0.8-0.9,0.9-2.1,0.4-3.2c-0.5-1.2-1.8-1.9-3-1.6l0,0c-0.1,0-0.3-0.1-0.3-0.2c0-0.1,0-0.2,0.1-0.3l0.1-0.1l0.2-0.2l0,0
	c0.8-0.9,0.9-2.1,0.4-3.2c-0.5-1.2-1.8-1.9-3-1.6l0,0c-0.1,0-0.3-0.1-0.3-0.2c0-0.1,0-0.2,0.1-0.3l0.1-0.1l0.2-0.2l0,0
	c0.8-0.9,0.9-2.1,0.4-3.2c-0.5-1.2-1.8-1.9-3-1.6l-2.5,0.5L458.1,673.3z"/>
<polyline class="st3" points="472.5,703.9 464.5,701 455,675.4 456.7,670.3 "/>
<path class="st3" d="M462.7,708.2l-5-0.2c0,0-2.3-0.1-2-3.6s2.4-31,2.4-31l6-1.7L462.7,708.2z"/>
<path class="st4" d="M754,735.2l3.9-2.6c1.8-1.2,2.9-3.3,2.8-5.5l-0.2-6.9c0-0.4,0.2-0.7,0.5-0.9l0.5-0.3l0.2,0.4l1.9-1.3l-3.7-5.7
	l-2,1.2l0.2,0.4l-0.5,0.3c-0.3,0.2-0.7,0.2-1.1,0.1l-4.5-2.9c-0.8-0.5-1.8-0.6-2.6-0.3l-8.9,3.4L754,735.2z M751,716.2
	c-0.8,0.4-6.7,3.5-7.5,1.6s5.3-4.2,6.1-4.6c0.9-0.3,1.8,0.2,2.1,1.1C751.9,714.9,751.6,715.7,751,716.2L751,716.2z"/>
<ellipse transform="matrix(0.9587 -0.2844 0.2844 0.9587 -184.6937 236.3)" class="st4" cx="721.5" cy="754.3" rx="4.5" ry="3.7"/>
<ellipse transform="matrix(0.96 -0.28 0.28 0.96 -183.4944 232.4192)" class="st4" cx="721.7" cy="758.4" rx="2.2" ry="2.2"/>
<ellipse transform="matrix(0.96 -0.28 0.28 0.96 -184.0585 232.675)" class="st4" cx="722.3" cy="760.5" rx="2.2" ry="2.2"/>
<ellipse transform="matrix(0.9587 -0.2844 0.2844 0.9587 -185.7016 237.5788)" class="st4" cx="725.4" cy="758.4" rx="2.2" ry="2.2"/>
<ellipse transform="matrix(0.9587 -0.2844 0.2844 0.9587 -186.2697 237.8409)" class="st4" cx="726" cy="760.5" rx="2.2" ry="2.2"/>
<ellipse transform="matrix(0.9999 -9.999500e-03 9.999500e-03 0.9999 -7.555 7.3076)" class="st4" cx="727" cy="759.2" rx="2.2" ry="2.2"/>
<ellipse transform="matrix(0.9999 -9.999500e-03 9.999500e-03 0.9999 -7.5768 7.3079)" class="st4" cx="727" cy="761.4" rx="2.2" ry="2.2"/>
<ellipse transform="matrix(0.9999 -9.999500e-03 9.999500e-03 0.9999 -7.5987 7.3082)" class="st4" cx="727" cy="763.5" rx="2.2" ry="2.2"/>
<ellipse transform="matrix(0.9999 -9.999500e-03 9.999500e-03 0.9999 -7.6205 7.3085)" class="st4" cx="727.1" cy="765.7" rx="2.2" ry="2.2"/>
<path class="st4" d="M726,765.7c-0.9,0-1.7,0.4-2.2,1.1l0,0c-0.5-0.7-1.3-1.1-2.2-1.1c-1.4,0.1-2.5,1.2-2.5,2.6
	c0,1.4,1.1,2.6,2.6,2.7c0.3,0,0.6,0,1-0.2c0.8-0.3,1.7-0.3,2.5,0c1.4,0.5,2.9-0.2,3.3-1.6c0.1-0.3,0.2-0.6,0.1-1
	C728.6,766.9,727.4,765.7,726,765.7z"/>
<rect x="721.3" y="756.3" transform="matrix(1 -9.250113e-03 9.250113e-03 1 -7.0213 6.7293)" class="st4" width="5.3" height="12.1"/>
<ellipse transform="matrix(0.9999 -9.999500e-03 9.999500e-03 0.9999 -7.6213 7.2573)" class="st4" cx="721.9" cy="765.8" rx="2.2" ry="2.2"/>
<ellipse transform="matrix(1 -9.250113e-03 9.250113e-03 1 -7.0372 6.7046)" class="st4" cx="721.3" cy="764.1" rx="2.2" ry="2.2"/>
<ellipse transform="matrix(0.9999 -9.999500e-03 9.999500e-03 0.9999 -7.5776 7.2566)" class="st4" cx="721.9" cy="761.4" rx="2.2" ry="2.2"/>
<ellipse transform="matrix(1 -9.250113e-03 9.250113e-03 1 -6.9969 6.7041)" class="st4" cx="721.2" cy="759.8" rx="2.2" ry="2.2"/>
<ellipse transform="matrix(0.9587 -0.2844 0.2844 0.9587 -186.8904 236.502)" class="st4" cx="721.1" cy="761.9" rx="2.2" ry="2.2"/>
<ellipse transform="matrix(0.9587 -0.2844 0.2844 0.9587 -186.3196 236.2395)" class="st4" cx="720.5" cy="759.8" rx="2.2" ry="2.2"/>
<ellipse transform="matrix(0.9587 -0.2844 0.2844 0.9587 -185.749 235.9762)" class="st4" cx="719.9" cy="757.7" rx="2.2" ry="2.2"/>
<ellipse transform="matrix(0.9587 -0.2844 0.2844 0.9587 -185.1809 235.7141)" class="st4" cx="719.3" cy="755.7" rx="2.2" ry="2.2"/>
<rect x="719.1" y="749.3" transform="matrix(0.9587 -0.2844 0.2844 0.9587 -183.9135 235.9414)" class="st4" width="3.1" height="4.3"/>
<rect x="717" y="747.7" transform="matrix(0.5373 -0.8434 0.8434 0.5373 -298.7991 952.7653)" class="st4" width="3.9" height="2.1"/>
<path class="st3" d="M534.7,519.1l6.3,17.5c0.1,0.3,0.4,0.4,0.7,0.3c0.1,0,0.2-0.1,0.2-0.2l1.5-1.7c0.4-0.5,0.5-1.1,0.3-1.7
	l-5.7-15.6L534.7,519.1z"/>
<path class="st3" d="M534.7,519.1l-6.3-17.5c-0.1-0.3,0-0.6,0.3-0.7c0.1,0,0.2,0,0.3,0l2.3,0.3c0.6,0.1,1.1,0.5,1.3,1.1l5.7,15.6
	L534.7,519.1z"/>
<path class="st3" d="M536.4,502v0.2l-0.4,2.5l-0.1,0.7l-0.4,2.5v0.2l-0.5,2.6l-0.1,0.7l-0.3,2.5v0.2l-0.4,2.5l-0.1,0.7l-0.4,2.5v0.2
	l-0.4,2.5l-0.1,0.7l-0.4,2.5v0.2l-0.4,2.5l-0.1,0.7l-0.4,2.5v0.2l-0.5,3.3l-2.5-1l-0.2-0.1l0,0c-1-0.6-1.5-1.8-1.3-2.9
	c0.1-1.3,1.1-2.4,2.5-2.5l0,0c0.1,0,0.2-0.1,0.2-0.2c0-0.1-0.1-0.2-0.2-0.2h-0.1l-0.2-0.1l0,0c-1-0.6-1.5-1.8-1.3-2.9
	c0.1-1.3,1.1-2.4,2.5-2.5l0,0c0.1,0,0.2-0.1,0.2-0.2c0-0.1-0.1-0.2-0.2-0.2h-0.1l-0.2-0.1l0,0c-1-0.6-1.5-1.8-1.3-2.9
	c0.1-1.3,1.1-2.4,2.5-2.5l0,0c0.1,0,0.2-0.1,0.2-0.2c0-0.1-0.1-0.2-0.2-0.2h-0.1l-0.2-0.1l0,0c-1-0.6-1.5-1.8-1.3-2.9
	c0.1-1.3,1.1-2.4,2.5-2.5l0,0c0.1,0,0.2-0.1,0.2-0.2c0-0.1-0.1-0.2-0.2-0.2h-0.1l-0.2-0.1l0,0c-1-0.6-1.5-1.8-1.3-2.9
	c0.1-1.3,1.1-2.4,2.5-2.5l0,0c0.1,0,0.2-0.1,0.2-0.2c0-0.1-0.1-0.2-0.2-0.2h-0.1l-0.2-0.1l0,0c-1-0.6-1.5-1.8-1.3-2.9
	c0.1-1.3,1.1-2.4,2.5-2.5l2.6-0.2L536.4,502z"/>
<polyline class="st3" points="531.4,535.5 538.2,530.4 539.9,503.2 536.9,498.8 "/>
<path class="st3" d="M542,536.8l4.7-1.7c0,0,2.2-0.8,0.9-4.1S536.4,502,536.4,502l-6.2,0.1L542,536.8z"/>
<path class="st3" d="M758.5,609c1.2,3.8,3.7,6.5,5.7,5.9c0.1,0,0.3-0.1,0.4-0.2l1.8-0.8l-0.9-7.1l4.9,1l3.7-5.9l-0.2,6.1l2.9-0.5
	l-0.7,2.1l2.9-1.3c1.4-0.5,1.9-3.2,1-6s-2.8-4.9-4.2-4.4l-15.5,3c-0.1,0-0.3,0-0.4,0.1C757.8,601.6,757.3,605.2,758.5,609z"/>
<path class="st3" d="M771.5,607.7l-6,4.8l9.4-3.9l-5.4,5.5l6.2-3l-4,4.2l4.4-2.7l-4.3,3.8l5.5-2.9l-4.3,3.2l4.5-2.3l-5,3.5l1.3-0.5
	l-10.1,6.3c-0.9,0.5-2.9-1.1-4.5-3.6s-2.2-5.1-1.3-5.6l10.3-6.4L771.5,607.7z"/>
<ellipse transform="matrix(0.3218 -0.9468 0.9468 0.3218 -141.3121 743.2631)" class="st3" cx="448.1" cy="470.3" rx="5.5" ry="2.7"/>
<ellipse transform="matrix(0.3218 -0.9468 0.9468 0.3218 -146.7243 725.3923)" class="st3" cx="433" cy="465.1" rx="7.3" ry="3.6"/>
<polygon class="st3" points="433,465.1 430.6,472 446.4,475.5 448.1,470.3 "/>
<polygon class="st3" points="433,465.1 435.3,458.2 449.9,465.1 448.1,470.3 "/>
<path class="st4" d="M292.7,417.4l-0.2,0.2c-5.5,6-0.8,19.7,10.6,32.2l1.4-0.9l-4.3-8l8.6,3.2l-1.4-4.1l0.7,0.1
	c-2-3.8-2.5-7.2-0.7-9.1c2.9-3.2,10.9-0.6,17.8,5.7s10.2,14,7.3,17.2s-10.9,0.6-17.8-5.7c-0.5-0.5-1-1-1.5-1.5l0,0l1.4,4.8l-6.9,1.2
	l0.5,2l0.2,0.2c15.1,13.8,32.5,19.4,38.8,12.5l0.2-0.2l0,0l8.8-9.6c6.3-6.9-0.8-23.7-15.9-37.5s-32.5-19.4-38.8-12.5l-0.2-0.1
	l-8.8,9.6L292.7,417.4z"/>
<path class="st3" d="M258,622l-3.8-2.2c0,0-8.6-2.2-9.7-2.8s-3.8-2.5-3.8-2.5l-1.4-7.8l1-4.8l-4.9-5.4l-6.4-3.8l-4,3.7l3.3,8.9
	l-4.3,7.3l1.5,5.3l-3.4,2.8l-2.7,7.6l-4.8,8.3l1.5,3.1l14.9,0.2c0,0,6.9,2.1,8.2,2s2-3.4,2-3.4l5.9-4.3l4.9-5.4l5.9,2.8l8.4-7.5
	L258,622z M230,613.8l-1.9-2.4l2.5-4.2l1.1-4.1l-2.8-4.5l1.2-2.1l1.8,2.9l4.9,2.9l-2.2,3.8l0.9,4.3L230,613.8z M256.1,629.1
	l-3.7-3.7l0.3-3.6l3.5,2l5.7,2L256.1,629.1z"/>
<path class="st3" d="M668.1,253.4l1.8-1.4l-2.9-1.6l2.5-1.5l-1.4-0.8l1.3-1l-2.1-0.2l1.5-1.4h-0.1l6.4-0.2c1.2,0,2.3,1.9,2.4,4.3
	s-0.9,4.4-2.1,4.5l-6.2,0.2L668.1,253.4z"/>
<path class="st3" d="M126,311c-5.1,11.5-5.4,28.5,7.6,38.2s31.7,4.2,41.8-9.4s7.9-30-5.1-39.7S132.9,295.6,126,311z M170.9,338.9
	c-8.2,10.9-23.3,13.5-33.7,5.6s-12.3-23-4.1-33.9s23.3-13.5,33.7-5.6S179,327.9,170.9,338.9L170.9,338.9z"/>
<rect x="151.5" y="298.8" transform="matrix(0.5987 -0.8009 0.8009 0.5987 -199.0637 251.9779)" class="st3" width="0.8" height="51.8"/>
<rect x="131.9" y="325.8" transform="matrix(0.5987 -0.8009 0.8009 0.5987 -197.9266 257.2434)" class="st3" width="51.8" height="0.8"/>
<rect x="152.4" y="301.1" transform="matrix(0.9897 -0.143 0.143 0.9897 -45.1793 25.205)" class="st3" width="0.8" height="51.8"/>
<rect x="125.5" y="323.3" transform="matrix(0.9901 -0.14 0.14 0.9901 -43.836 24.3835)" class="st3" width="51.8" height="0.8"/>
<rect x="161.6" y="294.5" transform="matrix(0.8577 -0.5141 0.5141 0.8577 -141.6762 128.899)" class="st3" width="0.8" height="51.8"/>
<rect x="124.5" y="323.2" transform="matrix(0.8601 -0.5101 0.5101 0.8601 -144.0273 121.9801)" class="st3" width="51.8" height="0.8"/>
<rect x="126" y="324.3" transform="matrix(0.2429 -0.97 0.97 0.2429 -199.9647 393.1853)" class="st3" width="51.8" height="0.8"/>
<rect x="151.5" y="298.8" transform="matrix(0.2429 -0.97 0.97 0.2429 -199.9161 393.1958)" class="st3" width="0.8" height="51.8"/>
<rect x="151.5" y="298.8" transform="matrix(0.7434 -0.6689 0.6689 0.7434 -178.1642 184.951)" class="st3" width="0.8" height="51.8"/>
<rect x="126.1" y="324.3" transform="matrix(0.7434 -0.6689 0.6689 0.7434 -178.189 184.9805)" class="st3" width="51.8" height="0.8"/>
<rect x="122.7" y="323.4" transform="matrix(5.268454e-02 -0.9986 0.9986 5.268454e-02 -182.6269 455.1808)" class="st3" width="51.8" height="0.8"/>
<rect x="151.6" y="298.9" transform="matrix(5.268448e-02 -0.9986 0.9986 5.268448e-02 -180.3221 459.3771)" class="st3" width="0.8" height="51.8"/>
<rect x="151.5" y="298.8" transform="matrix(0.9415 -0.3371 0.3371 0.9415 -100.5687 70.2181)" class="st3" width="0.8" height="51.8"/>
<rect x="124.2" y="331.5" transform="matrix(0.9415 -0.3371 0.3371 0.9415 -103.0868 70.0316)" class="st3" width="51.8" height="0.8"/>
<rect x="121.6" y="321" transform="matrix(0.4274 -0.9041 0.9041 0.4274 -206.1017 317.3546)" class="st3" width="51.8" height="0.8"/>
<rect x="148.8" y="302.4" transform="matrix(0.4274 -0.9041 0.9041 0.4274 -211.3921 322.9086)" class="st3" width="0.8" height="51.8"/>
<path class="st3" d="M144.3,319c-3.1,4.2-2.2,10.2,2,13.3c4.2,3.1,10.2,2.2,13.3-2c3.1-4.2,2.2-10.2-2-13.3
	C153.4,313.9,147.5,314.8,144.3,319C144.3,319,144.3,319,144.3,319z M157.3,328.8c-2.2,3-6.4,3.6-9.4,1.4c-3-2.2-3.6-6.4-1.4-9.4
	s6.4-3.6,9.4-1.4c0,0,0,0,0,0C158.9,321.6,159.5,325.8,157.3,328.8L157.3,328.8z"/>
<ellipse transform="matrix(0.1 -0.995 0.995 0.1 234.2393 801.2101)" class="st3" cx="560" cy="271.1" rx="4.5" ry="3.7"/>
<ellipse transform="matrix(0.1 -0.995 0.995 0.1 230.9256 802.5133)" class="st3" cx="559.1" cy="273.6" rx="2.2" ry="2.2"/>
<ellipse transform="matrix(0.1 -0.995 0.995 0.1 229.1782 800.1557)" class="st3" cx="556.9" cy="273.4" rx="2.2" ry="2.2"/>
<ellipse transform="matrix(0.1 -0.995 0.995 0.1 227.4496 797.8009)" class="st3" cx="554.7" cy="273.2" rx="2.2" ry="2.2"/>
<ellipse transform="matrix(0.1 -0.995 0.995 0.1 225.7221 795.4452)" class="st3" cx="552.6" cy="272.9" rx="2.2" ry="2.2"/>
<ellipse transform="matrix(0.1 -0.995 0.995 0.1 223.9756 793.0886)" class="st3" cx="550.4" cy="272.7" rx="2.2" ry="2.2"/>
<ellipse transform="matrix(0.1 -0.995 0.995 0.1 222.239 790.723)" class="st3" cx="548.2" cy="272.5" rx="2.2" ry="2.2"/>
<ellipse transform="matrix(0.1 -0.995 0.995 0.1 220.5007 788.3753)" class="st3" cx="546" cy="272.3" rx="2.2" ry="2.2"/>
<ellipse transform="matrix(0.1 -0.995 0.995 0.1 218.7642 786.0097)" class="st3" cx="543.9" cy="272.1" rx="2.2" ry="2.2"/>
<path class="st3" d="M544.5,271.8c0.1-0.9-0.2-1.7-0.9-2.3l0,0c0.7-0.4,1.2-1.2,1.3-2c0.1-1.4-0.9-2.6-2.3-2.8
	c-1.4-0.2-2.7,0.8-2.9,2.3c0,0.3,0,0.6,0.1,1c0.2,0.8,0.1,1.7-0.2,2.5c-0.6,1.3,0,2.9,1.4,3.4c0.3,0.1,0.5,0.2,0.8,0.2
	C543.1,274.1,544.3,273.1,544.5,271.8z"/>
<rect x="549.1" y="260.6" transform="matrix(0.1 -0.995 0.995 0.1 227.5229 792.4127)" class="st3" width="5.3" height="19.6"/>
<ellipse transform="matrix(0.1 -0.995 0.995 0.1 224.3119 781.928)" class="st3" cx="544.4" cy="267" rx="2.2" ry="2.2"/>
<ellipse transform="matrix(0.1 -0.995 0.995 0.1 226.0394 784.2838)" class="st3" cx="546.6" cy="267.2" rx="2.2" ry="2.2"/>
<ellipse transform="matrix(0.1 -0.995 0.995 0.1 227.776 786.6494)" class="st3" cx="548.7" cy="267.4" rx="2.2" ry="2.2"/>
<ellipse transform="matrix(0.1 -0.995 0.995 0.1 229.5224 789.0059)" class="st3" cx="550.9" cy="267.6" rx="2.2" ry="2.2"/>
<ellipse transform="matrix(0.1 -0.995 0.995 0.1 231.251 791.3607)" class="st3" cx="553.1" cy="267.8" rx="2.2" ry="2.2"/>
<ellipse transform="matrix(0.1 -0.995 0.995 0.1 232.9894 793.7084)" class="st3" cx="555.2" cy="268.1" rx="2.2" ry="2.2"/>
<ellipse transform="matrix(0.1 -0.995 0.995 0.1 234.7259 796.074)" class="st3" cx="557.4" cy="268.3" rx="2.2" ry="2.2"/>
<ellipse transform="matrix(0.1 -0.995 0.995 0.1 236.4723 798.4307)" class="st3" cx="559.6" cy="268.5" rx="2.2" ry="2.2"/>
<rect x="561.5" y="269.3" transform="matrix(0.1 -0.995 0.995 0.1 236.6367 804.5514)" class="st3" width="3.1" height="4.3"/>
<rect x="563.2" y="270.6" transform="matrix(0.1 -0.995 0.995 0.1 238.2999 806.8063)" class="st3" width="3.9" height="2.1"/>
<path class="st0" d="M60.5,637.7c-5.3-16.3-22.8-25.2-39.1-19.8s-25.2,22.8-19.8,39.1c5.3,16.2,22.8,25.1,39,19.8
	C56.9,671.5,65.8,654,60.5,637.7C60.6,637.7,60.5,637.7,60.5,637.7z M44.5,642.9c2.4,7.5-1.7,15.5-9.1,17.9
	c-7.5,2.4-15.5-1.7-17.9-9.1c-2.4-7.5,1.7-15.5,9.1-17.9C34.1,631.3,42.1,635.4,44.5,642.9C44.6,642.9,44.6,642.9,44.5,642.9
	L44.5,642.9z"/>
<path class="st0" d="M492.3,102.1c0,0-1.4,5.2-1.1,5.9c0.3,1.8,0.5,3.7,0.6,5.6l6.4,3.5l2.9-4.2l4-5.5l3.8,1.8l2.8,1.5l-2.6,4.9
	l4.5,4l3.3-1.5l3-4l-1-4.9l2.5-5.8l1.4-4.3l-5.2-3.9l3.8-5.6l-1.9-5.3l-4.5-1.9l-12.3-1.8l-3.7,2.6l-8.3,3l-1.5,6l-0.7,2.7l4.1,1.3
	l2.6,5.6L492.3,102.1z M511.6,106.2l3.8-1.8l1.4,3l0.5,4.1l0.1,2.4l-2.3,2.3l-1.5,0.1l-1-2.1l2.3-3.8L511.6,106.2z M500.4,106.8
	l1.9,0.3l-2,2.5l-1.5,3.8l-2.5,1.7l-2-4.2l2.1-1.5L500.4,106.8z"/>
<g class="st1">
	<path class="st2" d="M723.3,112.9l-24.3,3.3l-1.5-9.4c-0.2-1.4-0.2-2.8,0-4.2l0.2-1.2c0.2-1.4,1.1-2.5,2.3-3.1l4.1-1.9
		c1.5-0.7,3.2-0.5,4.5,0.5c0.2,0.2,0.6,0.1,0.8-0.1c0,0,0,0,0,0c1-1.3,2.6-2,4.2-1.7l4.5,0.8c1.4,0.2,2.5,1.1,3.1,2.4l0.5,1.1
		c0.8,3,1.4,6,1.8,9c0,0.4,0,0.8,0,1.2L723.3,112.9z"/>
	<path class="st2" d="M699.4,112.8l-2,4.3c-0.9,2-0.8,4.3,0.4,6.1l3.8,5.8c0.2,0.3,0.2,0.7,0.1,1.1l-0.3,0.5l-0.4-0.2l-1,2.1l6.1,3
		l1-2.1l-0.4-0.2l0.3-0.5c0.2-0.3,0.5-0.6,0.9-0.6l5.3,0.2c0.9,0,1.8-0.4,2.4-1.1l5.8-7.5L699.4,112.8z M711.9,127.5
		c0.5-0.8,3.8-6.5,5.6-5.3s-2.3,6.4-2.8,7.1c-0.4,0.8-1.5,1.1-2.3,0.7c-0.8-0.4-1.1-1.5-0.7-2.3
		C711.8,127.6,711.8,127.6,711.9,127.5L711.9,127.5z"/>
	<polygon class="st2" points="723.3,112.9 718.3,118.3 721.5,123.6 700.1,113.9 708.4,111.7 	"/>
</g>
<path class="st0" d="M325.5,211.7c-1.7-3.7-4.5-5.9-6.4-5.1c-0.1,0.1-0.2,0.1-0.3,0.2l-1.7,1l1.8,6.9l-5-0.4l-2.9,6.4l-0.6-6.1
	l-2.8,0.9l0.5-2.2l-2.8,1.7c-1.4,0.6-1.5,3.4-0.2,6.1s3.4,4.5,4.8,3.8l14.9-4.9c0.1,0,0.3-0.1,0.4-0.1
	C327.1,219.1,327.2,215.4,325.5,211.7z"/>
<path class="st0" d="M95.6,44.4l-0.6-1.7l9.4-4.3l2.6,1c0.1,0,0.3,0.1,0.4,0.2c1.8,1,1.7,4.6-0.2,8.2s-4.9,5.7-6.7,4.7
	c-0.1-0.1-0.2-0.1-0.3-0.2L98.4,51l2.2-6.8L95.6,44.4z"/>
<path class="st0" d="M539.4,16l1.8-0.1l1.2,10.3l-1.8,2.1c-0.1,0.1-0.2,0.2-0.3,0.3c-1.5,1.4-4.9,0.2-7.7-2.8s-3.9-6.4-2.4-7.8
	c0.1-0.1,0.2-0.2,0.3-0.2l1.6-1.2l5.8,4.2L539.4,16z"/>
<path class="st0" d="M725.9,190.1l4.9-4.7l4.7,0.3l0.4-3l0.8-6.8l-7.3-6.4l-2.8-4.2l-13.4-3.1l-5.4,0.1l-4.1,4.7l1.7,7.3l-6.9,1.9
	l-0.3,5l0.3,7l-3,4.7l1.5,5.4l2.8,2.9l6.2-2.3l-0.7-6.1l3.5-0.4l4.7-0.4l1.9,7.3l1.3,5.5l8-1c0,0,2.2-4.9,2.9-5.5s1.3-6.5,1.3-6.5
	L725.9,190.1z M702,191.2l0.9,4.8l-1.9,1.7l-1.5-0.7l-1.5-3.3l1-2.4l2.1-4.1l2.7-2.5l3.2,3.4L702,191.2z M721.6,197.5l1.5,2.4
	l-3.8,3.6l-1.9-2.8v-4.5l-1-3.3l2,0.5L721.6,197.5z"/>
<g class="st1">
	<path class="st2" d="M180.4,476.9c13-9.7,15.2-26.2,5.1-39.7s-28.8-19.1-41.8-9.4s-12.7,26.7-7.6,38.2
		C143,481.5,167.4,486.6,180.4,476.9z M176.8,472.1c-10.4,7.8-25.5,5.3-33.7-5.6s-6.3-26.1,4.1-33.9s25.5-5.3,33.7,5.6
		S187.3,464.3,176.8,472.1L176.8,472.1z"/>
	
		<rect x="136.1" y="451.9" transform="matrix(0.8009 -0.5987 0.5987 0.8009 -238.577 187.0439)" class="st2" width="51.8" height="0.8"/>
	
		<rect x="167.4" y="425.1" transform="matrix(0.8009 -0.5987 0.5987 0.8009 -236.5912 190.2362)" class="st2" width="0.8" height="51.8"/>
	
		<rect x="136.9" y="449.6" transform="matrix(0.143 -0.9897 0.9897 0.143 -305.8787 546.861)" class="st2" width="51.8" height="0.8"/>
	
		<rect x="161.7" y="426.5" transform="matrix(0.143 -0.9897 0.9897 0.143 -308.8445 548.0977)" class="st2" width="0.8" height="51.8"/>
	
		<rect x="148.8" y="456.6" transform="matrix(0.5101 -0.8601 0.8601 0.5101 -307.5155 374.1076)" class="st2" width="51.8" height="0.8"/>
	
		<rect x="161.7" y="426.4" transform="matrix(0.5141 -0.8577 0.8577 0.5141 -309.208 358.7554)" class="st2" width="0.8" height="51.8"/>
	
		<rect x="161.7" y="426.4" transform="matrix(0.97 -0.2429 0.2429 0.97 -105.0301 52.9262)" class="st2" width="0.8" height="51.8"/>
	
		<rect x="136.1" y="451.9" transform="matrix(0.97 -0.2429 0.2429 0.97 -105.0292 52.9112)" class="st2" width="51.8" height="0.8"/>
	
		<rect x="136.1" y="451.9" transform="matrix(0.6689 -0.7434 0.7434 0.6689 -282.6092 270.2128)" class="st2" width="51.8" height="0.8"/>
	
		<rect x="161.6" y="426.5" transform="matrix(0.6689 -0.7434 0.7434 0.6689 -282.6382 270.2487)" class="st2" width="0.8" height="51.8"/>
	
		<rect x="158.2" y="427.3" transform="matrix(0.9986 -5.268454e-02 5.268454e-02 0.9986 -23.6562 8.9868)" class="st2" width="0.8" height="51.8"/>
	
		<rect x="137.3" y="453" transform="matrix(0.9988 -4.993762e-02 4.993762e-02 0.9988 -22.4391 8.7165)" class="st2" width="51.8" height="0.8"/>
	
		<rect x="136.2" y="451.9" transform="matrix(0.3371 -0.9415 0.9415 0.3371 -318.4154 452.4621)" class="st2" width="51.8" height="0.8"/>
	
		<rect x="159.8" y="419.2" transform="matrix(0.3371 -0.9415 0.9415 0.3371 -312.8215 445.9127)" class="st2" width="0.8" height="51.8"/>
	
		<rect x="157.2" y="429.8" transform="matrix(0.9041 -0.4274 0.4274 0.9041 -179.599 111.0658)" class="st2" width="0.8" height="51.8"/>
	
		<rect x="133.4" y="448.3" transform="matrix(0.9041 -0.4274 0.4274 0.9041 -176.4594 111.1001)" class="st2" width="51.8" height="0.8"/>
	<path class="st2" d="M167.7,460c4.2-3.1,5.1-9.1,1.9-13.3c-3.1-4.2-9.1-5.1-13.3-1.9c-4.2,3.1-5.1,9.1-1.9,13.3c0,0,0,0,0,0
		C157.6,462.3,163.5,463.1,167.7,460z M166.1,457.7c-3,2.2-7.2,1.6-9.4-1.4c-2.2-3-1.6-7.2,1.4-9.4c3-2.2,7.2-1.6,9.4,1.4
		c0,0,0,0,0,0C169.6,451.3,169,455.5,166.1,457.7z"/>
</g>
<path class="st0" d="M97.5,52.5l-3-4.6c-0.1-0.2-0.4-0.2-0.5-0.1c-0.1,0.1-0.2,0.3-0.1,0.5l3.4,5.2c-0.1,0.3-0.3,0.5-0.5,0.7
	l-3.6-5.4c-0.1-0.2-0.4-0.2-0.5-0.1c-0.1,0.1-0.2,0.3-0.1,0.5l3.6,5.4c-0.3,0.1-0.5,0.1-0.8,0.1L92,49.6c-0.1-0.2-0.4-0.2-0.5-0.1
	c-0.1,0.1-0.2,0.3-0.1,0.5l3,4.6c-0.5-0.1-0.9-0.3-1.3-0.6l-2.5-3.8c-0.5-0.7-0.5-1.6,0-2.3l0.1-0.1l-3.3-5l2-1.3l3.3,5h0.1
	c0.8-0.2,1.7,0.2,2.2,0.9l2.5,3.8C97.5,51.6,97.6,52,97.5,52.5z"/>
<path class="st0" d="M133.1,73.2l-0.8-0.4c-1.8-0.9-4.7,1.3-6.5,5s-1.7,7.3,0.1,8.2l0.8,0.4c1.8,0.9,4.7-1.3,6.5-5
	S134.9,74.1,133.1,73.2z M129.6,79.4l1-0.7v0.2l-1,0.7l0.1,1.3l-0.2,0.1l-0.1-1.3l-1,0.7v-0.2l1-0.7l-0.1-1.3l0.2-0.1L129.6,79.4z"
	/>
<path class="st0" d="M141.5,60.4l-0.8-0.4c-1.8-0.9-4.7,1.3-6.5,5c-1.8,3.7-1.7,7.3,0.1,8.2l0.8,0.4c1.8,0.9,4.7-1.3,6.5-5
	S143.3,61.3,141.5,60.4z M138,66.6l1-0.7v0.2l-1,0.7l0.1,1.2l-0.2,0.1l-0.1-1.3l-1,0.7v-0.2l1-0.7l-0.1-1.3l0.2-0.1L138,66.6z"/>
<polygon class="st0" points="115.9,31.5 109,28.5 106.2,35 106.8,36.5 105.3,37 104.4,39 111.2,42.1 112.1,40 111.5,38.6 113,38.1 
	"/>
<polygon class="st0" points="93,39.2 89.5,38.3 91.2,34.4 87.6,35.7 87.5,31.6 86.3,31.8 87.3,28 95.3,30 "/>
<g class="st1">
	<path class="st2" d="M107.9,25.5l0.8,2.3c0.4,1.2,1.8,1.9,3.1,1.5l2.3-0.8c1.2-0.4,1.9-1.8,1.5-3l-0.8-2.3
		c-0.4-1.2-1.8-1.9-3.1-1.5l-2.3,0.8C108.2,22.9,107.5,24.2,107.9,25.5z M113.4,23.5c0-0.2,0.1-0.5,0.4-0.5c0.2,0,0.4,0.1,0.4,0.2
		l0.9,2.6c0.1,0.2,0,0.5-0.2,0.6c-0.2,0.1-0.5,0-0.6-0.2c0,0,0-0.1,0-0.1L113.4,23.5z"/>
	<path class="st2" d="M111.3,24.2l0.1,0.3c0,0.1,0,0.2-0.1,0.2c0,0,0,0,0,0l-2.2,0.8c-0.1,0-0.1,0.1-0.1,0.2l0.2,2.2
		c0,0.1,0,0.2-0.1,0.2c-0.1,0-0.1,0-0.2,0l-1-0.8c-0.1-0.1-0.2-0.1-0.3,0c0,0,0,0,0,0.1l-0.2,0.8c0,0.1-0.1,0.2-0.2,0.1
		c0,0-0.1,0-0.1,0l-0.6-0.5c-0.1-0.1-0.2-0.1-0.3,0c0,0,0,0,0,0.1l-0.2,0.8c0,0.1-0.1,0.2-0.2,0.1c0,0-0.1,0-0.1,0l-0.6-0.5
		c-0.1-0.1-0.2-0.1-0.3,0c0,0,0,0,0,0.1l-0.2,0.8c0,0.1-0.1,0.2-0.2,0.1c0,0-0.1,0-0.1,0l-0.6-0.5c-0.1-0.1-0.2-0.1-0.3,0
		c0,0,0,0,0,0.1l-0.2,0.8c0,0.1-0.1,0.2-0.2,0.1c0,0-0.1,0-0.1,0l-0.6-0.5c-0.1-0.1-0.2-0.1-0.3,0c0,0,0,0,0,0.1l-0.2,0.8
		c0,0.1-0.1,0.2-0.2,0.1c0,0-0.1,0-0.1,0l-1.9-1.4c0,0,0-0.1-0.1-0.1l-0.2-0.5c0-0.1,0-0.2,0.1-0.2c0,0,0,0,0,0l11.5-4
		C111.2,24,111.3,24.1,111.3,24.2C111.3,24.2,111.3,24.2,111.3,24.2z"/>
</g>
<path class="st4" d="M231.4,187.7l-24.3-2.8l-1.3,9.4c-0.2,1.4-0.2,2.8,0.1,4.2l0.2,1.2c0.2,1.4,1.1,2.5,2.4,3.1l4.2,1.9
	c1.5,0.7,3.2,0.4,4.5-0.6c0.2-0.2,0.6-0.2,0.8,0.1c0,0,0,0,0,0c1,1.3,2.6,1.9,4.2,1.6l4.5-0.9c1.3-0.3,2.5-1.2,3-2.4l0.5-1.1
	c0.7-3,1.2-6,1.6-9c0-0.4,0-0.8,0-1.2L231.4,187.7z"/>
<ellipse transform="matrix(0.5775 -0.8164 0.8164 0.5775 -8.8729 37.5859)" class="st3" cx="31.9" cy="27.4" rx="5.5" ry="5.5"/>
<ellipse transform="matrix(0.5763 -0.8172 0.8172 0.5763 -31.9361 34.1833)" class="st3" cx="17" cy="47.9" rx="1.9" ry="5.4"/>
<ellipse transform="matrix(0.5763 -0.8172 0.8172 0.5763 6.1956 39.3963)" class="st3" cx="41.1" cy="13.7" rx="0.7" ry="2"/>
<rect x="11.7" y="32.2" transform="matrix(0.5763 -0.8172 0.8172 0.5763 -20.4406 35.7548)" class="st3" width="25.2" height="10.9"/>
<rect x="30.4" y="17.2" transform="matrix(0.5763 -0.8172 0.8172 0.5763 -1.982256e-02 38.5507)" class="st3" width="13.6" height="4.1"/>
<ellipse transform="matrix(0.5775 -0.8164 0.8164 0.5775 8.5274 39.9226)" class="st3" cx="42.8" cy="11.7" rx="0.6" ry="1.4"/>
<rect x="35.1" y="14.2" transform="matrix(0.5763 -0.8172 0.8172 0.5763 4.1076 39.1122)" class="st3" width="9.4" height="2.8"/>
<path class="st4" d="M240.3,205.1l3.5-6.9l-2,10l4.3-6.4l-1.7,6.6l3.3-4.8l-1.8,4.8l2.9-5l-1.7,6l2.3-4.9l-1.3,4.9l2.4-5.6l-0.2,1.4
	l4.1-11.2c0.4-1-1.6-2.6-4.5-3.6s-5.4-1.1-5.8-0.1l-4.2,11.4L240.3,205.1z"/>
<path class="st4" d="M218.8,46.9l1.8,0.1l1.2-10.3l-1.8-2.1c-0.1-0.1-0.2-0.2-0.3-0.3c-1.5-1.4-4.9-0.2-7.7,2.8s-3.9,6.4-2.4,7.8
	c0.1,0.1,0.2,0.2,0.3,0.2l1.6,1.2l5.8-4.2L218.8,46.9z"/>
<path class="st3" d="M38.3,74.5l1.3,4.6c0.6,2.1,2.2,3.8,4.3,4.4l6.6,1.9c0.4,0.1,0.6,0.4,0.7,0.8l0.2,0.6l-0.4,0.1l0.6,2.2l6.6-1.7
	l-0.6-2.3l-0.4,0.1l-0.2-0.6c-0.1-0.4,0-0.7,0.3-1l4.2-3.3c0.7-0.6,1.1-1.5,1.1-2.4l-0.4-9.5L38.3,74.5z M57.3,77.5
	c-0.1-0.9-1.3-7.4,0.8-7.6s2.4,6.4,2.5,7.3c0.2,0.9-0.3,1.8-1.2,2c-0.9,0.2-1.8-0.3-2-1.2C57.3,77.8,57.3,77.6,57.3,77.5L57.3,77.5z
	"/>
<path class="st3" d="M235.7,75.7l-15.6,19l-7.4-5.9c-1.1-0.9-2.1-1.9-2.8-3l-0.7-1c-0.8-1.1-0.9-2.6-0.4-3.9l1.7-4.2
	c0.6-1.5,2-2.6,3.7-2.7c0.3,0,0.5-0.3,0.5-0.6c0,0,0,0,0,0c-0.2-1.6,0.6-3.2,1.9-4.1l3.8-2.5c1.2-0.8,2.6-0.9,3.9-0.3l1.1,0.5
	c2.6,1.6,5.1,3.4,7.4,5.4c0.3,0.2,0.6,0.5,0.8,0.8L235.7,75.7z"/>
<g class="st1">
	
		<ellipse transform="matrix(0.5985 -0.8011 0.8011 0.5985 219.1685 637.0826)" class="st2" cx="745.1" cy="99.9" rx="5.4" ry="5.4"/>
	<ellipse transform="matrix(0.5985 -0.8011 0.8011 0.5985 215.1842 659.3124)" class="st2" cx="765.3" cy="115" rx="5.4" ry="1.9"/>
	<ellipse transform="matrix(0.5985 -0.8011 0.8011 0.5985 221.7843 622.4307)" class="st2" cx="731.8" cy="90" rx="2" ry="0.7"/>
	
		<rect x="749.7" y="94.8" transform="matrix(0.5985 -0.8011 0.8011 0.5985 217.1948 648.14)" class="st2" width="10.9" height="25.2"/>
	
		<rect x="735.2" y="87.2" transform="matrix(0.5985 -0.8011 0.8011 0.5985 220.7308 628.3726)" class="st2" width="4.1" height="13.6"/>
	
		<ellipse transform="matrix(0.5985 -0.8011 0.8011 0.5985 222.1687 620.2907)" class="st2" cx="729.9" cy="88.5" rx="1.4" ry="0.6"/>
	
		<rect x="732.2" y="86.6" transform="matrix(0.5985 -0.8011 0.8011 0.5985 221.442 624.395)" class="st2" width="2.8" height="9.4"/>
</g>
<path class="st3" d="M378.9,255.8l7.6-1.4l-10.1-1l7.4-2.2l-6.8-0.3l5.6-1.8l-5.1,0.3l5.7-1.3l-6.3-0.1l5.3-0.8L377,247l6.1-0.7
	l-1.4-0.2l11.9-0.7c1-0.1,2,2.3,2.2,5.3s-0.5,5.5-1.5,5.5l-12.2,0.7L378.9,255.8z"/>
<path class="st3" d="M364.6,266.4l-9.1,7.1c-0.3,0.1-0.6,0-0.8-0.2l-1.5,1.2c-0.2,0.2-0.9-0.1-1.3-0.8s-0.7-1.3-0.4-1.5l1.5-1.2
	c-0.2-0.2-0.2-0.6,0-0.8l9.1-7.1c-0.6-2.1,0.1-4.4,1.9-5.8l10.5-8.2l1.2-0.6l-4.6,4l4.3-2.7l-3.9,3.7l5.2-3.5l-3.9,4.3l4-3.2
	l-3.6,4.6l5.8-3.6l-4.8,6l8.9-4.9l-5.5,5.4l3.3-0.8l-10.3,8C368.9,267.2,366.5,267.4,364.6,266.4z"/>
<path class="st4" d="M326.9,5l-0.4-1.4L326,3.8l-0.7-2.6l4.6-1.2l0.7,2.6L330,2.8l0.4,1.4c1.9,0.2,3.5,1.6,4,3.5l2.5,9.5l-9.2,2.4
	l-2.5-9.6C324.7,8.2,325.4,6.2,326.9,5z"/>
<path class="st4" d="M332.5,11.4l10.9,6.4l0,0c1.2,0.7,1.7,2.3,0.9,3.6c-0.2,0.3-0.3,0.5-0.6,0.7c-0.7,0.5-1.1,1.3-1.2,2.1
	c-0.3,1.4-1.6,2.4-3.1,2.1c-0.3-0.1-0.6-0.2-0.8-0.3l0,0l-10.9-6.4L332.5,11.4z"/>
<path class="st3" d="M56.8,278.5l14-20.2l7.9,5.2c1.2,0.8,2.2,1.7,3.1,2.8l0.8,0.9c0.9,1.1,1.1,2.5,0.7,3.8l-1.4,4.4
	c-0.5,1.6-1.8,2.7-3.4,3c-0.3,0-0.5,0.3-0.5,0.6c0,0,0,0,0,0c0.3,1.6-0.3,3.3-1.6,4.3l-3.6,2.8c-1.1,0.8-2.5,1.1-3.8,0.7l-1.1-0.4
	c-2.7-1.4-5.4-3-7.9-4.8c-0.3-0.2-0.6-0.5-0.9-0.8L56.8,278.5z"/>
<path class="st3" d="M73,261l-1.8-4.3c-0.8-2-2.7-3.5-4.8-3.8l-6.8-1.1c-0.4-0.1-0.7-0.3-0.8-0.7l-0.2-0.5l0.4-0.2l-0.8-2.1
	l-6.4,2.5l0.8,2.1l0.4-0.2l0.2,0.5c0.1,0.4,0.1,0.8-0.2,1l-3.7,3.8c-0.7,0.7-0.9,1.6-0.8,2.5l1.6,9.4L73,261z M53.8,260.3
	c0.2,0.9,2.2,7.2,0.1,7.7s-3.2-6-3.4-6.9c-0.3-0.9,0.1-1.8,1-2.1c0.9-0.3,1.8,0.1,2.1,1C53.7,260.1,53.7,260.2,53.8,260.3
	L53.8,260.3z"/>
<polygon class="st3" points="56.8,278.5 56.2,271.2 50.2,270 71.7,260.7 67.8,268.4 "/>
<path class="st3" d="M756.7,297c3.8-4.9,1.6,1,8.6,1.1c2.9,0.1,7.5-3.5,6.2-6.9c-0.8-2-2-3.9-3.5-5.6c1.2-0.2,2-1.3,1.8-2.5
	c0-0.3-0.1-0.5-0.3-0.8c-1.2-2.6-5.1-5.8-5.1-5.8s2.1-4.4,1-5s-3.8-0.9-6.5-0.2s-7.6-2.8-9.8-0.3s-2.7,5.8-2.2,6.7s-3.4,3-2.7,6
	c0.6,2.6,1.5,4.4,2.5,5c0.2,0.1,0.3,0.2,0.5,0.2c1.3,0.3-4.3,2-4,5S752.9,302,756.7,297z M761,275.9c-2.5,1.4-2.5,2-3.7,0.8
	c0,0-0.2-3.9,1.1-4.2s5.2-1.8,5.8-0.8S763.5,274.5,761,275.9z M766.7,284.6c-2.5,0.8-7.2,2.7-8.7-1.8c-0.5-1.5-0.5-3.8,0.3-3.9
	s2.5-0.7,4-0.9s3.4,2.5,3.6,3S769.2,283.8,766.7,284.6L766.7,284.6z M758.6,289.4c-0.5-2.3,3.7-2.2,6.2-2.7s3.2,2.5,4.5,3
	s-0.8,3.6-1.3,5.3s-3.8-0.1-3.8-0.1C760.4,294.8,759.1,291.8,758.6,289.4L758.6,289.4z M753.9,276.6c-1.1,1.4-3.6,1.3-5.9,0.7
	s0.8-3.8,2.5-5.5s4.1,0.2,4.3,0.9C755.1,274.1,754.8,275.5,753.9,276.6L753.9,276.6z M755.1,282.1c0.2,1.2-0.5,2.1-0.8,3.1
	s-3.4,1.4-5.6,1.8c-1.9,0.4-2.8-1.7-3.2-3.5s1.7-2.8,2.3-3.5s3.7-1.6,5.7-1.3S755,280.9,755.1,282.1L755.1,282.1z M746,291.5
	c0.7-0.8,4.6-2.8,8.6-3.6s0.6,2.7,0.9,4.1s-2.2,4.3-4,4.5L747,296C745.5,295.9,745.3,292.3,746,291.5z"/>
<path class="st4" d="M254.6,137.4l4.4,24.2l9.4-1.6c1.4-0.2,2.7-0.7,4-1.3l1.1-0.5c1.2-0.6,2.1-1.8,2.2-3.2l0.5-4.5
	c0.2-1.6-0.5-3.2-1.9-4.1c-0.3-0.2-0.3-0.5-0.1-0.8c0,0,0,0,0,0c1-1.3,1.1-3.1,0.3-4.6l-2.1-4c-0.6-1.2-1.8-2-3.2-2.2l-1.2-0.1
	c-3.1,0.2-6.1,0.6-9.1,1.1c-0.4,0.1-0.8,0.2-1.1,0.3L254.6,137.4z"/>
<path class="st4" d="M245,142.5l-5.3,7.9c-0.5,0.8-0.6,1.8-0.3,2.6l1.9,5c0.1,0.4,0,0.7-0.3,1l-0.4,0.4l-0.3-0.3l-1.6,1.6l4.8,4.9
	l1.7-1.6l-0.3-0.3l0.4-0.4c0.3-0.3,0.6-0.4,1-0.3l6.6,1.8c2.1,0.6,4.4,0,6-1.5l3.4-3.2L245,142.5z M242,153.1
	c-0.7-0.6-0.9-1.6-0.3-2.3c0.6-0.7,4.2-6.2,5.9-4.9s-2.7,6.2-3.3,7C243.8,153.6,242.7,153.7,242,153.1z"/>
<polygon class="st4" points="254.6,137.4 251.1,143.9 245,142.5 260.9,159.8 260.4,151.2 "/>
</svg>
