<?xml version="1.0" encoding="utf-8"?>
<!-- Generator: Adobe Illustrator 19.2.1, SVG Export Plug-In . SVG Version: 6.00 Build 0)  -->
<svg version="1.1" id="Layer_1" xmlns="http://www.w3.org/2000/svg" xmlns:xlink="http://www.w3.org/1999/xlink" x="0px" y="0px"
	 viewBox="0 0 730 704.2" style="enable-background:new 0 0 730 704.2;" xml:space="preserve">
<style type="text/css">
	.st0{opacity:0.5;fill:#FFFFFF;enable-background:new    ;}
	.st1{fill:#F79520;}
	.st2{fill:#F15A2B;}
	.st3{opacity:0.5;}
	.st4{fill:#FFFFFF;}
</style>
<title>cluster1</title>
<path class="st0" d="M299.5,93.3c-13.8,10.1-16.8,29.5-6.6,43.3c10.1,13.8,29.5,16.8,43.3,6.6c13.8-10.1,16.8-29.5,6.7-43.3
	C332.8,86.2,313.4,83.2,299.5,93.3C299.5,93.3,299.5,93.3,299.5,93.3z M309.4,106.9c6.3-4.6,15.2-3.3,19.9,3.1
	c4.6,6.3,3.3,15.2-3.1,19.9c-6.3,4.6-15.2,3.3-19.9-3.1C301.7,120.4,303.1,111.5,309.4,106.9C309.4,106.9,309.4,106.9,309.4,106.9z"
	/>
<path class="st0" d="M148.9,689.2l4.3,0.5c0,0,8.7-1.5,10-1.4s4.5,0.8,4.5,0.8l4.5,6.6l1,4.8l6.7,3l7.4,0.8l2.2-5l-6.7-6.8l0.9-8.4
	l-3.6-4.2l2-3.9l-0.6-8.1l1.1-9.5l-2.6-2.2l-13.8,5.9c0,0-7.1,0.9-8.3,1.5s-0.4,4-0.4,4l-3.6,6.3l-2.3,6.9l-6.5-0.2l-4.6,10.2
	L148.9,689.2z M177.8,685.2l2.7,1.4l-0.5,4.9l0.7,4.2l4.4,3l-0.3,2.5l-2.8-2l-5.6-0.6l0.5-4.3l-2.6-3.6L177.8,685.2z M147.8,681.9
	l4.9,1.9l1.2,3.4l-4-0.5l-6,0.4L147.8,681.9z"/>
<path class="st1" d="M381.5,36.3l-2.6,5.6l-4.1,1.3l0.7,2.7l1.5,6l8.3,3l3.7,2.6l12.3-1.8l4.5-1.9l1.9-5.3l-3.8-5.6l5.2-3.9
	l-1.4-4.3l-2.5-5.8l1-4.9l-3-4l-3.3-1.5l-4.5,4l2.6,4.9l-2.8,1.5l-3.8,1.8l-4-5.5l-2.9-4.2l-6.4,3.4c-0.1,1.9-0.3,3.7-0.6,5.6
	c-0.3,0.7,1.1,5.9,1.1,5.9L381.5,36.3z M401.2,27.4l-2.3-3.8l1-2.1l1.5,0.1l2.3,2.3l-0.1,2.4l-0.5,4.1l-1.4,3l-3.8-1.8L401.2,27.4z
	 M382.7,28.7l-2.1-1.5l2-4.2l2.5,1.7l1.5,3.8l2,2.5l-1.9,0.3L382.7,28.7z"/>
<path class="st2" d="M156.4,615.7l18.6,0.4c0.3,0,0.6-0.2,0.6-0.5c0-0.1,0-0.2-0.1-0.3l-1-2c-0.3-0.5-0.8-0.9-1.4-0.9l-16.6-0.4
	L156.4,615.7z"/>
<path class="st2" d="M156.4,615.7l-18.6-0.4c-0.3,0-0.6-0.3-0.6-0.6c0-0.1,0-0.2,0.1-0.3l1.1-2c0.3-0.5,0.9-0.9,1.5-0.8l16.6,0.4
	L156.4,615.7z"/>
<path class="st2" d="M141.1,607.9l0.2,0.1l2.2,1.3l0.6,0.4l2.2,1.3l0.2,0.1l2.2,1.3l0.6,0.4l2.2,1.3l0.2,0.1l2.2,1.3l0.6,0.4
	l2.2,1.3l0.2,0.1l2.2,1.3l0.6,0.4l2.2,1.3l0.2,0.1l2.2,1.3l0.6,0.4l2.2,1.3l0.2,0.1l2.9,1.7l-1.9,1.9l-0.2,0.2l0,0
	c-0.9,0.7-2.2,0.8-3.2,0.1c-1.2-0.6-1.8-1.9-1.4-3.2l0,0c0-0.1,0-0.3-0.2-0.3c-0.1,0-0.2,0-0.3,0.1l-0.1,0.1l-0.2,0.2l0,0
	c-0.9,0.7-2.2,0.8-3.2,0.1c-1.2-0.6-1.8-1.9-1.4-3.2l0,0c0-0.1,0-0.3-0.2-0.3c-0.1,0-0.2,0-0.3,0.1l-0.1,0.1l-0.2,0.2l0,0
	c-0.9,0.7-2.2,0.8-3.2,0.1c-1.2-0.6-1.8-1.9-1.4-3.2l0,0c0-0.1,0-0.3-0.2-0.3c-0.1,0-0.2,0-0.3,0.1l-0.1,0.1l-0.2,0.2l0,0
	c-0.9,0.7-2.2,0.8-3.2,0.1c-1.2-0.6-1.8-1.9-1.4-3.2l0,0c0-0.1,0-0.3-0.2-0.3c-0.1,0-0.2,0-0.3,0.1l-0.1,0.1l-0.2,0.2l0,0
	c-0.9,0.7-2.2,0.8-3.2,0.1c-1.2-0.6-1.8-1.9-1.4-3.2l0,0c0-0.1,0-0.3-0.2-0.3c-0.1,0-0.2,0-0.3,0.1l-0.1,0.1l-0.2,0.2l0,0
	c-0.9,0.7-2.2,0.8-3.2,0.1c-1.2-0.6-1.8-1.9-1.4-3.2l0.7-2.5L141.1,607.9z"/>
<polyline class="st2" points="170.5,624.8 168.2,616.5 143.4,605 138.2,606.3 "/>
<path class="st2" d="M175.5,615.3l0.2-5c0,0,0.1-2.3-3.5-2.3l-31.1,0l-2.1,5.8L175.5,615.3z"/>
<path class="st1" d="M43.3,246.9l12.5,3.1c0.9,0.2,1.9,0,2.6-0.6l4.1-3.5c0.3-0.2,0.7-0.2,1.1-0.1l0.5,0.2l1.3-2.7l1.3-2.7l-0.5-0.2
	c-0.3-0.2-0.6-0.5-0.6-0.9l-0.6-6.8c-0.2-2.2-1.5-4.1-3.4-5.1l-12.6-6.4c-1.3-0.6-2.6-1.1-4-1.3l-1.2-0.2c-1.4-0.2-2.7,0.2-3.7,1.2
	l-3.1,3.3c-1.1,1.2-1.5,2.9-0.9,4.5l0,0c0.1,0.3,0,0.6-0.3,0.7c0,0,0,0,0,0l0,0c-1.6,0.5-2.7,1.9-2.9,3.5l-0.7,4.5
	c-0.2,1.4,0.3,2.7,1.3,3.7l0.9,0.8c2.6,1.7,5.2,3.2,8,4.5C42.6,246.7,42.9,246.8,43.3,246.9z M48.8,244.1c0.6-2,6.8,0.4,7.7,0.7
	c0.9,0.3,1.3,1.3,1,2.1c-0.3,0.8-1.1,1.2-2,1C54.6,247.7,48.2,246.1,48.8,244.1L48.8,244.1z"/>
<rect x="63" y="242.8" transform="matrix(0.4343 -0.9008 0.9008 0.4343 -182.2266 197.8162)" class="st1" width="6.8" height="2.3"/>
<g class="st3">
	<path class="st4" d="M673.9,300.4c-3.1,0-6.1,0.1-9.2,0.5l-1.2,0.3c-1.3,0.4-2.4,1.4-2.8,2.7l-1.4,4.4c-0.5,1.6-0.1,3.3,1.1,4.4
		l0,0c0.2,0.2,0.2,0.6,0,0.8c0,0,0,0,0,0l0,0c-1.2,1.1-1.6,2.8-1.2,4.4l1.3,4.4c0.4,1.3,1.4,2.4,2.8,2.8l1.2,0.4
		c1.3,0.4,2.7,0.6,4.1,0.6l14.2-0.2c2.2,0,4.2-1.2,5.3-3l3.6-5.9c0.2-0.3,0.6-0.5,0.9-0.5h0.6v-3v-3h-0.6c-0.4,0-0.7-0.2-0.9-0.5
		l-2.1-4.9c-0.4-0.9-1.1-1.5-2-1.7l-12.5-2.7C674.7,300.5,674.3,300.4,673.9,300.4z M686.5,305c0.9,0.2,1.5,1,1.3,1.9
		c-0.2,0.9-1,1.4-1.8,1.3c-0.9-0.1-7.5-0.7-7.2-2.8S685.5,304.8,686.5,305L686.5,305z"/>
	
		<rect x="691.1" y="312.3" transform="matrix(8.901099e-03 -1 1 8.901099e-03 374.8825 1005.1371)" class="st4" width="6.8" height="2.3"/>
</g>
<path class="st0" d="M96.4,9.8c0.2,0,0.3-0.1,0.5-0.2c1.1-0.5,2.1-2.2,2.9-4.8c0.6-2-0.8-3.7-1.7-4.9l-2.3,0.4
	c0.2,0.1,0.4,0.2,0.5,0.4c0.5,0.7,2.6,1.8,2,3.6s-1.7,3.8-3.5,3.3c-2.2-0.6-5.2-1.2-5.4-2.2s-0.8-2-0.6-3.1C88.9,2,89,1.8,89,1.5
	l-2.7,0.4c-0.1,0.3-0.2,0.6-0.3,0.9c-1.8,4.3-6.4,2-8.8,1.1c-0.2-0.1-0.5-0.2-0.6-0.4l-2.1,0.3c0.4,0.5,0.9,0.9,1.5,1.1
	C74.3,6.5,73,8.3,72,10.2c-1.6,3.2,2.7,7.2,5.6,7.3c7,0.4,5.2-5.6,8.6-0.5s13.3,1,13.9-2S95.1,10,96.4,9.8z M78.8,14.3
	c0,0-3.5,1.6-3.8-0.2s-2.1-4.9-0.8-5.4s2.2-3.4,4.7-2.7s6.7,0.9,6,3.2S82.6,14.5,78.8,14.3L78.8,14.3z M95.9,16.8L91.4,17
	c-1.8-0.3-4.1-3.4-3.6-4.8S85.1,7,89,8.2s7.7,3.4,8.3,4.3C97.9,13.3,97.4,16.8,95.9,16.8L95.9,16.8z"/>
<g class="st3">
	<path class="st4" d="M495.9,338.3l-0.5,1.3l0.5,0.2l-1.1,2.5l-4.4-1.9l1.1-2.5l0.5,0.2l0.5-1.3c-1.4-1.4-1.8-3.4-1-5.2l3.8-9
		l8.7,3.7l-3.8,9C499.6,337.2,497.8,338.4,495.9,338.3z"/>
	<path class="st4" d="M495.4,330l-4.7-11.7l0,0c-0.5-1.3,0.1-2.9,1.5-3.4c0.3-0.1,0.6-0.2,0.9-0.2c0.8,0,1.7-0.4,2.3-0.9
		c1.1-1,2.7-0.9,3.7,0.2c0.2,0.2,0.4,0.5,0.5,0.8l0,0l4.7,11.7L495.4,330z"/>
</g>
<g class="st3">
	<path class="st4" d="M484,416.8l1.6,24.5l9.5-0.4c1.4-0.1,2.8-0.3,4.1-0.8l1.1-0.4c1.3-0.5,2.3-1.6,2.6-2.9l1.1-4.5
		c0.4-1.6-0.2-3.3-1.4-4.3c-0.2-0.2-0.3-0.5-0.1-0.8c0,0,0,0,0,0c1.1-1.2,1.4-2.9,0.8-4.5l-1.6-4.2c-0.5-1.3-1.6-2.2-3-2.5l-1.2-0.3
		c-3.1-0.2-6.1-0.2-9.2,0c-0.4,0-0.8,0.1-1.2,0.2L484,416.8z"/>
	<path class="st4" d="M473.9,420.7l-6.2,7.2c-0.6,0.7-0.8,1.7-0.6,2.6l1.2,5.2c0.1,0.4-0.1,0.8-0.4,1l-0.5,0.4l-0.3-0.4l-1.8,1.4
		l4.2,5.4l1.8-1.4l-0.3-0.4l0.5-0.4c0.3-0.2,0.7-0.3,1-0.2l6.4,2.5c2,0.8,4.3,0.5,6.1-0.8l3.8-2.8L473.9,420.7z M469.6,430.8
		c-0.6-0.6-0.6-1.7,0-2.3c0.6-0.7,4.9-5.7,6.4-4.2s-3.4,5.9-4.1,6.5C471.4,431.5,470.3,431.5,469.6,430.8
		C469.7,430.9,469.7,430.8,469.6,430.8L469.6,430.8z"/>
	<polygon class="st4" points="484,416.8 479.7,422.7 473.9,420.7 487.6,439.7 488.2,431.1 	"/>
</g>
<path class="st2" d="M513.2,346.4c0.3,2.3,2.4,4,4.8,3.9l11.7-0.6l0.6,11.1l-11.7,0.6c-2.4,0.1-4.3,2-4.3,4.4c0,2.4,1.9,4.4,4.4,4.5
	c0.1,0,0.2,0,0.3,0l13.2-0.7l23.2-1.3c3-0.2,5.4-2.8,5.2-5.8l-1-17.7c-0.2-3-2.8-5.4-5.8-5.2l-23.2,1.3l-13.2,0.7
	c-2.4,0.2-4.3,2.3-4.1,4.7C513.2,346.3,513.2,346.4,513.2,346.4z M529.8,367.4L519,368c-1.2,0.1-2.3-0.8-2.5-2
	c-0.1-1.2,0.7-2.3,2-2.4c0,0,0.1,0,0.1,0l10.9-0.6c1.2-0.1,2.3,0.9,2.3,2.1c0,0,0,0,0,0l0,0c0.1,1.2-0.8,2.3-2,2.4
	C529.9,367.5,529.8,367.5,529.8,367.4L529.8,367.4z M528.7,347.4l-10.8,0.6c-1.2,0.1-2.3-0.8-2.5-2c-0.1-1.2,0.7-2.3,2-2.4
	c0,0,0.1,0,0.1,0l10.9-0.6c1.2-0.1,2.3,0.9,2.3,2.1c0,0,0,0,0,0l0,0c0.2,1.2-0.7,2.3-1.9,2.5c-0.1,0-0.1,0-0.2,0L528.7,347.4z"/>
<path class="st1" d="M65.5,484.9c0,0,5.8,1.2,6.5,0.8s6.1-1,6.1-1l3.4-7.3l-4.8-2.9l-6.3-4.1l1.8-4.3l1.5-3.2l5.6,2.5l4.1-5.2
	l-1.9-3.5l-4.6-3.1l-5.4,1.3l-6.6-2.4l-4.8-1.3l-4,6l-6.4-3.9l-5.8,2.4l-1.8,5.1L41,474.7l3.1,4l3.8,9l6.7,1.3l3,0.6l1.2-4.6l6-3.2
	L65.5,484.9z M68.8,463.3l-2.2-4.1l3.2-1.7l4.5-0.8l2.6-0.2l2.7,2.4l0.2,1.7l-2.2,1.2l-4.3-2.3L68.8,463.3z M70.1,475.7l0.2-2.1
	l2.8,2l4.3,1.4l2,2.7l-4.6,2.5l-1.8-2.2L70.1,475.7z"/>
<path class="st1" d="M342.6,453.1l-2.6,5.6l-4.1,1.3l0.7,2.7l1.5,6l8.3,3l3.7,2.6l12.3-1.8l4.5-1.9l1.9-5.3l-3.8-5.6l5.2-3.9
	l-1.4-4.3l-2.5-5.8l1-4.9l-3-4l-3.3-1.5l-4.5,4l2.6,4.9l-2.8,1.5l-3.8,1.8l-4-5.5l-2.9-4.2l-6.4,3.5c-0.1,1.9-0.3,3.7-0.6,5.5
	c-0.3,0.7,1.1,5.9,1.1,5.9L342.6,453.1z M362.3,444.2l-2.3-3.8l1-2.1l1.5,0.1l2.3,2.3l-0.1,2.4l-0.5,4.1l-1.4,3l-3.9-1.9
	L362.3,444.2z M343.7,445.4l-2.1-1.5l2-4.2l2.5,1.7l1.5,3.8l2,2.5l-1.9,0.3L343.7,445.4z"/>
<path class="st2" d="M712,180.1c-0.4,0.5-0.2,1.3,0.3,1.6l1,0.7l-4,6.2c-0.6,0.9-0.4,2.2,0.6,2.8c0,0,0,0,0,0l12.8,8.3
	c0.9,0.6,2.2,0.4,2.8-0.6c0,0,0,0,0,0l4.2-6.5c0.6-0.9,0.4-2.2-0.6-2.8c0,0,0,0,0,0l-11.3-7.4l-1.5-1l-2.7-1.8
	C713,179.4,712.3,179.5,712,180.1C712,180.1,712,180.1,712,180.1z M723,196.6c-0.5,0.2-1,0-1.3-0.4c-0.2-0.5,0-1,0.4-1.3
	c0.3-0.1,0.7-0.1,0.9,0.1C723.5,195.5,723.4,196.2,723,196.6L723,196.6z M721.4,195.6c-0.5,0.2-1,0-1.3-0.4c-0.2-0.5,0-1,0.4-1.3
	c0.3-0.1,0.7-0.1,0.9,0.1C721.9,194.4,721.8,195.1,721.4,195.6z M719.8,194.5c-0.5,0.2-1,0-1.3-0.4c-0.2-0.5,0-1,0.4-1.3
	c0.3-0.1,0.7-0.1,0.9,0.1C720.2,193.4,720.2,194.1,719.8,194.5z M726.3,195.1c-0.5,0.2-1,0-1.3-0.4c-0.2-0.5,0-1,0.4-1.3
	c0.3-0.1,0.7-0.1,0.9,0.1C726.8,193.9,726.7,194.6,726.3,195.1z M724.7,194c-0.5,0.2-1,0-1.3-0.4c-0.2-0.5,0-1,0.4-1.3
	c0.3-0.1,0.7-0.1,0.9,0.1C725.2,192.9,725.1,193.6,724.7,194L724.7,194z M723.1,193c-0.5,0.2-1,0-1.3-0.4c-0.2-0.5,0-1,0.4-1.3
	c0.3-0.1,0.7-0.1,0.9,0.1C723.6,191.8,723.5,192.5,723.1,193z M721.5,191.9c-0.5,0.2-1,0-1.3-0.4c-0.2-0.5,0-1,0.4-1.3
	c0.3-0.1,0.7-0.1,0.9,0.1C722,190.8,721.9,191.5,721.5,191.9L721.5,191.9z M726.4,191.4c-0.5,0.2-1,0-1.3-0.4c-0.2-0.5,0-1,0.4-1.3
	c0.3-0.1,0.7-0.1,0.9,0.1C726.9,190.3,726.8,191,726.4,191.4L726.4,191.4z M724.8,190.4c-0.5,0.2-1,0-1.3-0.4c-0.2-0.5,0-1,0.4-1.3
	c0.3-0.1,0.7-0.1,0.9,0.1C725.3,189.2,725.2,189.9,724.8,190.4L724.8,190.4z M723.1,189.3c-0.5,0.2-1,0-1.3-0.4
	c-0.2-0.5,0-1,0.4-1.3c0.3-0.1,0.7-0.1,0.9,0.1C723.6,188.2,723.5,188.9,723.1,189.3z M721,186.2c0.4,0.3,0.5,0.8,0.3,1.2l-4,6.1
	c-0.3,0.4-0.8,0.5-1.2,0.3l-5.2-3.4c-0.4-0.3-0.5-0.8-0.3-1.2l4-6.1c0.3-0.4,0.8-0.5,1.2-0.3L721,186.2z"/>
<path class="st1" d="M557.2,184.1c1.8-2.4-2.1-6.8-0.8-6.4c0.2,0.1,0.3,0.1,0.5,0.1c1.2,0,2.9-1,4.8-3c2.2-2.2-0.1-6.1,0.8-6.5
	s2.3-3.6,1.7-6.8s-6.6-2.8-8.6-4.9s-4.3-3.2-5.7-3.2s-1.8,4.8-1.8,4.8s-5,0.7-7.4,2.3c-1.1,0.6-1.5,1.9-0.9,3
	c0.1,0.2,0.3,0.5,0.5,0.6c-2.1,0.6-4.1,1.6-5.9,2.9c-2.9,2.1-0.8,7.6,1.7,9.1c6,3.5,7.2-2.6,7.9,3.5S555.3,186.5,557.2,184.1z
	 M550.6,154.1c1-0.6,3.5,2.7,4.6,3.7s-1.2,4.1-1.2,4.1c-1.6,0.4-1.3-0.1-2.7-2.6S549.6,154.6,550.6,154.1L550.6,154.1z M544.4,161.1
	c0.4-0.3,3.5-1.6,4.6-0.7s2.2,2.3,2.9,2.8s-0.5,2.5-1.7,3.5c-3.6,3-6.6-1.1-8.3-3.1S544,161.4,544.4,161.1L544.4,161.1z
	 M538.6,173.7c0,0-3.8-0.2-3.3-1.9s0.3-5.3,1.7-5.2s3.5-2.1,5.4-0.2s5.5,3.9,3.9,5.6S541.9,175.6,538.6,173.7L538.6,173.7z
	 M558.2,159.7c0.6-0.4,3.5-0.8,4.2,1.5s1.5,6.7-0.7,6s-4.5-1.9-4.7-3.7C556.8,162.2,557.3,160.8,558.2,159.7L558.2,159.7z
	 M556.2,165.6c1.9,0.8,4,3.2,4.2,4.1s1.5,2.8,0.1,4.1s-3.2,2.6-4.6,1.3c-1.7-1.5-4.1-3.5-3.8-4.5s0.2-2.1,0.9-3
	S554.3,164.8,556.2,165.6L556.2,165.6z M552.7,183.8l-4.1-2c-1.4-1.1-2.1-4.9-1-5.9s0-5.8,3-3s5.3,6.5,5.5,7.6
	S554,184.4,552.7,183.8L552.7,183.8z"/>
<path class="st1" d="M48.4,290.1c-0.7,2.2,0.4,4.7,2.6,5.6l10.8,4.6l-4.4,10.2L46.6,306c-2.2-1-4.7-0.1-5.8,2
	c-1.1,2.2-0.2,4.8,1.9,5.9c0.1,0,0.2,0.1,0.3,0.1l12.2,5.2l21.4,9.2c2.8,1.2,6.1-0.1,7.3-2.9c0,0,0,0,0,0l7-16.3
	c1.2-2.8-0.1-6.1-2.9-7.3c0,0,0,0,0,0l-21.4-9.1l-12.2-5.2c-2.2-1-4.8,0-5.8,2.3C48.4,290,48.4,290.1,48.4,290.1z M54,316.4
	l-9.9-4.2c-1.1-0.5-1.7-1.7-1.3-2.9c0.4-1.2,1.7-1.8,2.8-1.3c0.1,0,0.1,0,0.2,0.1l10,4.3c1.1,0.5,1.7,1.8,1.2,2.9c0,0,0,0,0,0l0,0
	C56.4,316.3,55.1,316.9,54,316.4C54,316.4,54,316.4,54,316.4z M61.8,298l-9.9-4.2c-1.1-0.5-1.7-1.7-1.3-2.9c0.4-1.2,1.7-1.8,2.8-1.3
	c0.1,0,0.1,0,0.2,0.1l10,4.3c1.1,0.5,1.7,1.8,1.2,2.9c0,0,0,0,0,0l0,0C64.3,298,63,298.5,61.8,298C61.8,298,61.8,298,61.8,298z"/>
<path class="st2" d="M564.6,272.6l8.3-7.6l-2.2-6.1l5.9-4.3l4.9-5.4c0,0,3.3-0.3,3.6-1.6s-1.1-8.4-1.1-8.4l1.3-14.9l-2.9-1.8l-8.7,4
	l-7.9,1.9l-3.1,3.1l-5.1-2l-7.7,3.5l-8.5-4.2l-4.1,3.6l3.1,6.8l4.9,5.4l4.9-0.5l7.6,2.2c0,0,1.6,2.9,2.1,4s1.8,9.9,1.8,9.9l1.8,4
	L564.6,272.6z M554.1,240.4l-4.2-1.3l-4,1.8l-2.3-5.1l-2.8-2.1l2.2-1l4.2,3.2l4.2-0.6l4.5-2l2.2,2.2L554.1,240.4z M566.8,268.2
	l-1.5-5.8l-1.7-3.7h3.6l3.3,4L566.8,268.2z"/>
<path class="st1" d="M315.9,470.1c0-0.2,0-0.4-0.1-0.5c-0.3-1.2-1.9-2.5-4.3-3.7c-1.8-0.9-3.8,0.2-5.1,0.9v2.3
	c0.1-0.2,0.3-0.3,0.5-0.4c0.8-0.4,2.2-2.2,3.9-1.4s3.5,2.3,2.6,4c-1,2-2.1,5-3.1,5s-2.1,0.5-3.2,0c-0.3-0.1-0.5-0.2-0.8-0.2v2.7
	c0.3,0.1,0.6,0.3,0.8,0.4c3.9,2.5,0.9,6.6-0.4,8.9c-0.1,0.2-0.3,0.4-0.5,0.6v2.1c0.6-0.3,1-0.7,1.3-1.3c1.2,1.8,2.8,3.4,4.5,4.8
	c2.9,2.1,7.5-1.5,8.2-4.3c1.6-6.8-4.7-6.1,1-8.6s3.2-13,0.3-14S315.8,471.4,315.9,470.1z M317.4,488.2c0,0,1,3.7-0.8,3.7
	s-5.2,1.3-5.5-0.1s-3-2.7-1.8-5.1s2-6.5,4.2-5.4S318.2,484.4,317.4,488.2L317.4,488.2z M322.7,471.8c-0.2,1.5-0.6,4.5-0.6,4.5
	c-0.6,1.7-4,3.5-5.4,2.8s-5.5,1.8-3.8-1.9s4.6-7,5.6-7.5S322.9,470.3,322.7,471.8z"/>
<path class="st2" d="M248.8,203.3l-0.1-0.1l-2-1.5l-0.6-0.5l-2-1.5l-0.1-0.1l-2-1.5l-0.7-0.5l-2-1.5l-0.1-0.1l-2-1.5l-0.6-0.5
	l-2-1.5l-0.1-0.1l-2-1.5l-0.6-0.5l-2-1.5l-0.1-0.1l-2-1.5l-0.6-0.5l-2.1-1.5l-0.1-0.1l-2.6-2l2.1-1.7l0.2-0.2l0,0
	c1-0.6,2.3-0.5,3.2,0.3c1.1,0.7,1.5,2.1,1,3.3l0,0c-0.1,0.1,0,0.3,0.1,0.3c0.1,0,0.2,0,0.3,0l0.1-0.1l0.2-0.2l0,0
	c1-0.6,2.3-0.5,3.2,0.3c1.1,0.7,1.5,2.1,1,3.3l0,0c-0.1,0.1,0,0.3,0.1,0.3c0.1,0,0.2,0,0.3,0l0.1-0.1l0.2-0.2l0,0
	c1-0.6,2.3-0.5,3.2,0.3c1.1,0.7,1.5,2.1,1,3.3l0,0c-0.1,0.1,0,0.3,0.1,0.3c0.1,0,0.2,0,0.3,0l0.1-0.1l0.2-0.2l0,0
	c1-0.6,2.3-0.5,3.2,0.3c1.1,0.7,1.5,2.1,1,3.3l0,0c-0.1,0.1,0,0.3,0.1,0.3c0.1,0,0.2,0,0.3,0l0.1-0.1l0.2-0.2l0,0
	c1-0.6,2.3-0.5,3.2,0.3c1.1,0.7,1.5,2.1,1,3.3l0,0c-0.1,0.1,0,0.3,0.1,0.3c0.1,0,0.2,0,0.3,0l0-0.1l0.2-0.2l0,0
	c1-0.6,2.3-0.5,3.2,0.3c1.1,0.7,1.5,2.1,1,3.3l-1,2.4L248.8,203.3z"/>
<polyline class="st2" points="221.8,182.8 223,191.3 246.1,205.8 251.4,205.3 "/>
<path class="st2" d="M194.3,136.6l8.3-7.6l-2.2-6.1l5.9-4.3l4.9-5.4c0,0,3.3-0.3,3.6-1.6s-1.1-8.4-1.1-8.4l1.3-14.9l-2.9-1.8l-8.7,4
	l-7.9,1.9l-3.1,3.1l-5.1-2l-7.7,3.5l-8.6-4.2l-4.1,3.6l3.1,6.8l4.9,5.4l4.9-0.6l7.6,2.2c0,0,1.6,2.9,2.1,4s1.8,9.9,1.8,9.9l1.8,4
	L194.3,136.6z M183.9,104.4l-4.2-1.3l-4,1.8l-2.4-5.1l-2.8-2.1l2.2-1l4.2,3.2l4.2-0.6l4.5-2l2.2,2.2L183.9,104.4z M196.6,132.2
	l-1.5-5.8l-1.7-3.7h3.6l3.3,4L196.6,132.2z"/>
<path class="st2" d="M691.4,12.8l4.5,24.2l9.4-1.5c1.4-0.2,2.7-0.7,4-1.3l1.1-0.5c1.2-0.6,2.1-1.8,2.2-3.2l0.5-4.5
	c0.2-1.6-0.5-3.2-1.9-4.1c-0.3-0.2-0.3-0.5-0.1-0.8c0,0,0,0,0,0c1-1.3,1.1-3.1,0.3-4.6l-2.1-4c-0.6-1.2-1.8-2-3.2-2.2l-1.2-0.1
	c-3.1,0.2-6.1,0.6-9.1,1.1c-0.4,0.1-0.8,0.2-1.1,0.3L691.4,12.8z"/>
<path class="st2" d="M681.8,17.8l-5.3,7.9c-0.5,0.8-0.6,1.8-0.3,2.6l1.8,5c0.1,0.4,0,0.7-0.3,1l-0.4,0.4l-0.3-0.3l-1.7,1.6l4.8,4.9
	l1.7-1.6l-0.3-0.3l0.4-0.4c0.3-0.3,0.6-0.4,1-0.3l6.6,1.8c2.1,0.6,4.4,0,6-1.5l3.4-3.2L681.8,17.8z M678.8,28.4
	c-0.7-0.6-0.9-1.6-0.3-2.3c0.6-0.7,4.2-6.2,5.9-4.9s-2.7,6.2-3.3,7C680.6,28.9,679.6,29,678.8,28.4L678.8,28.4z"/>
<polygon class="st2" points="691.4,12.8 687.9,19.2 681.8,17.9 697.7,35.1 697.2,26.5 "/>
<g class="st3">
	<path class="st4" d="M509.2,174.6l0.2,0.1l2.4,0.9l0.7,0.2l2.4,0.9l0.2,0.1l2.4,0.9l0.7,0.2l2.4,0.9l0.2,0.1l2.4,0.9l0.7,0.2
		l2.4,0.9l0.2,0.1l2.4,0.9l0.7,0.2l2.4,0.9l0.2,0.1l2.4,0.9l0.7,0.2l2.4,0.9l0.2,0.1l3.1,1.1l-1.5,2.3c0,0.1-0.1,0.2-0.2,0.2l0,0
		c-0.8,0.9-2,1.1-3.1,0.7c-1.3-0.4-2.1-1.6-1.9-2.9l0,0c0-0.1-0.1-0.3-0.2-0.3c-0.1,0-0.2,0-0.3,0.1l-0.1,0.1c0,0.1-0.1,0.2-0.2,0.2
		l0,0c-0.8,0.9-2,1.1-3.1,0.7c-1.3-0.4-2.1-1.6-1.9-2.9l0,0c0-0.1-0.1-0.3-0.2-0.3c-0.1,0-0.2,0-0.3,0.1l-0.1,0.1
		c0,0.1-0.1,0.2-0.2,0.2l0,0c-0.8,0.9-2,1.1-3.1,0.7c-1.3-0.4-2.1-1.6-1.9-2.9l0,0c0-0.1-0.1-0.3-0.2-0.3c-0.1,0-0.2,0-0.3,0.1
		l-0.1,0.1c0,0.1-0.1,0.2-0.2,0.2l0,0c-0.8,0.9-2,1.1-3.1,0.7c-1.3-0.4-2.1-1.6-1.9-2.9l0,0c0-0.1-0.1-0.3-0.2-0.3
		c-0.1,0-0.2,0-0.3,0.1l-0.1,0.1c0,0.1-0.1,0.2-0.2,0.2l0,0c-0.8,0.9-2,1.1-3.1,0.7c-1.3-0.4-2.1-1.6-1.9-2.9l0,0
		c0-0.1-0.1-0.3-0.2-0.3c-0.1,0-0.2,0-0.3,0.1L511,178c0,0.1-0.1,0.2-0.2,0.2l0,0c-0.8,0.9-2,1.1-3.1,0.7c-1.3-0.4-2.1-1.6-1.9-2.9
		l0.3-2.6L509.2,174.6z"/>
	<polyline class="st4" points="541,186.2 537.3,178.4 511,171.4 506.1,173.5 	"/>
</g>
<g class="st3">
	<path class="st4" d="M588.7,81.3l0.1-8.4l-0.9-2.1c0-0.7-2.6-1.3-5.9-1.4s-5.9,0.5-5.9,1.2l-1,2.1l-0.1,8.4L588.7,81.3z"/>
	<path class="st4" d="M577.9,74.1l-7.1,4.4l-1.3,1.9c-0.6,0.4,0.3,2.9,2,5.7s3.6,4.7,4.2,4.3l2.3-0.3l7.1-4.4L577.9,74.1z"/>
	<polygon class="st4" points="578,90.2 584.4,88.7 582.8,85.9 586.5,86 584.5,82.4 588.7,81.3 590.2,78 586.4,74.2 576.2,73.2 
		573.5,74 574.4,77.8 570.9,76.4 570.8,78.6 	"/>
</g>
<g class="st3">
	<path class="st4" d="M97.9,65.3c-13.6,4-21.4,18.2-17.5,31.8c4,13.6,18.2,21.4,31.8,17.5c13.6-4,21.4-18.2,17.5-31.8c0,0,0,0,0,0
		C125.7,69.2,111.5,61.4,97.9,65.3z M99.3,70.1c11-3.2,22.5,3.1,25.7,14.1c3.2,11-3.1,22.5-14.1,25.7c-11,3.2-22.5-3.1-25.7-14.1
		c0,0,0,0,0,0C82,84.8,88.3,73.3,99.3,70.1z"/>
	<rect x="83.4" y="89.7" transform="matrix(0.9603 -0.279 0.279 0.9603 -20.9369 32.8858)" class="st4" width="43.4" height="0.7"/>
	
		<rect x="104.7" y="68.3" transform="matrix(0.9603 -0.279 0.279 0.9603 -20.9335 32.8832)" class="st4" width="0.7" height="43.4"/>
	
		<rect x="83.4" y="89.7" transform="matrix(0.4818 -0.8763 0.8763 0.4818 -24.4155 138.7049)" class="st4" width="43.4" height="0.7"/>
	
		<rect x="104.7" y="68.3" transform="matrix(0.4818 -0.8763 0.8763 0.4818 -24.4139 138.6966)" class="st4" width="0.7" height="43.4"/>
	
		<rect x="83.4" y="89.7" transform="matrix(0.7829 -0.6221 0.6221 0.7829 -33.1839 84.9005)" class="st4" width="43.4" height="0.7"/>
	
		<rect x="104.7" y="68.3" transform="matrix(0.7829 -0.6221 0.6221 0.7829 -33.1782 84.8937)" class="st4" width="0.7" height="43.4"/>
	
		<rect x="83.4" y="89.7" transform="matrix(0.1137 -0.9935 0.9935 0.1137 3.7077 184.1376)" class="st4" width="43.4" height="0.7"/>
	
		<rect x="104.7" y="68.3" transform="matrix(0.1137 -0.9935 0.9935 0.1137 3.7003 184.1228)" class="st4" width="0.7" height="43.4"/>
	
		<rect x="83.4" y="89.7" transform="matrix(0.8875 -0.4608 0.4608 0.8875 -29.6521 58.5412)" class="st4" width="43.4" height="0.7"/>
	
		<rect x="104.7" y="68.3" transform="matrix(0.8875 -0.4608 0.4608 0.8875 -29.6473 58.5364)" class="st4" width="0.7" height="43.4"/>
	
		<rect x="83.4" y="89.7" transform="matrix(0.3017 -0.9534 0.9534 0.3017 -12.4387 163.0064)" class="st4" width="43.4" height="0.7"/>
	
		<rect x="104.7" y="68.3" transform="matrix(0.3017 -0.9534 0.9534 0.3017 -12.4382 162.9995)" class="st4" width="0.7" height="43.4"/>
	
		<rect x="83.4" y="89.7" transform="matrix(0.6467 -0.7628 0.7628 0.6467 -31.5194 111.9416)" class="st4" width="43.4" height="0.7"/>
	
		<rect x="104.7" y="68.3" transform="matrix(0.6467 -0.7628 0.7628 0.6467 -31.5176 111.9266)" class="st4" width="0.7" height="43.4"/>
	
		<rect x="104.7" y="68.3" transform="matrix(0.9966 -8.211257e-02 8.211257e-02 0.9966 -7.0342 8.9307)" class="st4" width="0.7" height="43.4"/>
	
		<rect x="83.4" y="89.6" transform="matrix(0.9966 -8.211244e-02 8.211244e-02 0.9966 -7.0345 8.9295)" class="st4" width="43.4" height="0.7"/>
	<path class="st4" d="M102.8,82.3c-4.2,1.2-6.7,5.6-5.5,9.9c1.2,4.2,5.6,6.7,9.9,5.5s6.7-5.6,5.5-9.9c0,0,0,0,0-0.1
		C111.5,83.6,107.1,81.1,102.8,82.3z M103.5,84.6c3-0.9,6.1,0.9,7,3.8c0.9,3-0.9,6.1-3.8,7c-3,0.9-6.1-0.8-7-3.8
		C98.8,88.6,100.5,85.5,103.5,84.6C103.5,84.6,103.5,84.6,103.5,84.6z"/>
</g>
<path class="st0" d="M506.3,263l-8.4-7.5l-5.9,2.8l-4.9-5.4l-5.9-4.3c0,0-0.6-3.3-2-3.4s-8.2,2-8.2,2l-14.9,0.2l-1.5,3l4.8,8.3
	l2.7,7.6l3.4,2.8l-1.5,5.3l4.3,7.3l-3.3,8.9l4,3.7l6.4-3.8l4.9-5.4l-1-4.8l1.4-7.8c0,0,2.7-1.9,3.8-2.5s9.7-2.8,9.7-2.8l3.8-2.2
	L506.3,263z M475.3,276.7l-0.9,4.3l2.2,3.8l-4.9,2.9l-1.8,2.9l-1.2-2.1l2.8-4.5l-1.1-4.1l-2.5-4.2l1.9-2.4L475.3,276.7z
	 M501.8,261.2l-5.7,2l-3.5,2l-0.3-3.6l3.7-3.7L501.8,261.2z"/>
<path class="st1" d="M500.1,115.3l7-3.2l-7.8,6.6l7.3-2.3l-5.5,4.1l5.6-1.7l-4.4,2.7l5.4-2.1l-5.1,3.6l4.8-2.4l-4.1,3l5.4-2.9
	l-1,0.9l10.2-6.2c0.9-0.5,0.3-3-1.2-5.6s-3.5-4.2-4.4-3.7l-10.4,6.3L500.1,115.3z"/>
<path class="st1" d="M482.3,114.8l-11.5-0.7c-0.3,0.1-0.5,0.3-0.5,0.6l-1.9-0.1c-0.3,0-0.6,0.6-0.7,1.4s0.2,1.4,0.5,1.5l1.9,0.1
	c0,0.3,0.2,0.6,0.5,0.7l11.6,0.7c0.7,2.1,2.6,3.5,4.8,3.7l13.3,0.8l1.4-0.2l-6.1-0.7l5.1-0.2l-5.3-0.8l6.3-0.1l-5.6-1.3l5.1,0.3
	l-5.6-1.8l6.8-0.3l-7.4-2.2l10.1-1l-7.6-1.4l3.2-1.2l-13-0.8C485.4,111.5,483.3,112.7,482.3,114.8z"/>
<path class="st2" d="M18.8,492l-0.9,4.3c0,0,0.6,8.8,0.3,10s-1.2,4.4-1.2,4.4l-7,3.8l-4.9,0.5l-3.6,6.3L0,528.5l4.8,2.7l7.5-6
	l8.3,1.8l4.6-3l3.7,2.4l8.1,0.2l9.4,2l2.5-2.4l-4.5-14.2c0,0-0.1-7.2-0.7-8.4s-3.9-0.8-3.9-0.8l-5.9-4.3l-6.7-2.9l0.8-6.5l-9.7-5.6
	L18.8,492z M19.8,521.1l-1.7,2.6l-4.8-1L9,523l-3.4,4l-2.4-0.5l2.2-2.6l1.2-5.5l4.3,0.9l3.8-2.2L19.8,521.1z M26.2,491.6l-2.4,4.7
	l-3.5,0.8l0.9-3.9l0.2-6L26.2,491.6z"/>
<path class="st1" d="M625.8,314.8c10.1-13.8,7.1-33.2-6.7-43.3c-13.8-10.1-33.2-7.1-43.3,6.7c-10.1,13.8-7.1,33.2,6.7,43.3
	C596.3,331.6,615.7,328.7,625.8,314.8C625.8,314.9,625.8,314.8,625.8,314.8z M589.3,288.1c4.6-6.3,13.5-7.7,19.9-3.1
	c6.3,4.6,7.7,13.5,3.1,19.9c-4.6,6.3-13.5,7.7-19.9,3.1C586.1,303.3,584.7,294.4,589.3,288.1C589.3,288.1,589.3,288.1,589.3,288.1z"
	/>
</svg>
